AnekTamil-CondensedThin.ufo
<glyph name="question" format="2">
  <advance width="446"/>
  <unicode hex="003F"/>
  <outline>
    <contour>
      <point x="143" y="327" type="line"/>
      <point x="178" y="327" type="line"/>
      <point x="178" y="598" type="line"/>
      <point x="154" y="565" type="line"/>
      <point x="182" y="577" type="line" smooth="yes"/>
      <point x="328" y="640"/>
      <point x="357" y="721"/>
      <point x="357" y="876" type="curve" smooth="yes"/>
      <point x="357" y="1045" type="line" smooth="yes"/>
      <point x="357" y="1210"/>
      <point x="309" y="1293"/>
      <point x="184" y="1293" type="curve" smooth="yes"/>
      <point x="127" y="1293"/>
      <point x="75" y="1269"/>
      <point x="44" y="1245" type="curve"/>
      <point x="38" y="1206" type="line"/>
      <point x="81" y="1236"/>
      <point x="125" y="1258"/>
      <point x="184" y="1258" type="curve" smooth="yes"/>
      <point x="283" y="1258"/>
      <point x="320" y="1190"/>
      <point x="320" y="1043" type="curve" smooth="yes"/>
      <point x="320" y="873" type="line" smooth="yes"/>
      <point x="320" y="736"/>
      <point x="293" y="661"/>
      <point x="172" y="611" type="curve" smooth="yes"/>
      <point x="143" y="599" type="line"/>
    </contour>
    <contour>
      <point x="160" y="-9" type="curve" smooth="yes"/>
      <point x="182" y="-9"/>
      <point x="190" y="9"/>
      <point x="190" y="50" type="curve" smooth="yes"/>
      <point x="190" y="66" type="line" smooth="yes"/>
      <point x="190" y="106"/>
      <point x="182" y="125"/>
      <point x="160" y="125" type="curve" smooth="yes"/>
      <point x="138" y="125"/>
      <point x="131" y="106"/>
      <point x="131" y="66" type="curve" smooth="yes"/>
      <point x="131" y="50" type="line" smooth="yes"/>
      <point x="131" y="9"/>
      <point x="138" y="-9"/>
    </contour>
  </outline>
</glyph>
<glyph name="section" format="2">
  <advance width="528"/>
  <unicode hex="00A7"/>
  <outline>
    <contour>
      <point x="283" y="338" type="curve"/>
      <point x="313" y="312" type="line"/>
      <point x="313" y="325" type="line"/>
      <point x="388" y="349"/>
      <point x="436" y="395"/>
      <point x="436" y="514" type="curve" smooth="yes"/>
      <point x="436" y="605" type="line" smooth="yes"/>
      <point x="436" y="728"/>
      <point x="402" y="791"/>
      <point x="274" y="864" type="curve" smooth="yes"/>
      <point x="162" y="928"/>
      <point x="127" y="968"/>
      <point x="127" y="1077" type="curve" smooth="yes"/>
      <point x="127" y="1096" type="line" smooth="yes"/>
      <point x="127" y="1198"/>
      <point x="173" y="1258"/>
      <point x="270" y="1258" type="curve" smooth="yes"/>
      <point x="337" y="1258"/>
      <point x="380" y="1230"/>
      <point x="432" y="1183" type="curve"/>
      <point x="427" y="1226" type="line"/>
      <point x="391" y="1262"/>
      <point x="344" y="1293"/>
      <point x="271" y="1293" type="curve" smooth="yes"/>
      <point x="150" y="1293"/>
      <point x="90" y="1219"/>
      <point x="90" y="1096" type="curve" smooth="yes"/>
      <point x="90" y="1078" type="line" smooth="yes"/>
      <point x="90" y="947"/>
      <point x="137" y="902"/>
      <point x="258" y="831" type="curve" smooth="yes"/>
      <point x="392" y="752"/>
      <point x="399" y="688"/>
      <point x="399" y="601" type="curve" smooth="yes"/>
      <point x="399" y="514" type="line" smooth="yes"/>
      <point x="399" y="415"/>
      <point x="369" y="369"/>
    </contour>
    <contour>
      <point x="243" y="851" type="curve"/>
      <point x="213" y="877" type="line"/>
      <point x="213" y="864" type="line"/>
      <point x="138" y="840"/>
      <point x="90" y="794"/>
      <point x="90" y="675" type="curve" smooth="yes"/>
      <point x="90" y="591" type="line" smooth="yes"/>
      <point x="90" y="455"/>
      <point x="132" y="396"/>
      <point x="258" y="324" type="curve" smooth="yes"/>
      <point x="390" y="249"/>
      <point x="399" y="201"/>
      <point x="399" y="114" type="curve" smooth="yes"/>
      <point x="399" y="87" type="line" smooth="yes"/>
      <point x="399" y="-23"/>
      <point x="347" y="-95"/>
      <point x="249" y="-95" type="curve" smooth="yes"/>
      <point x="188" y="-95"/>
      <point x="136" y="-68"/>
      <point x="84" y="-25" type="curve"/>
      <point x="89" y="-69" type="line"/>
      <point x="122" y="-99"/>
      <point x="180" y="-130"/>
      <point x="248" y="-130" type="curve" smooth="yes"/>
      <point x="368" y="-130"/>
      <point x="436" y="-44"/>
      <point x="436" y="87" type="curve" smooth="yes"/>
      <point x="436" y="118" type="line" smooth="yes"/>
      <point x="436" y="231"/>
      <point x="399" y="285"/>
      <point x="274" y="357" type="curve" smooth="yes"/>
      <point x="162" y="421"/>
      <point x="127" y="471"/>
      <point x="127" y="590" type="curve" smooth="yes"/>
      <point x="127" y="675" type="line" smooth="yes"/>
      <point x="127" y="774"/>
      <point x="157" y="820"/>
    </contour>
  </outline>
</glyph>
<glyph name="Anusvara.tm" format="2">
  <unicode hex="0B82"/>
  <note>
Anusvara.tm
</note>
  <outline>
    <contour>
      <point x="126" y="1660" type="curve" smooth="yes"/>
      <point x="46" y="1660"/>
      <point x="6" y="1606"/>
      <point x="6" y="1496" type="curve" smooth="yes"/>
      <point x="6" y="1393" type="line"/>
      <point x="6" y="1282"/>
      <point x="46" y="1229"/>
      <point x="126" y="1229" type="curve" smooth="yes"/>
      <point x="205" y="1229"/>
      <point x="243" y="1282"/>
      <point x="243" y="1393" type="curve" smooth="yes"/>
      <point x="243" y="1496" type="line"/>
      <point x="243" y="1606"/>
      <point x="205" y="1660"/>
    </contour>
    <contour>
      <point x="126" y="1628" type="curve" smooth="yes"/>
      <point x="183" y="1628"/>
      <point x="210" y="1590"/>
      <point x="210" y="1494" type="curve" smooth="yes"/>
      <point x="210" y="1395" type="line"/>
      <point x="210" y="1301"/>
      <point x="183" y="1260"/>
      <point x="126" y="1260" type="curve" smooth="yes"/>
      <point x="69" y="1260"/>
      <point x="39" y="1301"/>
      <point x="39" y="1395" type="curve" smooth="yes"/>
      <point x="39" y="1494" type="line"/>
      <point x="39" y="1590"/>
      <point x="69" y="1628"/>
    </contour>
  </outline>
</glyph>
<glyph name="VowelA.tm" format="2">
  <advance width="1246"/>
  <unicode hex="0B85"/>
  <note>
vowelA.tm
</note>
  <outline>
    <contour>
      <point x="588" y="1174" type="curve" smooth="yes"/>
      <point x="391" y="1174"/>
      <point x="300" y="1051"/>
      <point x="300" y="817" type="curve" smooth="yes"/>
      <point x="300" y="466" type="line" smooth="yes"/>
      <point x="300" y="324"/>
      <point x="352" y="254"/>
      <point x="459" y="254" type="curve" smooth="yes"/>
      <point x="567" y="254"/>
      <point x="619" y="324"/>
      <point x="619" y="466" type="curve" smooth="yes"/>
      <point x="619" y="734" type="line" smooth="yes"/>
      <point x="619" y="862"/>
      <point x="567" y="929"/>
      <point x="472" y="929" type="curve" smooth="yes"/>
      <point x="402" y="929"/>
      <point x="354" y="887"/>
      <point x="333" y="830" type="curve"/>
      <point x="329" y="830" type="line"/>
      <point x="329" y="760" type="line"/>
      <point x="351" y="845"/>
      <point x="399" y="895"/>
      <point x="469" y="895" type="curve" smooth="yes"/>
      <point x="546" y="895"/>
      <point x="585" y="840"/>
      <point x="585" y="734" type="curve" smooth="yes"/>
      <point x="585" y="467" type="line" smooth="yes"/>
      <point x="585" y="342"/>
      <point x="544" y="287"/>
      <point x="459" y="287" type="curve" smooth="yes"/>
      <point x="377" y="287"/>
      <point x="334" y="342"/>
      <point x="334" y="467" type="curve"/>
      <point x="334" y="830" type="line"/>
      <point x="333" y="830" type="line"/>
      <point x="337" y="1029"/>
      <point x="411" y="1141"/>
      <point x="588" y="1141" type="curve" smooth="yes"/>
      <point x="781" y="1141"/>
      <point x="832" y="1021"/>
      <point x="832" y="797" type="curve" smooth="yes"/>
      <point x="832" y="463" type="line" smooth="yes"/>
      <point x="832" y="154"/>
      <point x="737" y="6"/>
      <point x="482" y="6" type="curve" smooth="yes"/>
      <point x="480" y="6" type="line" smooth="yes"/>
      <point x="233" y="6"/>
      <point x="107" y="147"/>
      <point x="107" y="468" type="curve" smooth="yes"/>
      <point x="107" y="521" type="line" smooth="yes"/>
      <point x="107" y="561"/>
      <point x="107" y="600"/>
      <point x="107" y="640" type="curve"/>
      <point x="316" y="640" type="line"/>
      <point x="316" y="672" type="line"/>
      <point x="72" y="672" type="line"/>
      <point x="72" y="638"/>
      <point x="72" y="581"/>
      <point x="72" y="519" type="curve" smooth="yes"/>
      <point x="72" y="468" type="line" smooth="yes"/>
      <point x="72" y="128"/>
      <point x="216" y="-28"/>
      <point x="480" y="-28" type="curve" smooth="yes"/>
      <point x="482" y="-28" type="line" smooth="yes"/>
      <point x="757" y="-28"/>
      <point x="867" y="134"/>
      <point x="867" y="463" type="curve" smooth="yes"/>
      <point x="867" y="800" type="line" smooth="yes"/>
      <point x="867" y="1045"/>
      <point x="800" y="1174"/>
    </contour>
    <contour>
      <point x="596" y="672" type="line"/>
      <point x="596" y="640" type="line"/>
      <point x="847" y="640" type="line"/>
      <point x="847" y="672" type="line"/>
    </contour>
    <contour>
      <point x="850" y="672" type="line"/>
      <point x="850" y="640" type="line"/>
      <point x="1100" y="640" type="line"/>
      <point x="1100" y="672" type="line"/>
    </contour>
    <contour>
      <point x="1079" y="1156" type="line"/>
      <point x="1079" y="0" type="line"/>
      <point x="1114" y="0" type="line"/>
      <point x="1114" y="1156" type="line"/>
    </contour>
  </outline>
</glyph>
<glyph name="VowelI.tm" format="2">
  <advance width="1270"/>
  <unicode hex="0B87"/>
  <note>
vowelI.tm
</note>
  <guideline x="2326" y="-650" angle="180"/>
  <guideline x="951" y="1192" angle="0"/>
  <guideline x="348" y="1341" angle="0"/>
  <outline>
    <contour>
      <point x="642" y="1156" type="curve" smooth="yes"/>
      <point x="444" y="1156"/>
      <point x="351" y="1038"/>
      <point x="351" y="817" type="curve" smooth="yes"/>
      <point x="351" y="462" type="line" smooth="yes"/>
      <point x="351" y="322"/>
      <point x="401" y="254"/>
      <point x="506" y="254" type="curve" smooth="yes"/>
      <point x="611" y="254"/>
      <point x="661" y="322"/>
      <point x="661" y="462" type="curve" smooth="yes"/>
      <point x="661" y="738" type="line" smooth="yes"/>
      <point x="661" y="864"/>
      <point x="611" y="929"/>
      <point x="519" y="929" type="curve" smooth="yes"/>
      <point x="451" y="929"/>
      <point x="405" y="889"/>
      <point x="384" y="834" type="curve"/>
      <point x="379" y="834" type="line"/>
      <point x="379" y="764" type="line"/>
      <point x="401" y="847"/>
      <point x="447" y="895"/>
      <point x="515" y="895" type="curve" smooth="yes"/>
      <point x="591" y="895"/>
      <point x="627" y="842"/>
      <point x="627" y="738" type="curve" smooth="yes"/>
      <point x="627" y="464" type="line" smooth="yes"/>
      <point x="627" y="340"/>
      <point x="589" y="287"/>
      <point x="506" y="287" type="curve" smooth="yes"/>
      <point x="425" y="287"/>
      <point x="385" y="340"/>
      <point x="385" y="464" type="curve" smooth="yes"/>
      <point x="385" y="834" type="line"/>
      <point x="384" y="834" type="line"/>
      <point x="389" y="1019"/>
      <point x="463" y="1123"/>
      <point x="642" y="1123" type="curve" smooth="yes"/>
      <point x="820" y="1123"/>
      <point x="891" y="1009"/>
      <point x="891" y="786" type="curve" smooth="yes"/>
      <point x="891" y="622" type="line" smooth="yes"/>
      <point x="891" y="235"/>
      <point x="794" y="16"/>
      <point x="509" y="16" type="curve" smooth="yes"/>
      <point x="271" y="16"/>
      <point x="147" y="147"/>
      <point x="147" y="424" type="curve" smooth="yes"/>
      <point x="147" y="497" type="line"/>
      <point x="147" y="537"/>
      <point x="147" y="576"/>
      <point x="147" y="616" type="curve"/>
      <point x="362" y="616" type="line"/>
      <point x="364" y="648" type="line"/>
      <point x="112" y="648" type="line"/>
      <point x="112" y="615"/>
      <point x="112" y="558"/>
      <point x="112" y="495" type="curve" smooth="yes"/>
      <point x="112" y="420" type="line" smooth="yes"/>
      <point x="112" y="119"/>
      <point x="254" y="-18"/>
      <point x="509" y="-18" type="curve" smooth="yes"/>
      <point x="605" y="-18"/>
      <point x="680" y="5"/>
      <point x="741" y="47" type="curve"/>
      <point x="746" y="52" type="line"/>
      <point x="874" y="150"/>
      <point x="926" y="332"/>
      <point x="926" y="618" type="curve" smooth="yes"/>
      <point x="926" y="793" type="line" smooth="yes"/>
      <point x="926" y="1030"/>
      <point x="844" y="1156"/>
    </contour>
    <contour>
      <point x="1164" y="648" type="curve"/>
      <point x="642" y="648" type="line"/>
      <point x="642" y="616" type="line"/>
      <point x="1129" y="616" type="line"/>
      <point x="1129" y="580"/>
      <point x="1129" y="543"/>
      <point x="1129" y="506" type="curve"/>
      <point x="1129" y="278" type="line" smooth="yes"/>
      <point x="1129" y="102"/>
      <point x="1062" y="16"/>
      <point x="921" y="16" type="curve" smooth="yes"/>
      <point x="843" y="16"/>
      <point x="790" y="36"/>
      <point x="739" y="75" type="curve"/>
      <point x="709" y="57" type="line"/>
      <point x="768" y="7"/>
      <point x="834" y="-18"/>
      <point x="923" y="-18" type="curve" smooth="yes"/>
      <point x="1085" y="-18"/>
      <point x="1164" y="81"/>
      <point x="1164" y="276" type="curve" smooth="yes"/>
      <point x="1164" y="504" type="line"/>
      <point x="1164" y="552"/>
      <point x="1164" y="600"/>
    </contour>
    <contour>
      <point x="644" y="1445" type="curve" smooth="yes"/>
      <point x="337" y="1445"/>
      <point x="123" y="1283"/>
      <point x="123" y="949" type="curve" smooth="yes"/>
      <point x="123" y="903" type="line" smooth="yes"/>
      <point x="123" y="828"/>
      <point x="136" y="762"/>
      <point x="166" y="708" type="curve"/>
      <point x="204" y="701" type="line"/>
      <point x="167" y="769"/>
      <point x="158" y="834"/>
      <point x="158" y="905" type="curve" smooth="yes"/>
      <point x="158" y="944" type="line" smooth="yes"/>
      <point x="158" y="1258"/>
      <point x="355" y="1411"/>
      <point x="644" y="1411" type="curve" smooth="yes"/>
      <point x="920" y="1411"/>
      <point x="1097" y="1262"/>
      <point x="1097" y="936" type="curve" smooth="yes"/>
      <point x="1097" y="867"/>
      <point x="1097" y="798"/>
      <point x="1097" y="729" type="curve"/>
      <point x="1132" y="729" type="line"/>
      <point x="1132" y="798"/>
      <point x="1132" y="869"/>
      <point x="1132" y="938" type="curve" smooth="yes"/>
      <point x="1132" y="1287"/>
      <point x="938" y="1445"/>
    </contour>
  </outline>
</glyph>
<glyph name="VowelEe.tm" format="2">
  <advance width="875"/>
  <unicode hex="0B8F"/>
  <note>
vowelEe.tm
</note>
  <outline>
    <contour>
      <point x="686" y="1143" type="line"/>
      <point x="686" y="-120" type="line"/>
      <point x="348" y="-188" type="line"/>
      <point x="348" y="-219" type="line"/>
      <point x="721" y="-147" type="line"/>
      <point x="721" y="1143" type="line"/>
    </contour>
    <contour>
      <point x="542" y="1124" type="line"/>
      <point x="881" y="1124" type="line"/>
      <point x="877" y="1156" type="line"/>
      <point x="542" y="1156" type="line"/>
    </contour>
    <component base="VowelE_NonExporting" xOffset="2"/>
  </outline>
</glyph>
<glyph name="VowelO.tm" format="2">
  <advance width="1047"/>
  <unicode hex="0B92"/>
  <note>
vowelO.tm
</note>
  <guideline x="559" y="738" angle="180"/>
  <outline>
    <contour>
      <point x="529" y="1213" type="curve" smooth="yes"/>
      <point x="244" y="1213"/>
      <point x="92" y="1040"/>
      <point x="92" y="730" type="curve" smooth="yes"/>
      <point x="92" y="395" type="line" smooth="yes"/>
      <point x="92" y="250"/>
      <point x="149" y="176"/>
      <point x="263" y="176" type="curve" smooth="yes"/>
      <point x="374" y="176"/>
      <point x="428" y="250"/>
      <point x="428" y="395" type="curve" smooth="yes"/>
      <point x="428" y="668" type="line" smooth="yes"/>
      <point x="428" y="798"/>
      <point x="374" y="867"/>
      <point x="274" y="867" type="curve" smooth="yes"/>
      <point x="202" y="867"/>
      <point x="150" y="826"/>
      <point x="126" y="768" type="curve"/>
      <point x="121" y="768" type="line"/>
      <point x="121" y="699" type="line"/>
      <point x="143" y="785"/>
      <point x="197" y="833"/>
      <point x="270" y="833" type="curve" smooth="yes"/>
      <point x="353" y="833"/>
      <point x="394" y="774"/>
      <point x="394" y="666" type="curve" smooth="yes"/>
      <point x="394" y="397" type="line" smooth="yes"/>
      <point x="394" y="267"/>
      <point x="351" y="209"/>
      <point x="263" y="209" type="curve" smooth="yes"/>
      <point x="173" y="209"/>
      <point x="127" y="267"/>
      <point x="127" y="397" type="curve"/>
      <point x="127" y="768" type="line"/>
      <point x="126" y="768" type="line"/>
      <point x="138" y="1030"/>
      <point x="270" y="1179"/>
      <point x="529" y="1179" type="curve" smooth="yes"/>
      <point x="797" y="1179"/>
      <point x="903" y="999"/>
      <point x="903" y="749" type="curve" smooth="yes"/>
      <point x="903" y="425" type="line" smooth="yes"/>
      <point x="903" y="304"/>
      <point x="861" y="248"/>
      <point x="778" y="248" type="curve" smooth="yes"/>
      <point x="693" y="248"/>
      <point x="649" y="304"/>
      <point x="649" y="425" type="curve" smooth="yes"/>
      <point x="649" y="570"/>
      <point x="649" y="688"/>
      <point x="649" y="834" type="curve"/>
      <point x="614" y="834" type="line"/>
      <point x="614" y="688"/>
      <point x="614" y="569"/>
      <point x="614" y="423" type="curve" smooth="yes"/>
      <point x="614" y="300"/>
      <point x="658" y="224"/>
      <point x="778" y="224" type="curve" smooth="yes"/>
      <point x="798" y="224"/>
      <point x="820" y="230"/>
      <point x="837" y="236" type="curve"/>
      <point x="907" y="252"/>
      <point x="938" y="326"/>
      <point x="938" y="423" type="curve" smooth="yes"/>
      <point x="938" y="749" type="line" smooth="yes"/>
      <point x="938" y="1019"/>
      <point x="816" y="1213"/>
    </contour>
    <contour>
      <point x="957" y="248" type="line"/>
      <point x="855" y="248" type="line"/>
      <point x="774" y="226" type="line"/>
      <point x="774" y="223" type="line"/>
      <point x="728" y="202"/>
      <point x="714" y="158"/>
      <point x="714" y="85" type="curve" smooth="yes"/>
      <point x="714" y="-66" type="line" smooth="yes"/>
      <point x="714" y="-221"/>
      <point x="657" y="-289"/>
      <point x="542" y="-289" type="curve" smooth="yes"/>
      <point x="427" y="-289"/>
      <point x="364" y="-221"/>
      <point x="364" y="-66" type="curve" smooth="yes"/>
      <point x="364" y="-20"/>
      <point x="364" y="28"/>
      <point x="364" y="74" type="curve"/>
      <point x="329" y="66" type="line"/>
      <point x="329" y="20"/>
      <point x="329" y="-22"/>
      <point x="329" y="-68" type="curve" smooth="yes"/>
      <point x="329" y="-237"/>
      <point x="400" y="-322"/>
      <point x="542" y="-322" type="curve" smooth="yes"/>
      <point x="681" y="-322"/>
      <point x="749" y="-237"/>
      <point x="749" y="-68" type="curve" smooth="yes"/>
      <point x="749" y="81" type="line" smooth="yes"/>
      <point x="749" y="175"/>
      <point x="763" y="217"/>
      <point x="857" y="217" type="curve" smooth="yes"/>
      <point x="953" y="217" type="line"/>
    </contour>
  </outline>
</glyph>
<glyph name="VowelOo.tm" format="2">
  <advance width="1047"/>
  <unicode hex="0B93"/>
  <note>
vowelOo.tm
</note>
  <outline>
    <contour>
      <point x="957" y="248" type="line"/>
      <point x="864" y="248" type="line"/>
      <point x="793" y="226" type="line"/>
      <point x="793" y="223" type="line"/>
      <point x="748" y="202"/>
      <point x="733" y="158"/>
      <point x="733" y="85" type="curve" smooth="yes"/>
      <point x="733" y="-57" type="line" smooth="yes"/>
      <point x="733" y="-219"/>
      <point x="667" y="-289"/>
      <point x="533" y="-289" type="curve" smooth="yes"/>
      <point x="518" y="-289"/>
      <point x="505" y="-289"/>
      <point x="479" y="-287" type="curve"/>
      <point x="479" y="-285" type="line"/>
      <point x="465" y="-287" type="line"/>
      <point x="365" y="-271"/>
      <point x="307" y="-206"/>
      <point x="307" y="-79" type="curve" smooth="yes"/>
      <point x="307" y="-4" type="line" smooth="yes"/>
      <point x="307" y="84"/>
      <point x="345" y="123"/>
      <point x="405" y="123" type="curve" smooth="yes"/>
      <point x="462" y="123"/>
      <point x="497" y="84"/>
      <point x="497" y="-2" type="curve" smooth="yes"/>
      <point x="497" y="-129" type="line" smooth="yes"/>
      <point x="497" y="-210"/>
      <point x="471" y="-267"/>
      <point x="438" y="-291" type="curve"/>
      <point x="479" y="-291" type="line"/>
      <point x="479" y="-287" type="line"/>
      <point x="512" y="-256"/>
      <point x="530" y="-199"/>
      <point x="530" y="-125" type="curve" smooth="yes"/>
      <point x="530" y="-2" type="line" smooth="yes"/>
      <point x="530" y="103"/>
      <point x="480" y="155"/>
      <point x="405" y="155" type="curve" smooth="yes"/>
      <point x="326" y="155"/>
      <point x="274" y="103"/>
      <point x="274" y="-4" type="curve" smooth="yes"/>
      <point x="274" y="-80" type="line" smooth="yes"/>
      <point x="274" y="-239"/>
      <point x="362" y="-322"/>
      <point x="533" y="-322" type="curve" smooth="yes"/>
      <point x="690" y="-322"/>
      <point x="767" y="-236"/>
      <point x="767" y="-59" type="curve" smooth="yes"/>
      <point x="767" y="81" type="line" smooth="yes"/>
      <point x="767" y="175"/>
      <point x="782" y="217"/>
      <point x="876" y="217" type="curve" smooth="yes"/>
      <point x="953" y="217" type="line"/>
    </contour>
    <contour>
      <point x="529" y="1213" type="curve" smooth="yes"/>
      <point x="244" y="1213"/>
      <point x="92" y="1040"/>
      <point x="92" y="730" type="curve" smooth="yes"/>
      <point x="92" y="432" type="line" smooth="yes"/>
      <point x="92" y="287"/>
      <point x="149" y="213"/>
      <point x="263" y="213" type="curve" smooth="yes"/>
      <point x="374" y="213"/>
      <point x="428" y="287"/>
      <point x="428" y="432" type="curve" smooth="yes"/>
      <point x="428" y="668" type="line" smooth="yes"/>
      <point x="428" y="798"/>
      <point x="374" y="867"/>
      <point x="274" y="867" type="curve" smooth="yes"/>
      <point x="202" y="867"/>
      <point x="150" y="826"/>
      <point x="126" y="768" type="curve"/>
      <point x="121" y="768" type="line"/>
      <point x="121" y="699" type="line"/>
      <point x="143" y="785"/>
      <point x="197" y="833"/>
      <point x="270" y="833" type="curve" smooth="yes"/>
      <point x="353" y="833"/>
      <point x="394" y="774"/>
      <point x="394" y="666" type="curve" smooth="yes"/>
      <point x="394" y="434" type="line" smooth="yes"/>
      <point x="394" y="304"/>
      <point x="351" y="246"/>
      <point x="263" y="246" type="curve" smooth="yes"/>
      <point x="173" y="246"/>
      <point x="127" y="304"/>
      <point x="127" y="434" type="curve"/>
      <point x="127" y="768" type="line"/>
      <point x="126" y="768" type="line"/>
      <point x="138" y="1030"/>
      <point x="270" y="1179"/>
      <point x="529" y="1179" type="curve" smooth="yes"/>
      <point x="797" y="1179"/>
      <point x="903" y="999"/>
      <point x="903" y="749" type="curve" smooth="yes"/>
      <point x="903" y="425" type="line" smooth="yes"/>
      <point x="903" y="304"/>
      <point x="861" y="248"/>
      <point x="778" y="248" type="curve" smooth="yes"/>
      <point x="693" y="248"/>
      <point x="649" y="304"/>
      <point x="649" y="425" type="curve" smooth="yes"/>
      <point x="649" y="570"/>
      <point x="649" y="688"/>
      <point x="649" y="834" type="curve"/>
      <point x="614" y="834" type="line"/>
      <point x="614" y="688"/>
      <point x="614" y="569"/>
      <point x="614" y="423" type="curve" smooth="yes"/>
      <point x="614" y="300"/>
      <point x="658" y="224"/>
      <point x="778" y="224" type="curve" smooth="yes"/>
      <point x="798" y="224"/>
      <point x="820" y="230"/>
      <point x="837" y="236" type="curve"/>
      <point x="907" y="252"/>
      <point x="938" y="326"/>
      <point x="938" y="423" type="curve" smooth="yes"/>
      <point x="938" y="749" type="line" smooth="yes"/>
      <point x="938" y="1019"/>
      <point x="816" y="1213"/>
    </contour>
  </outline>
</glyph>
<glyph name="Ha.tm" format="2">
  <advance width="1826"/>
  <unicode hex="0BB9"/>
  <note>
Ha.tm
</note>
  <guideline x="195" y="301" angle="90"/>
  <anchor x="831" y="1236" name="top"/>
  <outline>
    <contour>
      <point x="761" y="32" type="line"/>
      <point x="761" y="0" type="line"/>
      <point x="984" y="0" type="line"/>
      <point x="984" y="32" type="line"/>
    </contour>
    <contour>
      <point x="1003" y="-216" type="line"/>
      <point x="74" y="-216" type="line"/>
      <point x="80" y="-248" type="line"/>
      <point x="1003" y="-248" type="line"/>
    </contour>
    <component base="Va_NonExporting" xOffset="10"/>
    <component base="Rra.tm" xOffset="846"/>
  </outline>
</glyph>
<glyph name="MatraE.tm" format="2">
  <advance width="860"/>
  <unicode hex="0BC6"/>
  <note>
MatraE.tm
</note>
  <outline>
    <contour>
      <point x="438" y="1378" type="curve" smooth="yes"/>
      <point x="221" y="1378"/>
      <point x="122" y="1242"/>
      <point x="122" y="944" type="curve" smooth="yes"/>
      <point x="122" y="219" type="line" smooth="yes"/>
      <point x="122" y="61"/>
      <point x="180" y="-18"/>
      <point x="300" y="-18" type="curve" smooth="yes"/>
      <point x="420" y="-18"/>
      <point x="477" y="61"/>
      <point x="477" y="219" type="curve" smooth="yes"/>
      <point x="477" y="585" type="line" smooth="yes"/>
      <point x="477" y="729"/>
      <point x="419" y="802"/>
      <point x="313" y="802" type="curve" smooth="yes"/>
      <point x="234" y="802"/>
      <point x="181" y="753"/>
      <point x="157" y="687" type="curve"/>
      <point x="152" y="687" type="line"/>
      <point x="151" y="613" type="line"/>
      <point x="175" y="711"/>
      <point x="230" y="768"/>
      <point x="309" y="768" type="curve" smooth="yes"/>
      <point x="397" y="768"/>
      <point x="442" y="704"/>
      <point x="442" y="583" type="curve" smooth="yes"/>
      <point x="442" y="221" type="line" smooth="yes"/>
      <point x="442" y="79"/>
      <point x="396" y="15"/>
      <point x="300" y="15" type="curve" smooth="yes"/>
      <point x="204" y="15"/>
      <point x="157" y="79"/>
      <point x="157" y="221" type="curve"/>
      <point x="157" y="687" type="line"/>
      <point x="157" y="687" type="line"/>
      <point x="157" y="777"/>
      <point x="157" y="855"/>
      <point x="157" y="940" type="curve" smooth="yes"/>
      <point x="157" y="1222"/>
      <point x="241" y="1345"/>
      <point x="438" y="1345" type="curve" smooth="yes"/>
      <point x="642" y="1345"/>
      <point x="698" y="1207"/>
      <point x="698" y="951" type="curve"/>
      <point x="698" y="0" type="line"/>
      <point x="732" y="0" type="line"/>
      <point x="732" y="955" type="line"/>
      <point x="732" y="1233"/>
      <point x="661" y="1378"/>
    </contour>
  </outline>
</glyph>
<glyph name="Zero.tm" format="2">
  <advance width="663"/>
  <unicode hex="0BE6"/>
  <note>
Zero.tm
</note>
  <outline>
    <contour>
      <point x="333" y="1167" type="curve" smooth="yes"/>
      <point x="466" y="1167"/>
      <point x="506" y="1082"/>
      <point x="506" y="898" type="curve" smooth="yes"/>
      <point x="506" y="294" type="line" smooth="yes"/>
      <point x="506" y="110"/>
      <point x="466" y="26"/>
      <point x="333" y="26" type="curve" smooth="yes"/>
      <point x="199" y="26"/>
      <point x="157" y="110"/>
      <point x="157" y="294" type="curve" smooth="yes"/>
      <point x="157" y="898" type="line" smooth="yes"/>
      <point x="157" y="1082"/>
      <point x="199" y="1167"/>
    </contour>
    <contour>
      <point x="333" y="1200" type="curve" smooth="yes"/>
      <point x="177" y="1200"/>
      <point x="122" y="1108"/>
      <point x="122" y="902" type="curve" smooth="yes"/>
      <point x="122" y="291" type="line" smooth="yes"/>
      <point x="122" y="85"/>
      <point x="177" y="-7"/>
      <point x="333" y="-7" type="curve" smooth="yes"/>
      <point x="488" y="-7"/>
      <point x="541" y="85"/>
      <point x="541" y="291" type="curve" smooth="yes"/>
      <point x="541" y="902" type="line" smooth="yes"/>
      <point x="541" y="1108"/>
      <point x="488" y="1200"/>
    </contour>
  </outline>
</glyph>
<glyph name="Four.tm" format="2">
  <advance width="821"/>
  <unicode hex="0BEA"/>
  <note>
Four.tm
</note>
  <outline>
    <contour>
      <point x="492" y="707" type="line"/>
      <point x="741" y="707" type="line"/>
      <point x="741" y="738" type="line"/>
      <point x="492" y="738" type="line"/>
    </contour>
    <contour>
      <point x="730" y="1156" type="line"/>
      <point x="730" y="707" type="line"/>
      <point x="763" y="707" type="line"/>
      <point x="763" y="1156" type="line"/>
    </contour>
    <component base="KaComponent_Nonexporting" xOffset="33"/>
    <component base="KaBeak_Nonexporting" xOffset="460"/>
  </outline>
</glyph>
<glyph name="Six.tm" format="2">
  <advance width="1196"/>
  <unicode hex="0BEC"/>
  <note>
Six.tm
</note>
  <outline>
    <contour>
      <point x="491" y="707" type="line"/>
      <point x="552" y="707" type="line" smooth="yes"/>
      <point x="692" y="707"/>
      <point x="729" y="646"/>
      <point x="729" y="502" type="curve" smooth="yes"/>
      <point x="729" y="0" type="line"/>
      <point x="763" y="0" type="line"/>
      <point x="763" y="502" type="line" smooth="yes"/>
      <point x="763" y="646"/>
      <point x="795" y="707"/>
      <point x="918" y="707" type="curve" smooth="yes"/>
      <point x="1190" y="707" type="line"/>
      <point x="1187" y="738" type="line"/>
      <point x="916" y="738" type="line" smooth="yes"/>
      <point x="797" y="738"/>
      <point x="756" y="684"/>
      <point x="747" y="580" type="curve"/>
      <point x="745" y="580" type="line"/>
      <point x="736" y="684"/>
      <point x="690" y="738"/>
      <point x="554" y="738" type="curve" smooth="yes"/>
      <point x="491" y="738" type="line"/>
    </contour>
    <contour>
      <point x="1005" y="721" type="line"/>
      <point x="1005" y="0" type="line"/>
      <point x="1039" y="0" type="line"/>
      <point x="1039" y="721" type="line"/>
    </contour>
    <component base="KaComponent_Nonexporting" xOffset="33"/>
    <component base="KaBeak_Nonexporting" xOffset="532"/>
  </outline>
</glyph>
<glyph name="Eight.tm" format="2">
  <advance width="1042"/>
  <unicode hex="0BEE"/>
  <note>
Eight.tm
</note>
  <outline>
    <contour>
      <point x="875" y="1156" type="line"/>
      <point x="875" y="0" type="line"/>
      <point x="910" y="0" type="line"/>
      <point x="910" y="1156" type="line"/>
    </contour>
    <contour>
      <point x="457" y="1174" type="curve" smooth="yes"/>
      <point x="300" y="1174"/>
      <point x="251" y="1073"/>
      <point x="251" y="880" type="curve" smooth="yes"/>
      <point x="251" y="793"/>
      <point x="251" y="707"/>
      <point x="251" y="620" type="curve"/>
      <point x="286" y="620" type="line"/>
      <point x="286" y="705"/>
      <point x="286" y="791"/>
      <point x="286" y="876" type="curve" smooth="yes"/>
      <point x="286" y="1049"/>
      <point x="322" y="1141"/>
      <point x="457" y="1141" type="curve" smooth="yes"/>
      <point x="591" y="1141"/>
      <point x="628" y="1049"/>
      <point x="628" y="876" type="curve" smooth="yes"/>
      <point x="628" y="346" type="line" smooth="yes"/>
      <point x="628" y="116"/>
      <point x="562" y="6"/>
      <point x="380" y="6" type="curve" smooth="yes"/>
      <point x="378" y="6" type="line" smooth="yes"/>
      <point x="199" y="6"/>
      <point x="107" y="110"/>
      <point x="107" y="351" type="curve" smooth="yes"/>
      <point x="107" y="521" type="line" smooth="yes"/>
      <point x="107" y="548"/>
      <point x="107" y="576"/>
      <point x="107" y="604" type="curve"/>
      <point x="901" y="604" type="line"/>
      <point x="901" y="635" type="line"/>
      <point x="72" y="635" type="line"/>
      <point x="72" y="609"/>
      <point x="72" y="567"/>
      <point x="72" y="519" type="curve" smooth="yes"/>
      <point x="72" y="351" type="line" smooth="yes"/>
      <point x="72" y="92"/>
      <point x="179" y="-28"/>
      <point x="378" y="-28" type="curve" smooth="yes"/>
      <point x="380" y="-28" type="line" smooth="yes"/>
      <point x="582" y="-28"/>
      <point x="663" y="96"/>
      <point x="663" y="346" type="curve" smooth="yes"/>
      <point x="663" y="880" type="line" smooth="yes"/>
      <point x="663" y="1073"/>
      <point x="613" y="1174"/>
    </contour>
  </outline>
</glyph>
<glyph name="Thousand.tm" format="2">
  <advance width="1357"/>
  <unicode hex="0BF2"/>
  <note>
Thousand.tm
</note>
  <outline>
    <contour>
      <point x="490" y="707" type="line"/>
      <point x="1206" y="707" type="line"/>
      <point x="1202" y="738" type="line"/>
      <point x="490" y="738" type="line"/>
    </contour>
    <contour>
      <point x="955" y="729" type="line"/>
      <point x="955" y="407" type="line"/>
      <point x="954" y="399" type="line"/>
      <point x="954" y="-105" type="line" smooth="yes"/>
      <point x="954" y="-236"/>
      <point x="909" y="-294"/>
      <point x="816" y="-294" type="curve" smooth="yes"/>
      <point x="724" y="-294"/>
      <point x="678" y="-236"/>
      <point x="678" y="-105" type="curve" smooth="yes"/>
      <point x="678" y="197" type="line" smooth="yes"/>
      <point x="678" y="339"/>
      <point x="716" y="383"/>
      <point x="819" y="383" type="curve"/>
      <point x="963" y="383" type="line"/>
      <point x="976" y="383" type="line"/>
      <point x="1031" y="383" type="line" smooth="yes"/>
      <point x="1196" y="383"/>
      <point x="1252" y="322"/>
      <point x="1252" y="121" type="curve" smooth="yes"/>
      <point x="1252" y="-155" type="line" smooth="yes"/>
      <point x="1252" y="-454"/>
      <point x="1176" y="-559"/>
      <point x="909" y="-559" type="curve" smooth="yes"/>
      <point x="580" y="-559" type="line"/>
      <point x="585" y="-591" type="line"/>
      <point x="911" y="-591" type="line" smooth="yes"/>
      <point x="1193" y="-591"/>
      <point x="1287" y="-475"/>
      <point x="1287" y="-155" type="curve" smooth="yes"/>
      <point x="1287" y="121" type="line" smooth="yes"/>
      <point x="1287" y="339"/>
      <point x="1217" y="414"/>
      <point x="1033" y="414" type="curve" smooth="yes"/>
      <point x="976" y="414" type="line"/>
      <point x="963" y="414" type="line"/>
      <point x="817" y="414" type="line" smooth="yes"/>
      <point x="694" y="414"/>
      <point x="643" y="359"/>
      <point x="643" y="199" type="curve" smooth="yes"/>
      <point x="643" y="-107" type="line" smooth="yes"/>
      <point x="643" y="-256"/>
      <point x="700" y="-328"/>
      <point x="816" y="-328" type="curve" smooth="yes"/>
      <point x="933" y="-328"/>
      <point x="989" y="-256"/>
      <point x="989" y="-107" type="curve" smooth="yes"/>
      <point x="989" y="399" type="line"/>
      <point x="989" y="407" type="line"/>
      <point x="989" y="729" type="line"/>
    </contour>
    <component base="KaComponent_Nonexporting" xOffset="33"/>
    <component base="KaBeak_Nonexporting" xOffset="532"/>
  </outline>
</glyph>
<glyph name="DebitSign.tm" format="2">
  <advance width="1017"/>
  <unicode hex="0BF6"/>
  <note>
DebitSign.tm
</note>
  <guideline x="475" y="-315" angle="90"/>
  <guideline x="658" y="-315" angle="90"/>
  <anchor x="363" y="1236" name="top"/>
  <outline>
    <contour>
      <point x="885" y="-217" type="line"/>
      <point x="40" y="-217" type="line"/>
      <point x="46" y="-248" type="line"/>
      <point x="885" y="-248" type="line"/>
    </contour>
    <contour>
      <point x="850" y="1156" type="line"/>
      <point x="850" y="-232" type="line"/>
      <point x="885" y="-232" type="line"/>
      <point x="885" y="1156" type="line"/>
    </contour>
    <contour>
      <point x="559" y="107" type="line"/>
      <point x="559" y="-232" type="line"/>
      <point x="594" y="-232" type="line"/>
      <point x="594" y="107" type="line"/>
    </contour>
    <component base="Pa_dummy.tm"/>
  </outline>
</glyph>
<glyph name="CreditSign.tm" format="2">
  <advance width="1495"/>
  <unicode hex="0BF7"/>
  <note>
CreditSign.tm
</note>
  <outline>
    <contour>
      <point x="1163" y="826" type="curve" smooth="yes"/>
      <point x="1047" y="826"/>
      <point x="994" y="751"/>
      <point x="994" y="609" type="curve" smooth="yes"/>
      <point x="994" y="580" type="line"/>
      <point x="992" y="580" type="line"/>
      <point x="983" y="684"/>
      <point x="939" y="738"/>
      <point x="806" y="738" type="curve" smooth="yes"/>
      <point x="709" y="738" type="line"/>
      <point x="709" y="707" type="line"/>
      <point x="804" y="707" type="line"/>
      <point x="940" y="707"/>
      <point x="981" y="642"/>
      <point x="981" y="502" type="curve" smooth="yes"/>
      <point x="981" y="0" type="line"/>
      <point x="1016" y="0" type="line"/>
      <point x="1016" y="591" type="line" smooth="yes"/>
      <point x="1016" y="730"/>
      <point x="1067" y="795"/>
      <point x="1158" y="795" type="curve" smooth="yes"/>
      <point x="1250" y="795"/>
      <point x="1296" y="730"/>
      <point x="1296" y="609" type="curve" smooth="yes"/>
      <point x="1296" y="333" type="line" smooth="yes"/>
      <point x="1296" y="175"/>
      <point x="1272" y="99"/>
      <point x="1216" y="6" type="curve"/>
      <point x="1216" y="0" type="line"/>
      <point x="1507" y="0" type="line"/>
      <point x="1511" y="31" type="line"/>
      <point x="1253" y="31" type="line"/>
      <point x="1257" y="11" type="line"/>
      <point x="1310" y="98"/>
      <point x="1330" y="175"/>
      <point x="1330" y="331" type="curve" smooth="yes"/>
      <point x="1330" y="611" type="line" smooth="yes"/>
      <point x="1330" y="753"/>
      <point x="1272" y="826"/>
    </contour>
    <component base="VowelE.tm"/>
  </outline>
</glyph>
<glyph name="AsAboveSign.tm" format="2">
  <advance width="2007"/>
  <unicode hex="0BF8"/>
  <note>
AsAboveSign.tm
</note>
  <outline>
    <contour>
      <point x="440" y="1378" type="curve" smooth="yes"/>
      <point x="222" y="1378"/>
      <point x="122" y="1242"/>
      <point x="122" y="944" type="curve" smooth="yes"/>
      <point x="122" y="219" type="line" smooth="yes"/>
      <point x="122" y="61"/>
      <point x="180" y="-18"/>
      <point x="300" y="-18" type="curve" smooth="yes"/>
      <point x="420" y="-18"/>
      <point x="477" y="61"/>
      <point x="477" y="219" type="curve" smooth="yes"/>
      <point x="477" y="585" type="line" smooth="yes"/>
      <point x="477" y="729"/>
      <point x="419" y="802"/>
      <point x="313" y="802" type="curve" smooth="yes"/>
      <point x="234" y="802"/>
      <point x="181" y="753"/>
      <point x="157" y="687" type="curve"/>
      <point x="152" y="687" type="line"/>
      <point x="151" y="613" type="line"/>
      <point x="175" y="711"/>
      <point x="230" y="768"/>
      <point x="309" y="768" type="curve" smooth="yes"/>
      <point x="397" y="768"/>
      <point x="442" y="704"/>
      <point x="442" y="583" type="curve" smooth="yes"/>
      <point x="442" y="221" type="line" smooth="yes"/>
      <point x="442" y="79"/>
      <point x="396" y="15"/>
      <point x="300" y="15" type="curve" smooth="yes"/>
      <point x="204" y="15"/>
      <point x="157" y="79"/>
      <point x="157" y="221" type="curve"/>
      <point x="157" y="687" type="line"/>
      <point x="157" y="687" type="line"/>
      <point x="157" y="777"/>
      <point x="157" y="855"/>
      <point x="157" y="940" type="curve" smooth="yes"/>
      <point x="157" y="1222"/>
      <point x="242" y="1345"/>
      <point x="440" y="1345" type="curve" smooth="yes"/>
      <point x="633" y="1345"/>
      <point x="694" y="1211"/>
      <point x="701" y="962" type="curve"/>
      <point x="729" y="1014" type="line"/>
      <point x="718" y="1251"/>
      <point x="632" y="1378"/>
    </contour>
    <contour>
      <point x="663" y="765" type="curve" smooth="yes"/>
      <point x="663" y="219" type="line" smooth="yes"/>
      <point x="663" y="61"/>
      <point x="722" y="-18"/>
      <point x="842" y="-18" type="curve" smooth="yes"/>
      <point x="961" y="-18"/>
      <point x="1019" y="61"/>
      <point x="1019" y="219" type="curve" smooth="yes"/>
      <point x="1019" y="585" type="line" smooth="yes"/>
      <point x="1019" y="729"/>
      <point x="961" y="802"/>
      <point x="855" y="802" type="curve" smooth="yes"/>
      <point x="775" y="802"/>
      <point x="722" y="753"/>
      <point x="698" y="687" type="curve"/>
      <point x="694" y="687" type="line"/>
      <point x="693" y="613" type="line"/>
      <point x="717" y="711"/>
      <point x="772" y="768"/>
      <point x="851" y="768" type="curve" smooth="yes"/>
      <point x="939" y="768"/>
      <point x="984" y="704"/>
      <point x="984" y="583" type="curve" smooth="yes"/>
      <point x="984" y="221" type="line" smooth="yes"/>
      <point x="984" y="79"/>
      <point x="938" y="15"/>
      <point x="842" y="15" type="curve" smooth="yes"/>
      <point x="746" y="15"/>
      <point x="698" y="79"/>
      <point x="698" y="221" type="curve"/>
      <point x="698" y="687" type="line"/>
      <point x="698" y="687" type="line"/>
      <point x="698" y="715"/>
      <point x="698" y="739"/>
      <point x="698" y="765" type="curve" smooth="yes"/>
      <point x="698" y="1008"/>
      <point x="789" y="1141"/>
      <point x="980" y="1141" type="curve" smooth="yes"/>
      <point x="1160" y="1141"/>
      <point x="1239" y="1016"/>
      <point x="1239" y="784" type="curve" smooth="yes"/>
      <point x="1239" y="434" type="line" smooth="yes"/>
      <point x="1239" y="219"/>
      <point x="1210" y="112"/>
      <point x="1147" y="6" type="curve"/>
      <point x="1147" y="0" type="line"/>
      <point x="1394" y="0" type="line"/>
      <point x="1394" y="32" type="line"/>
      <point x="1184" y="32" type="line"/>
      <point x="1188" y="11" type="line"/>
      <point x="1245" y="112"/>
      <point x="1274" y="212"/>
      <point x="1274" y="434" type="curve" smooth="yes"/>
      <point x="1274" y="784" type="line" smooth="yes"/>
      <point x="1274" y="1038"/>
      <point x="1179" y="1174"/>
      <point x="980" y="1174" type="curve" smooth="yes"/>
      <point x="857" y="1174"/>
      <point x="765" y="1122"/>
      <point x="719" y="1027" type="curve"/>
      <point x="709" y="1016" type="line"/>
      <point x="678" y="951"/>
      <point x="663" y="867"/>
    </contour>
    <component base="Ssa_Above_NonExporting" xOffset="1170"/>
    <component base="Ssa_Below_Simple_NonExporting" xOffset="1531"/>
  </outline>
</glyph>
<glyph name="quotedblleft" format="2">
  <advance width="454"/>
  <unicode hex="201C"/>
  <outline>
    <contour>
      <point x="91" y="904" type="curve"/>
      <point x="128" y="904" type="line"/>
      <point x="123" y="943"/>
      <point x="119" y="979"/>
      <point x="119" y="1014" type="curve" smooth="yes"/>
      <point x="119" y="1138"/>
      <point x="148" y="1235"/>
      <point x="198" y="1318" type="curve"/>
      <point x="174" y="1336" type="line"/>
      <point x="108" y="1243"/>
      <point x="82" y="1140"/>
      <point x="82" y="1013" type="curve" smooth="yes"/>
      <point x="82" y="967"/>
      <point x="88" y="928"/>
    </contour>
    <contour>
      <point x="291" y="904" type="curve"/>
      <point x="328" y="904" type="line"/>
      <point x="323" y="943"/>
      <point x="319" y="979"/>
      <point x="319" y="1014" type="curve" smooth="yes"/>
      <point x="319" y="1138"/>
      <point x="348" y="1235"/>
      <point x="398" y="1318" type="curve"/>
      <point x="374" y="1336" type="line"/>
      <point x="308" y="1243"/>
      <point x="282" y="1140"/>
      <point x="282" y="1013" type="curve" smooth="yes"/>
      <point x="282" y="967"/>
      <point x="288" y="928"/>
    </contour>
  </outline>
</glyph>
<glyph name="CaMatraI.tm" format="2">
  <advance width="955"/>
  <note>
CaMatraI.tm
</note>
  <outline>
    <contour>
      <point x="482" y="706" type="line"/>
      <point x="706" y="706" type="line"/>
      <point x="703" y="738" type="line"/>
      <point x="482" y="738" type="line"/>
    </contour>
    <contour>
      <point x="627" y="1616" type="curve" smooth="yes"/>
      <point x="484" y="1616"/>
      <point x="424" y="1532"/>
      <point x="424" y="1349" type="curve" smooth="yes"/>
      <point x="424" y="1315" type="line" smooth="yes"/>
      <point x="424" y="1244"/>
      <point x="432" y="1196"/>
      <point x="459" y="1154" type="curve"/>
      <point x="496" y="1154" type="line"/>
      <point x="466" y="1199"/>
      <point x="459" y="1239"/>
      <point x="459" y="1315" type="curve" smooth="yes"/>
      <point x="459" y="1344" type="line" smooth="yes"/>
      <point x="459" y="1509"/>
      <point x="503" y="1583"/>
      <point x="627" y="1583" type="curve" smooth="yes"/>
      <point x="747" y="1583"/>
      <point x="788" y="1513"/>
      <point x="788" y="1355" type="curve" smooth="yes"/>
      <point x="788" y="0" type="line"/>
      <point x="823" y="0" type="line"/>
      <point x="823" y="1360" type="line" smooth="yes"/>
      <point x="823" y="1536"/>
      <point x="766" y="1616"/>
    </contour>
    <component base="KaComponent_Nonexporting" xOffset="33"/>
    <component base="KaBeak_Nonexporting" xOffset="487"/>
  </outline>
</glyph>
<glyph name="CaMatraUu_Simple.tm" format="2">
  <advance width="1451"/>
  <note>
CaMatraUu.tm
</note>
  <outline>
    <contour>
      <point x="786" y="706" type="line"/>
      <point x="1041" y="706" type="line"/>
      <point x="1050" y="706" type="line"/>
      <point x="1284" y="706" type="line"/>
      <point x="1281" y="738" type="line"/>
      <point x="786" y="738" type="line"/>
    </contour>
    <contour>
      <point x="1026" y="718" type="line"/>
      <point x="1026" y="0" type="line"/>
      <point x="1061" y="0" type="line"/>
      <point x="1061" y="718" type="line"/>
    </contour>
    <contour>
      <point x="128" y="1156" type="line"/>
      <point x="128" y="919"/>
      <point x="128" y="680"/>
      <point x="128" y="266" type="curve" smooth="yes"/>
      <point x="128" y="-211"/>
      <point x="364" y="-399"/>
      <point x="777" y="-399" type="curve" smooth="yes"/>
      <point x="777" y="-399" type="line" smooth="yes"/>
      <point x="1175" y="-399"/>
      <point x="1365" y="-224"/>
      <point x="1365" y="237" type="curve" smooth="yes"/>
      <point x="1365" y="285" type="line" smooth="yes"/>
      <point x="1365" y="446"/>
      <point x="1317" y="528"/>
      <point x="1208" y="528" type="curve" smooth="yes"/>
      <point x="1128" y="528"/>
      <point x="1080" y="478"/>
      <point x="1061" y="418" type="curve"/>
      <point x="1050" y="418" type="line"/>
      <point x="1050" y="318" type="line"/>
      <point x="1056" y="318" type="line"/>
      <point x="1070" y="425"/>
      <point x="1116" y="495"/>
      <point x="1205" y="495" type="curve" smooth="yes"/>
      <point x="1302" y="495"/>
      <point x="1330" y="420"/>
      <point x="1330" y="280" type="curve" smooth="yes"/>
      <point x="1330" y="241" type="line" smooth="yes"/>
      <point x="1330" y="-209"/>
      <point x="1149" y="-365"/>
      <point x="777" y="-365" type="curve" smooth="yes"/>
      <point x="777" y="-365" type="line" smooth="yes"/>
      <point x="384" y="-365"/>
      <point x="163" y="-193"/>
      <point x="163" y="270" type="curve" smooth="yes"/>
      <point x="163" y="675"/>
      <point x="163" y="910"/>
      <point x="163" y="1156" type="curve"/>
    </contour>
    <component base="KaComponent_Nonexporting" xOffset="332"/>
    <component base="KaBeak_Nonexporting" xOffset="830"/>
  </outline>
</glyph>
<glyph name="HaMatraI.tm" format="2">
  <advance width="2129"/>
  <note>
HaMatraI.tm
</note>
  <anchor x="831" y="1236" name="top"/>
  <outline>
    <contour>
      <point x="1764" y="1616" type="curve" smooth="yes"/>
      <point x="1600" y="1616"/>
      <point x="1524" y="1516"/>
      <point x="1524" y="1324" type="curve" smooth="yes"/>
      <point x="1524" y="1301" type="line" smooth="yes"/>
      <point x="1524" y="1239"/>
      <point x="1531" y="1197"/>
      <point x="1556" y="1160" type="curve"/>
      <point x="1592" y="1160" type="line"/>
      <point x="1565" y="1199"/>
      <point x="1559" y="1234"/>
      <point x="1559" y="1301" type="curve" smooth="yes"/>
      <point x="1559" y="1319" type="line" smooth="yes"/>
      <point x="1559" y="1493"/>
      <point x="1615" y="1583"/>
      <point x="1764" y="1583" type="curve" smooth="yes"/>
      <point x="1910" y="1583"/>
      <point x="1962" y="1493"/>
      <point x="1962" y="1295" type="curve" smooth="yes"/>
      <point x="1962" y="0" type="line"/>
      <point x="1997" y="0" type="line"/>
      <point x="1997" y="1301" type="line" smooth="yes"/>
      <point x="1997" y="1516"/>
      <point x="1926" y="1616"/>
    </contour>
    <component base="Ha.tm"/>
  </outline>
</glyph>
<glyph name="HaMatraI_Simple.tm" format="2">
  <advance width="2130"/>
  <note>
HaMatraI.tm
</note>
  <anchor x="831" y="1236" name="top"/>
  <outline>
    <contour>
      <point x="1765" y="1616" type="curve" smooth="yes"/>
      <point x="1601" y="1616"/>
      <point x="1525" y="1516"/>
      <point x="1525" y="1324" type="curve" smooth="yes"/>
      <point x="1525" y="1301" type="line" smooth="yes"/>
      <point x="1525" y="1239"/>
      <point x="1532" y="1197"/>
      <point x="1557" y="1160" type="curve"/>
      <point x="1593" y="1160" type="line"/>
      <point x="1566" y="1199"/>
      <point x="1560" y="1234"/>
      <point x="1560" y="1301" type="curve" smooth="yes"/>
      <point x="1560" y="1319" type="line" smooth="yes"/>
      <point x="1560" y="1493"/>
      <point x="1616" y="1583"/>
      <point x="1765" y="1583" type="curve" smooth="yes"/>
      <point x="1911" y="1583"/>
      <point x="1963" y="1493"/>
      <point x="1963" y="1295" type="curve" smooth="yes"/>
      <point x="1963" y="0" type="line"/>
      <point x="1998" y="0" type="line"/>
      <point x="1998" y="1301" type="line" smooth="yes"/>
      <point x="1998" y="1516"/>
      <point x="1927" y="1616"/>
    </contour>
    <component base="Ha_Simple.tm"/>
  </outline>
</glyph>
<glyph name="HaMatraI_Simple_Fly.tm" format="2">
  <advance width="1826"/>
  <note>
HaMatraI.tm
</note>
  <anchor x="1341" y="1236" name="top"/>
  <outline>
    <contour>
      <point x="761" y="32" type="line"/>
      <point x="761" y="0" type="line"/>
      <point x="984" y="0" type="line"/>
      <point x="984" y="32" type="line"/>
    </contour>
    <contour>
      <point x="1003" y="-216" type="line"/>
      <point x="74" y="-216" type="line"/>
      <point x="80" y="-248" type="line"/>
      <point x="1003" y="-248" type="line"/>
    </contour>
    <component base="Va_NonExporting" xOffset="10"/>
    <component base="RraMatraI_Simple_Fly.tm" xOffset="846"/>
  </outline>
</glyph>
<glyph name="HaMatraIi.tm" format="2">
  <advance width="1827"/>
  <note>
HaMatraIi.tm
</note>
  <anchor x="1341" y="1236" name="top"/>
  <outline>
    <contour>
      <point x="761" y="32" type="line"/>
      <point x="761" y="0" type="line"/>
      <point x="994" y="0" type="line"/>
      <point x="994" y="32" type="line"/>
    </contour>
    <contour>
      <point x="993" y="-216" type="line"/>
      <point x="74" y="-216" type="line"/>
      <point x="80" y="-248" type="line"/>
      <point x="993" y="-248" type="line"/>
    </contour>
    <component base="Va_NonExporting" xOffset="10"/>
    <component base="RraMatraIi.tm" xOffset="846"/>
  </outline>
</glyph>
<glyph name="HaMatraIi_Simple_SimpleIi.tm" format="2">
  <advance width="1826"/>
  <note>
HaMatraIi.tm
</note>
  <anchor x="831" y="1236" name="top"/>
  <outline>
    <contour>
      <point x="1708" y="1726" type="curve" smooth="yes"/>
      <point x="1561" y="1726"/>
      <point x="1495" y="1630"/>
      <point x="1495" y="1454" type="curve" smooth="yes"/>
      <point x="1495" y="1335" type="line" smooth="yes"/>
      <point x="1495" y="1251"/>
      <point x="1505" y="1197"/>
      <point x="1542" y="1164" type="curve"/>
      <point x="1581" y="1164" type="line"/>
      <point x="1538" y="1200"/>
      <point x="1529" y="1244"/>
      <point x="1529" y="1335" type="curve" smooth="yes"/>
      <point x="1529" y="1450" type="line" smooth="yes"/>
      <point x="1529" y="1602"/>
      <point x="1576" y="1690"/>
      <point x="1699" y="1695" type="curve"/>
      <point x="1703" y="1695" type="line"/>
      <point x="1707" y="1695"/>
      <point x="1707" y="1695"/>
      <point x="1708" y="1695" type="curve" smooth="yes"/>
      <point x="1838" y="1695"/>
      <point x="1879" y="1619"/>
      <point x="1879" y="1472" type="curve" smooth="yes"/>
      <point x="1879" y="1426" type="line" smooth="yes"/>
      <point x="1879" y="1335"/>
      <point x="1846" y="1293"/>
      <point x="1782" y="1293" type="curve" smooth="yes"/>
      <point x="1718" y="1293"/>
      <point x="1684" y="1335"/>
      <point x="1684" y="1426" type="curve" smooth="yes"/>
      <point x="1684" y="1516" type="line" smooth="yes"/>
      <point x="1684" y="1610"/>
      <point x="1700" y="1665"/>
      <point x="1745" y="1702" type="curve"/>
      <point x="1699" y="1702" type="line"/>
      <point x="1699" y="1695" type="line"/>
      <point x="1668" y="1661"/>
      <point x="1650" y="1609"/>
      <point x="1650" y="1514" type="curve" smooth="yes"/>
      <point x="1650" y="1424" type="line" smooth="yes"/>
      <point x="1650" y="1316"/>
      <point x="1696" y="1260"/>
      <point x="1782" y="1260" type="curve" smooth="yes"/>
      <point x="1869" y="1260"/>
      <point x="1913" y="1314"/>
      <point x="1913" y="1422" type="curve" smooth="yes"/>
      <point x="1913" y="1476" type="line" smooth="yes"/>
      <point x="1913" y="1638"/>
      <point x="1859" y="1726"/>
    </contour>
    <component base="Ha_Simple.tm"/>
  </outline>
</glyph>
<glyph name="HaMatraU.tm" format="2">
  <advance width="2306"/>
  <note>
HaMatraU.tm
</note>
  <guideline x="195" y="907" angle="270"/>
  <outline>
    <contour>
      <point x="761" y="32" type="line"/>
      <point x="761" y="0" type="line"/>
      <point x="994" y="0" type="line"/>
      <point x="994" y="32" type="line"/>
    </contour>
    <contour>
      <point x="1157" y="1174" type="curve" smooth="yes"/>
      <point x="1033" y="1174"/>
      <point x="972" y="1096"/>
      <point x="972" y="943" type="curve" smooth="yes"/>
      <point x="972" y="0" type="line"/>
      <point x="1007" y="0" type="line"/>
      <point x="1007" y="939" type="line" smooth="yes"/>
      <point x="1007" y="1075"/>
      <point x="1055" y="1140"/>
      <point x="1157" y="1140" type="curve" smooth="yes"/>
      <point x="1270" y="1140"/>
      <point x="1311" y="1068"/>
      <point x="1311" y="939" type="curve"/>
      <point x="1321" y="0" type="line"/>
      <point x="1356" y="0" type="line"/>
      <point x="1346" y="922" type="line" smooth="yes"/>
      <point x="1344" y="1070"/>
      <point x="1402" y="1140"/>
      <point x="1515" y="1140" type="curve" smooth="yes"/>
      <point x="1620" y="1140"/>
      <point x="1672" y="1070"/>
      <point x="1672" y="924" type="curve" smooth="yes"/>
      <point x="1672" y="811" type="line" smooth="yes"/>
      <point x="1672" y="677"/>
      <point x="1633" y="608"/>
      <point x="1515" y="604" type="curve" smooth="yes"/>
      <point x="1449" y="602" type="line"/>
      <point x="1449" y="574" type="line"/>
      <point x="1512" y="572" type="line" smooth="yes"/>
      <point x="1635" y="568"/>
      <point x="1683" y="512"/>
      <point x="1683" y="329" type="curve" smooth="yes"/>
      <point x="1683" y="195" type="line" smooth="yes"/>
      <point x="1683" y="-126"/>
      <point x="1596" y="-216"/>
      <point x="1308" y="-216" type="curve" smooth="yes"/>
      <point x="74" y="-216" type="line"/>
      <point x="80" y="-248" type="line"/>
      <point x="1309" y="-248" type="line" smooth="yes"/>
      <point x="1618" y="-248"/>
      <point x="1718" y="-145"/>
      <point x="1718" y="191" type="curve" smooth="yes"/>
      <point x="1718" y="331" type="line" smooth="yes"/>
      <point x="1718" y="515"/>
      <point x="1668" y="576"/>
      <point x="1574" y="587" type="curve"/>
      <point x="1574" y="589" type="line"/>
      <point x="1672" y="604"/>
      <point x="1707" y="681"/>
      <point x="1707" y="810" type="curve" smooth="yes"/>
      <point x="1707" y="928" type="line" smooth="yes"/>
      <point x="1707" y="1024"/>
      <point x="1683" y="1096"/>
      <point x="1636" y="1133" type="curve"/>
      <point x="1636" y="1137" type="line"/>
      <point x="1607" y="1163"/>
      <point x="1566" y="1174"/>
      <point x="1516" y="1174" type="curve" smooth="yes"/>
      <point x="1398" y="1174"/>
      <point x="1339" y="1104"/>
      <point x="1332" y="990" type="curve"/>
      <point x="1330" y="990" type="line"/>
      <point x="1322" y="1104"/>
      <point x="1276" y="1174"/>
    </contour>
    <contour>
      <point x="1802" y="1156" type="line"/>
      <point x="1593" y="1156" type="line"/>
      <point x="1611" y="1124" type="line"/>
      <point x="1802" y="1124" type="line"/>
    </contour>
    <component base="Va_NonExporting" xOffset="10"/>
    <component base="MatraUDflt_dummy.tm" xOffset="1644"/>
  </outline>
</glyph>
<glyph name="Ha_Simple.tm" format="2">
  <advance width="1826"/>
  <note>
Ha.tm
</note>
  <guideline x="195" y="301" angle="90"/>
  <anchor x="831" y="1236" name="top"/>
  <outline>
    <contour>
      <point x="761" y="32" type="line"/>
      <point x="761" y="0" type="line"/>
      <point x="994" y="0" type="line"/>
      <point x="994" y="32" type="line"/>
    </contour>
    <contour>
      <point x="1003" y="-216" type="line"/>
      <point x="249" y="-216" type="line"/>
      <point x="255" y="-248" type="line"/>
      <point x="1003" y="-248" type="line"/>
    </contour>
    <component base="Va_NonExporting" xOffset="10"/>
    <component base="Rra.tm" xOffset="846"/>
    <component base="Tail_NonExporting" xOffset="38"/>
  </outline>
</glyph>
<glyph name="JaMatraI.tm" format="2">
  <advance width="1379"/>
  <note>
JaMatraI.tm
</note>
  <anchor x="603" y="1236" name="top"/>
  <outline>
    <contour>
      <point x="1017" y="1616" type="curve" smooth="yes"/>
      <point x="858" y="1616"/>
      <point x="780" y="1517"/>
      <point x="780" y="1334" type="curve" smooth="yes"/>
      <point x="780" y="1305" type="line" smooth="yes"/>
      <point x="780" y="1243"/>
      <point x="787" y="1201"/>
      <point x="812" y="1164" type="curve"/>
      <point x="848" y="1164" type="line"/>
      <point x="821" y="1203"/>
      <point x="815" y="1238"/>
      <point x="815" y="1305" type="curve" smooth="yes"/>
      <point x="815" y="1329" type="line" smooth="yes"/>
      <point x="815" y="1494"/>
      <point x="873" y="1583"/>
      <point x="1017" y="1583" type="curve" smooth="yes"/>
      <point x="1158" y="1583"/>
      <point x="1212" y="1497"/>
      <point x="1212" y="1315" type="curve" smooth="yes"/>
      <point x="1212" y="0" type="line"/>
      <point x="1247" y="0" type="line"/>
      <point x="1247" y="1321" type="line" smooth="yes"/>
      <point x="1247" y="1520"/>
      <point x="1174" y="1616"/>
    </contour>
    <component base="Ja_dummy.tm"/>
  </outline>
</glyph>
<glyph name="KaMatraI.tm" format="2">
  <advance width="923"/>
  <note>
KaMatraI.tm
</note>
  <outline>
    <contour>
      <point x="493" y="706" type="line"/>
      <point x="599" y="706" type="line" smooth="yes"/>
      <point x="711" y="706"/>
      <point x="757" y="663"/>
      <point x="757" y="517" type="curve" smooth="yes"/>
      <point x="757" y="215" type="line" smooth="yes"/>
      <point x="757" y="78"/>
      <point x="711" y="16"/>
      <point x="618" y="16" type="curve" smooth="yes"/>
      <point x="548" y="16"/>
      <point x="492" y="38"/>
      <point x="458" y="70" type="curve"/>
      <point x="456" y="64" type="line"/>
      <point x="464" y="26" type="line"/>
      <point x="494" y="0"/>
      <point x="549" y="-18"/>
      <point x="618" y="-18" type="curve" smooth="yes"/>
      <point x="735" y="-18"/>
      <point x="792" y="57"/>
      <point x="792" y="213" type="curve" smooth="yes"/>
      <point x="792" y="523" type="line" smooth="yes"/>
      <point x="792" y="686"/>
      <point x="731" y="738"/>
      <point x="602" y="738" type="curve" smooth="yes"/>
      <point x="493" y="738" type="line"/>
    </contour>
    <contour>
      <point x="626" y="1616" type="curve" smooth="yes"/>
      <point x="485" y="1616"/>
      <point x="424" y="1535"/>
      <point x="424" y="1354" type="curve"/>
      <point x="424" y="1315" type="line" smooth="yes"/>
      <point x="424" y="1246"/>
      <point x="432" y="1196"/>
      <point x="459" y="1154" type="curve"/>
      <point x="496" y="1154" type="line"/>
      <point x="466" y="1199"/>
      <point x="459" y="1239"/>
      <point x="459" y="1315" type="curve" smooth="yes"/>
      <point x="459" y="1349" type="line"/>
      <point x="459" y="1512"/>
      <point x="502" y="1583"/>
      <point x="626" y="1583" type="curve" smooth="yes"/>
      <point x="744" y="1583"/>
      <point x="786" y="1512"/>
      <point x="786" y="1349" type="curve" smooth="yes"/>
      <point x="786" y="764" type="line"/>
      <point x="821" y="764" type="line"/>
      <point x="821" y="1354" type="line" smooth="yes"/>
      <point x="821" y="1535"/>
      <point x="763" y="1616"/>
    </contour>
    <component base="KaComponent_Nonexporting" xOffset="33"/>
    <component base="KaBeak_Nonexporting" xOffset="509"/>
  </outline>
</glyph>
<glyph name="KaMatraU_Simple.tm" format="2">
  <advance width="1187"/>
  <note>
KaMatraU.tm
</note>
  <outline>
    <contour>
      <point x="784" y="707" type="line"/>
      <point x="840" y="707" type="line" smooth="yes"/>
      <point x="1005" y="707"/>
      <point x="1060" y="646"/>
      <point x="1060" y="445" type="curve" smooth="yes"/>
      <point x="1060" y="242" type="line" smooth="yes"/>
      <point x="1060" y="-120"/>
      <point x="941" y="-286"/>
      <point x="638" y="-286" type="curve" smooth="yes"/>
      <point x="638" y="-286" type="line" smooth="yes"/>
      <point x="310" y="-286"/>
      <point x="163" y="-98"/>
      <point x="163" y="264" type="curve" smooth="yes"/>
      <point x="163" y="710"/>
      <point x="163" y="928"/>
      <point x="163" y="1156" type="curve"/>
      <point x="128" y="1156" type="line"/>
      <point x="128" y="936"/>
      <point x="128" y="716"/>
      <point x="128" y="264" type="curve" smooth="yes"/>
      <point x="128" y="-118"/>
      <point x="286" y="-320"/>
      <point x="638" y="-320" type="curve" smooth="yes"/>
      <point x="638" y="-320" type="line" smooth="yes"/>
      <point x="966" y="-320"/>
      <point x="1095" y="-136"/>
      <point x="1095" y="242" type="curve" smooth="yes"/>
      <point x="1095" y="445" type="line" smooth="yes"/>
      <point x="1095" y="662"/>
      <point x="1025" y="738"/>
      <point x="841" y="738" type="curve" smooth="yes"/>
      <point x="784" y="738" type="line"/>
    </contour>
    <component base="KaComponent_Nonexporting" xOffset="332"/>
    <component base="KaBeak_Nonexporting" xOffset="816"/>
  </outline>
</glyph>
<glyph name="KssaMatraI_Simple.tm" format="2">
  <advance width="2102"/>
  <note>
KshaMatraI.tm
</note>
  <anchor x="1041" y="1236" name="top"/>
  <outline>
    <contour>
      <point x="1735" y="1616" type="curve" smooth="yes"/>
      <point x="1569" y="1616"/>
      <point x="1492" y="1516"/>
      <point x="1492" y="1324" type="curve" smooth="yes"/>
      <point x="1492" y="1303" type="line" smooth="yes"/>
      <point x="1492" y="1241"/>
      <point x="1501" y="1199"/>
      <point x="1528" y="1162" type="curve"/>
      <point x="1564" y="1162" type="line"/>
      <point x="1535" y="1201"/>
      <point x="1527" y="1236"/>
      <point x="1527" y="1303" type="curve" smooth="yes"/>
      <point x="1527" y="1319" type="line" smooth="yes"/>
      <point x="1527" y="1493"/>
      <point x="1584" y="1583"/>
      <point x="1735" y="1583" type="curve" smooth="yes"/>
      <point x="1883" y="1583"/>
      <point x="1935" y="1493"/>
      <point x="1935" y="1295" type="curve" smooth="yes"/>
      <point x="1935" y="0" type="line"/>
      <point x="1970" y="0" type="line"/>
      <point x="1970" y="1301" type="line" smooth="yes"/>
      <point x="1970" y="1516"/>
      <point x="1898" y="1616"/>
    </contour>
    <component base="Kssa_Simple.tm"/>
  </outline>
</glyph>
<glyph name="KssaMatraIi.tm" format="2">
  <advance width="1820"/>
  <note>
KshaMatraIi.tm
</note>
  <anchor x="1041" y="1236" name="top"/>
  <outline>
    <contour>
      <point x="1624" y="1726" type="curve" smooth="yes"/>
      <point x="1533" y="1726"/>
      <point x="1483" y="1665"/>
      <point x="1483" y="1561" type="curve" smooth="yes"/>
      <point x="1483" y="1319" type="line" smooth="yes"/>
      <point x="1483" y="1236"/>
      <point x="1494" y="1193"/>
      <point x="1531" y="1161" type="curve"/>
      <point x="1570" y="1161" type="line"/>
      <point x="1527" y="1196"/>
      <point x="1517" y="1232"/>
      <point x="1517" y="1319" type="curve" smooth="yes"/>
      <point x="1517" y="1407" type="line"/>
      <point x="1517" y="1559" type="line" smooth="yes"/>
      <point x="1517" y="1647"/>
      <point x="1554" y="1693"/>
      <point x="1624" y="1693" type="curve" smooth="yes"/>
      <point x="1696" y="1693"/>
      <point x="1722" y="1647"/>
      <point x="1722" y="1563" type="curve" smooth="yes"/>
      <point x="1722" y="1458" type="line" smooth="yes"/>
      <point x="1722" y="1381"/>
      <point x="1695" y="1337"/>
      <point x="1629" y="1337" type="curve" smooth="yes"/>
      <point x="1572" y="1337"/>
      <point x="1530" y="1372"/>
      <point x="1513" y="1421" type="curve"/>
      <point x="1512" y="1421" type="line"/>
      <point x="1512" y="1388" type="line"/>
      <point x="1515" y="1388" type="line"/>
      <point x="1534" y="1351" type="line"/>
      <point x="1548" y="1328"/>
      <point x="1585" y="1304"/>
      <point x="1633" y="1304" type="curve" smooth="yes"/>
      <point x="1723" y="1304"/>
      <point x="1756" y="1365"/>
      <point x="1756" y="1456" type="curve" smooth="yes"/>
      <point x="1756" y="1565" type="line" smooth="yes"/>
      <point x="1756" y="1665"/>
      <point x="1720" y="1726"/>
    </contour>
    <component base="Kssa.tm"/>
  </outline>
</glyph>
<glyph name="KssaMatraUu_Simple_SimpleUu.tm" format="2">
  <advance width="2588"/>
  <note>
KshaMatraUu.tm
</note>
  <outline>
    <contour>
      <point x="487" y="706" type="line"/>
      <point x="559" y="706" type="line" smooth="yes"/>
      <point x="695" y="706"/>
      <point x="736" y="641"/>
      <point x="736" y="502" type="curve" smooth="yes"/>
      <point x="736" y="0" type="line"/>
      <point x="771" y="0" type="line"/>
      <point x="771" y="591" type="line" smooth="yes"/>
      <point x="771" y="729"/>
      <point x="822" y="793"/>
      <point x="913" y="793" type="curve" smooth="yes"/>
      <point x="1004" y="793"/>
      <point x="1050" y="729"/>
      <point x="1050" y="609" type="curve" smooth="yes"/>
      <point x="1050" y="333" type="line" smooth="yes"/>
      <point x="1050" y="175"/>
      <point x="1026" y="99"/>
      <point x="971" y="6" type="curve"/>
      <point x="971" y="0" type="line"/>
      <point x="1329" y="0" type="line"/>
      <point x="1329" y="32" type="line"/>
      <point x="1008" y="32" type="line"/>
      <point x="1012" y="11" type="line"/>
      <point x="1065" y="98"/>
      <point x="1085" y="175"/>
      <point x="1085" y="331" type="curve" smooth="yes"/>
      <point x="1085" y="611" type="line" smooth="yes"/>
      <point x="1085" y="754"/>
      <point x="1027" y="827"/>
      <point x="918" y="827" type="curve" smooth="yes"/>
      <point x="802" y="827"/>
      <point x="749" y="752"/>
      <point x="749" y="609" type="curve" smooth="yes"/>
      <point x="749" y="580" type="line"/>
      <point x="747" y="580" type="line"/>
      <point x="738" y="684"/>
      <point x="694" y="738"/>
      <point x="561" y="738" type="curve" smooth="yes"/>
      <point x="487" y="738" type="line"/>
    </contour>
    <contour>
      <point x="1070" y="32" type="line"/>
      <point x="1070" y="0" type="line"/>
      <point x="1783" y="0" type="line"/>
      <point x="1789" y="32" type="line"/>
      <point x="1509" y="32" type="line"/>
      <point x="1492" y="23" type="line"/>
      <point x="1474" y="32" type="line"/>
    </contour>
    <contour>
      <point x="1494" y="1174" type="curve" smooth="yes"/>
      <point x="1363" y="1174"/>
      <point x="1301" y="1091"/>
      <point x="1301" y="920" type="curve" smooth="yes"/>
      <point x="1301" y="379" type="line" smooth="yes"/>
      <point x="1301" y="199"/>
      <point x="1336" y="102"/>
      <point x="1472" y="8" type="curve"/>
      <point x="1509" y="14" type="line"/>
      <point x="1359" y="119"/>
      <point x="1336" y="210"/>
      <point x="1336" y="379" type="curve" smooth="yes"/>
      <point x="1336" y="918" type="line" smooth="yes"/>
      <point x="1336" y="1069"/>
      <point x="1385" y="1141"/>
      <point x="1494" y="1141" type="curve" smooth="yes"/>
      <point x="1601" y="1141"/>
      <point x="1650" y="1069"/>
      <point x="1650" y="918" type="curve" smooth="yes"/>
      <point x="1650" y="379" type="line" smooth="yes"/>
      <point x="1650" y="210"/>
      <point x="1624" y="119"/>
      <point x="1475" y="14" type="curve"/>
      <point x="1512" y="8" type="line"/>
      <point x="1648" y="102"/>
      <point x="1685" y="199"/>
      <point x="1685" y="379" type="curve" smooth="yes"/>
      <point x="1685" y="920" type="line" smooth="yes"/>
      <point x="1685" y="1025"/>
      <point x="1661" y="1098"/>
      <point x="1610" y="1135" type="curve"/>
      <point x="1610" y="1139" type="line"/>
      <point x="1582" y="1161"/>
      <point x="1540" y="1174"/>
    </contour>
    <contour>
      <point x="1827" y="1156" type="line"/>
      <point x="1571" y="1156" type="line"/>
      <point x="1589" y="1124" type="line"/>
      <point x="1827" y="1124" type="line"/>
    </contour>
    <component base="MatraUuDflt_Simple.tm" xOffset="1650"/>
    <component base="KaComponent_Nonexporting" xOffset="33"/>
    <component base="KaBeak_Nonexporting" xOffset="532"/>
    <component base="Ssa_Below_NonExporting" xOffset="1347"/>
  </outline>
</glyph>
<glyph name="LaMatraI.tm" format="2">
  <advance width="1485"/>
  <note>
LaMatraI.tm
</note>
  <outline>
    <contour>
      <point x="432" y="1174" type="curve" smooth="yes"/>
      <point x="223" y="1174"/>
      <point x="116" y="1033"/>
      <point x="116" y="766" type="curve" smooth="yes"/>
      <point x="116" y="219" type="line" smooth="yes"/>
      <point x="116" y="61"/>
      <point x="175" y="-18"/>
      <point x="295" y="-18" type="curve" smooth="yes"/>
      <point x="414" y="-18"/>
      <point x="472" y="61"/>
      <point x="472" y="219" type="curve" smooth="yes"/>
      <point x="472" y="585" type="line" smooth="yes"/>
      <point x="472" y="729"/>
      <point x="414" y="802"/>
      <point x="308" y="802" type="curve" smooth="yes"/>
      <point x="228" y="802"/>
      <point x="175" y="753"/>
      <point x="151" y="687" type="curve"/>
      <point x="147" y="687" type="line"/>
      <point x="146" y="613" type="line"/>
      <point x="170" y="711"/>
      <point x="225" y="768"/>
      <point x="304" y="768" type="curve" smooth="yes"/>
      <point x="392" y="768"/>
      <point x="437" y="704"/>
      <point x="437" y="583" type="curve" smooth="yes"/>
      <point x="437" y="221" type="line" smooth="yes"/>
      <point x="437" y="79"/>
      <point x="391" y="15"/>
      <point x="295" y="15" type="curve" smooth="yes"/>
      <point x="199" y="15"/>
      <point x="151" y="79"/>
      <point x="151" y="221" type="curve"/>
      <point x="151" y="687" type="line"/>
      <point x="151" y="687" type="line"/>
      <point x="151" y="715"/>
      <point x="151" y="740"/>
      <point x="151" y="766" type="curve" smooth="yes"/>
      <point x="151" y="1007"/>
      <point x="242" y="1140"/>
      <point x="432" y="1140" type="curve" smooth="yes"/>
      <point x="603" y="1140"/>
      <point x="684" y="1022"/>
      <point x="684" y="809" type="curve" smooth="yes"/>
      <point x="684" y="225" type="line" smooth="yes"/>
      <point x="684" y="62"/>
      <point x="747" y="-18"/>
      <point x="871" y="-18" type="curve" smooth="yes"/>
      <point x="996" y="-18"/>
      <point x="1056" y="62"/>
      <point x="1056" y="225" type="curve" smooth="yes"/>
      <point x="1056" y="900" type="line" smooth="yes"/>
      <point x="1056" y="1077"/>
      <point x="1000" y="1174"/>
      <point x="854" y="1174" type="curve" smooth="yes"/>
      <point x="841" y="1174"/>
      <point x="829" y="1172"/>
      <point x="825" y="1171" type="curve"/>
      <point x="834" y="1166" type="line"/>
      <point x="834" y="1195"/>
      <point x="834" y="1221"/>
      <point x="834" y="1251" type="curve" smooth="yes"/>
      <point x="834" y="1471"/>
      <point x="901" y="1582"/>
      <point x="1079" y="1582" type="curve" smooth="yes"/>
      <point x="1256" y="1582"/>
      <point x="1318" y="1464"/>
      <point x="1318" y="1226" type="curve" smooth="yes"/>
      <point x="1318" y="0" type="line"/>
      <point x="1353" y="0" type="line"/>
      <point x="1353" y="1232" type="line" smooth="yes"/>
      <point x="1353" y="1491"/>
      <point x="1273" y="1616"/>
      <point x="1079" y="1616" type="curve" smooth="yes"/>
      <point x="885" y="1616"/>
      <point x="799" y="1498"/>
      <point x="799" y="1256" type="curve" smooth="yes"/>
      <point x="799" y="1218"/>
      <point x="799" y="1177"/>
      <point x="799" y="1136" type="curve"/>
      <point x="813" y="1138"/>
      <point x="830" y="1141"/>
      <point x="850" y="1141" type="curve" smooth="yes"/>
      <point x="981" y="1141"/>
      <point x="1021" y="1058"/>
      <point x="1021" y="900" type="curve" smooth="yes"/>
      <point x="1021" y="227" type="line" smooth="yes"/>
      <point x="1021" y="82"/>
      <point x="972" y="15"/>
      <point x="871" y="15" type="curve" smooth="yes"/>
      <point x="769" y="15"/>
      <point x="719" y="82"/>
      <point x="719" y="227" type="curve" smooth="yes"/>
      <point x="719" y="809" type="line" smooth="yes"/>
      <point x="719" y="1048"/>
      <point x="621" y="1174"/>
    </contour>
  </outline>
</glyph>
<glyph name="LaMatraI_Fly.tm" format="2">
  <advance width="1174"/>
  <note>
LaMatraI.tm
</note>
  <outline>
    <contour>
      <point x="432" y="1174" type="curve" smooth="yes"/>
      <point x="223" y="1174"/>
      <point x="116" y="1033"/>
      <point x="116" y="766" type="curve" smooth="yes"/>
      <point x="116" y="219" type="line" smooth="yes"/>
      <point x="116" y="61"/>
      <point x="175" y="-18"/>
      <point x="295" y="-18" type="curve" smooth="yes"/>
      <point x="414" y="-18"/>
      <point x="472" y="61"/>
      <point x="472" y="219" type="curve" smooth="yes"/>
      <point x="472" y="585" type="line" smooth="yes"/>
      <point x="472" y="729"/>
      <point x="414" y="802"/>
      <point x="308" y="802" type="curve" smooth="yes"/>
      <point x="228" y="802"/>
      <point x="175" y="753"/>
      <point x="151" y="687" type="curve"/>
      <point x="147" y="687" type="line"/>
      <point x="146" y="613" type="line"/>
      <point x="170" y="711"/>
      <point x="225" y="768"/>
      <point x="304" y="768" type="curve" smooth="yes"/>
      <point x="392" y="768"/>
      <point x="437" y="704"/>
      <point x="437" y="583" type="curve" smooth="yes"/>
      <point x="437" y="221" type="line" smooth="yes"/>
      <point x="437" y="79"/>
      <point x="391" y="15"/>
      <point x="295" y="15" type="curve" smooth="yes"/>
      <point x="199" y="15"/>
      <point x="151" y="79"/>
      <point x="151" y="221" type="curve"/>
      <point x="151" y="687" type="line"/>
      <point x="151" y="687" type="line"/>
      <point x="151" y="715"/>
      <point x="151" y="740"/>
      <point x="151" y="766" type="curve" smooth="yes"/>
      <point x="151" y="1007"/>
      <point x="242" y="1140"/>
      <point x="432" y="1140" type="curve" smooth="yes"/>
      <point x="603" y="1140"/>
      <point x="684" y="1022"/>
      <point x="684" y="809" type="curve" smooth="yes"/>
      <point x="684" y="225" type="line" smooth="yes"/>
      <point x="684" y="62"/>
      <point x="747" y="-18"/>
      <point x="871" y="-18" type="curve" smooth="yes"/>
      <point x="996" y="-18"/>
      <point x="1056" y="62"/>
      <point x="1056" y="225" type="curve" smooth="yes"/>
      <point x="1056" y="900" type="line" smooth="yes"/>
      <point x="1056" y="1077"/>
      <point x="1001" y="1174"/>
      <point x="850" y="1174" type="curve" smooth="yes"/>
      <point x="839" y="1174"/>
      <point x="826" y="1173"/>
      <point x="818" y="1172" type="curve"/>
      <point x="826" y="1169" type="line"/>
      <point x="807" y="1268"/>
      <point x="803" y="1294"/>
      <point x="803" y="1320" type="curve" smooth="yes"/>
      <point x="803" y="1384"/>
      <point x="823" y="1426"/>
      <point x="928" y="1426" type="curve" smooth="yes"/>
      <point x="1110" y="1426" type="line"/>
      <point x="1103" y="1459" type="line"/>
      <point x="928" y="1459" type="line" smooth="yes"/>
      <point x="804" y="1459"/>
      <point x="768" y="1408"/>
      <point x="768" y="1325" type="curve" smooth="yes"/>
      <point x="768" y="1293"/>
      <point x="775" y="1253"/>
      <point x="799" y="1137" type="curve"/>
      <point x="813" y="1139"/>
      <point x="831" y="1141"/>
      <point x="850" y="1141" type="curve" smooth="yes"/>
      <point x="981" y="1141"/>
      <point x="1021" y="1058"/>
      <point x="1021" y="900" type="curve" smooth="yes"/>
      <point x="1021" y="227" type="line" smooth="yes"/>
      <point x="1021" y="82"/>
      <point x="972" y="15"/>
      <point x="871" y="15" type="curve" smooth="yes"/>
      <point x="769" y="15"/>
      <point x="719" y="82"/>
      <point x="719" y="227" type="curve" smooth="yes"/>
      <point x="719" y="809" type="line" smooth="yes"/>
      <point x="719" y="1048"/>
      <point x="621" y="1174"/>
    </contour>
  </outline>
</glyph>
<glyph name="LlaMatraI.tm" format="2">
  <advance width="1557"/>
  <note>
LlaMatraI.tm
</note>
  <outline>
    <contour>
      <point x="1047" y="1148" type="line"/>
      <point x="1047" y="0" type="line"/>
      <point x="1082" y="0" type="line"/>
      <point x="1082" y="1148" type="line"/>
    </contour>
    <contour>
      <point x="425" y="1174" type="curve" smooth="yes"/>
      <point x="221" y="1174"/>
      <point x="116" y="1038"/>
      <point x="116" y="783" type="curve" smooth="yes"/>
      <point x="116" y="219" type="line" smooth="yes"/>
      <point x="116" y="61"/>
      <point x="175" y="-18"/>
      <point x="295" y="-18" type="curve" smooth="yes"/>
      <point x="414" y="-18"/>
      <point x="472" y="61"/>
      <point x="472" y="219" type="curve" smooth="yes"/>
      <point x="472" y="585" type="line" smooth="yes"/>
      <point x="472" y="729"/>
      <point x="414" y="802"/>
      <point x="308" y="802" type="curve" smooth="yes"/>
      <point x="228" y="802"/>
      <point x="175" y="753"/>
      <point x="151" y="687" type="curve"/>
      <point x="147" y="687" type="line"/>
      <point x="146" y="613" type="line"/>
      <point x="170" y="711"/>
      <point x="225" y="768"/>
      <point x="304" y="768" type="curve" smooth="yes"/>
      <point x="392" y="768"/>
      <point x="437" y="704"/>
      <point x="437" y="583" type="curve" smooth="yes"/>
      <point x="437" y="221" type="line" smooth="yes"/>
      <point x="437" y="79"/>
      <point x="391" y="15"/>
      <point x="295" y="15" type="curve" smooth="yes"/>
      <point x="199" y="15"/>
      <point x="151" y="79"/>
      <point x="151" y="221" type="curve"/>
      <point x="151" y="687" type="line"/>
      <point x="151" y="687" type="line"/>
      <point x="151" y="721"/>
      <point x="151" y="751"/>
      <point x="151" y="783" type="curve" smooth="yes"/>
      <point x="151" y="1013"/>
      <point x="240" y="1140"/>
      <point x="425" y="1140" type="curve" smooth="yes"/>
      <point x="628" y="1140"/>
      <point x="691" y="994"/>
      <point x="691" y="738" type="curve" smooth="yes"/>
      <point x="691" y="0" type="line"/>
      <point x="726" y="0" type="line"/>
      <point x="726" y="1124" type="line"/>
      <point x="1076" y="1124" type="line"/>
      <point x="1076" y="1156" type="line"/>
      <point x="693" y="1156" type="line"/>
      <point x="695" y="924" type="line"/>
      <point x="693" y="924" type="line"/>
      <point x="675" y="1087"/>
      <point x="588" y="1174"/>
    </contour>
    <component base="MatraIDflt_dummy.tm" xOffset="1007"/>
    <component base="RaBeak_Nonexporting" xOffset="986"/>
  </outline>
</glyph>
<glyph name="LlaMatraU.tm" format="2">
  <advance width="1829"/>
  <note>
LlaMatraU.tm
</note>
  <outline>
    <contour>
      <point x="1562" y="794" type="curve" smooth="yes"/>
      <point x="1470" y="794"/>
      <point x="1417" y="740"/>
      <point x="1394" y="664" type="curve"/>
      <point x="1383" y="664" type="line"/>
      <point x="1383" y="561" type="line"/>
      <point x="1388" y="561" type="line"/>
      <point x="1404" y="681"/>
      <point x="1456" y="760"/>
      <point x="1557" y="760" type="curve" smooth="yes"/>
      <point x="1668" y="760"/>
      <point x="1700" y="675"/>
      <point x="1700" y="517" type="curve" smooth="yes"/>
      <point x="1700" y="388" type="line" smooth="yes"/>
      <point x="1700" y="-177"/>
      <point x="1493" y="-391"/>
      <point x="1000" y="-391" type="curve" smooth="yes"/>
      <point x="962" y="-391" type="line" smooth="yes"/>
      <point x="443" y="-391"/>
      <point x="163" y="-159"/>
      <point x="163" y="412" type="curve" smooth="yes"/>
      <point x="163" y="705"/>
      <point x="163" y="970"/>
      <point x="163" y="1156" type="curve"/>
      <point x="128" y="1156" type="line"/>
      <point x="128" y="968"/>
      <point x="128" y="705"/>
      <point x="128" y="412" type="curve" smooth="yes"/>
      <point x="128" y="-182"/>
      <point x="426" y="-425"/>
      <point x="962" y="-425" type="curve" smooth="yes"/>
      <point x="1000" y="-425" type="line" smooth="yes"/>
      <point x="1512" y="-425"/>
      <point x="1735" y="-199"/>
      <point x="1735" y="388" type="curve" smooth="yes"/>
      <point x="1735" y="523" type="line" smooth="yes"/>
      <point x="1735" y="703"/>
      <point x="1683" y="794"/>
    </contour>
    <contour>
      <point x="1359" y="1148" type="line"/>
      <point x="1359" y="0" type="line"/>
      <point x="1394" y="0" type="line"/>
      <point x="1394" y="1148" type="line"/>
    </contour>
    <contour>
      <point x="744" y="1174" type="curve" smooth="yes"/>
      <point x="540" y="1174"/>
      <point x="435" y="1038"/>
      <point x="435" y="783" type="curve" smooth="yes"/>
      <point x="435" y="219" type="line" smooth="yes"/>
      <point x="435" y="61"/>
      <point x="494" y="-18"/>
      <point x="614" y="-18" type="curve" smooth="yes"/>
      <point x="733" y="-18"/>
      <point x="791" y="61"/>
      <point x="791" y="219" type="curve" smooth="yes"/>
      <point x="791" y="585" type="line" smooth="yes"/>
      <point x="791" y="729"/>
      <point x="733" y="802"/>
      <point x="627" y="802" type="curve" smooth="yes"/>
      <point x="547" y="802"/>
      <point x="494" y="753"/>
      <point x="470" y="687" type="curve"/>
      <point x="466" y="687" type="line"/>
      <point x="465" y="613" type="line"/>
      <point x="489" y="711"/>
      <point x="544" y="768"/>
      <point x="623" y="768" type="curve" smooth="yes"/>
      <point x="711" y="768"/>
      <point x="756" y="704"/>
      <point x="756" y="583" type="curve" smooth="yes"/>
      <point x="756" y="221" type="line" smooth="yes"/>
      <point x="756" y="79"/>
      <point x="710" y="15"/>
      <point x="614" y="15" type="curve" smooth="yes"/>
      <point x="518" y="15"/>
      <point x="470" y="79"/>
      <point x="470" y="221" type="curve"/>
      <point x="470" y="687" type="line"/>
      <point x="470" y="687" type="line"/>
      <point x="470" y="721"/>
      <point x="470" y="751"/>
      <point x="470" y="783" type="curve" smooth="yes"/>
      <point x="470" y="1013"/>
      <point x="559" y="1140"/>
      <point x="744" y="1140" type="curve" smooth="yes"/>
      <point x="947" y="1140"/>
      <point x="1010" y="996"/>
      <point x="1010" y="743" type="curve" smooth="yes"/>
      <point x="1010" y="0" type="line"/>
      <point x="1045" y="0" type="line"/>
      <point x="1045" y="1124" type="line"/>
      <point x="1498" y="1124" type="line"/>
      <point x="1498" y="1156" type="line"/>
      <point x="1012" y="1156" type="line"/>
      <point x="1014" y="962" type="line"/>
      <point x="1012" y="962" type="line"/>
      <point x="980" y="1100"/>
      <point x="894" y="1174"/>
    </contour>
    <component base="RaBeak_Nonexporting" xOffset="1391"/>
  </outline>
</glyph>
<glyph name="Lla_dummy.tm" format="2">
  <advance width="1236"/>
  <note>
Lla.tm
</note>
  <anchor x="708" y="1236" name="top"/>
  <outline>
    <contour>
      <point x="1047" y="1148" type="line"/>
      <point x="1047" y="0" type="line"/>
      <point x="1082" y="0" type="line"/>
      <point x="1082" y="1148" type="line"/>
    </contour>
    <contour>
      <point x="425" y="1174" type="curve" smooth="yes"/>
      <point x="221" y="1174"/>
      <point x="116" y="1038"/>
      <point x="116" y="783" type="curve" smooth="yes"/>
      <point x="116" y="219" type="line" smooth="yes"/>
      <point x="116" y="61"/>
      <point x="175" y="-18"/>
      <point x="295" y="-18" type="curve" smooth="yes"/>
      <point x="414" y="-18"/>
      <point x="472" y="61"/>
      <point x="472" y="219" type="curve" smooth="yes"/>
      <point x="472" y="585" type="line" smooth="yes"/>
      <point x="472" y="729"/>
      <point x="414" y="802"/>
      <point x="308" y="802" type="curve" smooth="yes"/>
      <point x="228" y="802"/>
      <point x="175" y="753"/>
      <point x="151" y="687" type="curve"/>
      <point x="147" y="687" type="line"/>
      <point x="146" y="613" type="line"/>
      <point x="170" y="711"/>
      <point x="225" y="768"/>
      <point x="304" y="768" type="curve" smooth="yes"/>
      <point x="392" y="768"/>
      <point x="437" y="704"/>
      <point x="437" y="583" type="curve" smooth="yes"/>
      <point x="437" y="221" type="line" smooth="yes"/>
      <point x="437" y="79"/>
      <point x="391" y="15"/>
      <point x="295" y="15" type="curve" smooth="yes"/>
      <point x="199" y="15"/>
      <point x="151" y="79"/>
      <point x="151" y="221" type="curve"/>
      <point x="151" y="687" type="line"/>
      <point x="151" y="687" type="line"/>
      <point x="151" y="721"/>
      <point x="151" y="751"/>
      <point x="151" y="783" type="curve" smooth="yes"/>
      <point x="151" y="1013"/>
      <point x="240" y="1140"/>
      <point x="425" y="1140" type="curve" smooth="yes"/>
      <point x="628" y="1140"/>
      <point x="691" y="994"/>
      <point x="691" y="738" type="curve" smooth="yes"/>
      <point x="691" y="0" type="line"/>
      <point x="726" y="0" type="line"/>
      <point x="726" y="1124" type="line"/>
      <point x="1076" y="1124" type="line"/>
      <point x="1076" y="1156" type="line"/>
      <point x="693" y="1156" type="line"/>
      <point x="695" y="924" type="line"/>
      <point x="693" y="924" type="line"/>
      <point x="675" y="1087"/>
      <point x="588" y="1174"/>
    </contour>
    <component base="RaBeak_Nonexporting" xOffset="986"/>
  </outline>
</glyph>
<glyph name="LllaMatraI_Simple.tm" format="2">
  <advance width="1256"/>
  <note>
LllaMatraI.tm
</note>
  <anchor x="489" y="1236" name="top"/>
  <outline>
    <contour>
      <point x="455" y="-432" type="curve" smooth="yes"/>
      <point x="567" y="-432"/>
      <point x="602" y="-374"/>
      <point x="644" y="-248" type="curve" smooth="yes"/>
      <point x="648" y="-236" type="line" smooth="yes"/>
      <point x="656" y="-213"/>
      <point x="663" y="-201"/>
      <point x="690" y="-201" type="curve" smooth="yes"/>
      <point x="751" y="-201" type="line"/>
      <point x="757" y="-169" type="line"/>
      <point x="652" y="-169" type="line" smooth="yes"/>
      <point x="536" y="-169"/>
      <point x="506" y="-127"/>
      <point x="506" y="-22" type="curve" smooth="yes"/>
      <point x="506" y="9" type="line"/>
      <point x="471" y="9" type="line"/>
      <point x="471" y="-24" type="line" smooth="yes"/>
      <point x="471" y="-147"/>
      <point x="519" y="-191"/>
      <point x="642" y="-193" type="curve"/>
      <point x="642" y="-195" type="line"/>
      <point x="628" y="-197"/>
      <point x="621" y="-210"/>
      <point x="614" y="-230" type="curve" smooth="yes"/>
      <point x="610" y="-242" type="line" smooth="yes"/>
      <point x="575" y="-346"/>
      <point x="548" y="-399"/>
      <point x="455" y="-399" type="curve" smooth="yes"/>
      <point x="360" y="-399"/>
      <point x="305" y="-340"/>
      <point x="305" y="-215" type="curve" smooth="yes"/>
      <point x="305" y="-184"/>
      <point x="305" y="-158"/>
      <point x="305" y="-140" type="curve"/>
      <point x="271" y="-140" type="line"/>
      <point x="271" y="-156"/>
      <point x="271" y="-180"/>
      <point x="271" y="-215" type="curve" smooth="yes"/>
      <point x="271" y="-362"/>
      <point x="341" y="-432"/>
    </contour>
    <component base="MaMatraI.tm"/>
  </outline>
</glyph>
<glyph name="MaMatraI_Fly.tm" format="2">
  <advance width="953"/>
  <note>
MaMatraI.tm
</note>
  <anchor x="489" y="1236" name="top"/>
  <outline>
    <contour>
      <point x="946" y="1459" type="line"/>
      <point x="771" y="1459" type="line" smooth="yes"/>
      <point x="648" y="1459"/>
      <point x="611" y="1408"/>
      <point x="611" y="1325" type="curve" smooth="yes"/>
      <point x="611" y="1291"/>
      <point x="619" y="1246"/>
      <point x="642" y="1148" type="curve"/>
      <point x="676" y="1148" type="line"/>
      <point x="655" y="1236"/>
      <point x="646" y="1284"/>
      <point x="646" y="1319" type="curve" smooth="yes"/>
      <point x="646" y="1384"/>
      <point x="666" y="1426"/>
      <point x="771" y="1426" type="curve" smooth="yes"/>
      <point x="953" y="1426" type="line"/>
    </contour>
    <component base="Ma_dummy.tm"/>
  </outline>
</glyph>
<glyph name="MaMatraIi_SimpleIi.tm" format="2">
  <advance width="954"/>
  <note>
MaMatraIi.tm
</note>
  <anchor x="489" y="1236" name="top"/>
  <outline>
    <contour>
      <point x="844" y="1726" type="curve" smooth="yes"/>
      <point x="697" y="1726"/>
      <point x="631" y="1630"/>
      <point x="631" y="1454" type="curve" smooth="yes"/>
      <point x="631" y="1308" type="line" smooth="yes"/>
      <point x="631" y="1224"/>
      <point x="641" y="1170"/>
      <point x="678" y="1137" type="curve"/>
      <point x="717" y="1137" type="line"/>
      <point x="674" y="1173"/>
      <point x="665" y="1217"/>
      <point x="665" y="1308" type="curve" smooth="yes"/>
      <point x="665" y="1450" type="line" smooth="yes"/>
      <point x="665" y="1602"/>
      <point x="712" y="1690"/>
      <point x="835" y="1695" type="curve"/>
      <point x="838" y="1695" type="line"/>
      <point x="842" y="1695"/>
      <point x="843" y="1695"/>
      <point x="844" y="1695" type="curve" smooth="yes"/>
      <point x="974" y="1695"/>
      <point x="1015" y="1619"/>
      <point x="1015" y="1472" type="curve" smooth="yes"/>
      <point x="1015" y="1426" type="line" smooth="yes"/>
      <point x="1015" y="1335"/>
      <point x="982" y="1293"/>
      <point x="918" y="1293" type="curve" smooth="yes"/>
      <point x="854" y="1293"/>
      <point x="820" y="1335"/>
      <point x="820" y="1426" type="curve" smooth="yes"/>
      <point x="820" y="1516" type="line" smooth="yes"/>
      <point x="820" y="1610"/>
      <point x="836" y="1665"/>
      <point x="881" y="1702" type="curve"/>
      <point x="835" y="1702" type="line"/>
      <point x="835" y="1695" type="line"/>
      <point x="804" y="1661"/>
      <point x="786" y="1609"/>
      <point x="786" y="1514" type="curve" smooth="yes"/>
      <point x="786" y="1424" type="line" smooth="yes"/>
      <point x="786" y="1316"/>
      <point x="832" y="1260"/>
      <point x="918" y="1260" type="curve" smooth="yes"/>
      <point x="1005" y="1260"/>
      <point x="1049" y="1314"/>
      <point x="1049" y="1422" type="curve" smooth="yes"/>
      <point x="1049" y="1476" type="line" smooth="yes"/>
      <point x="1049" y="1638"/>
      <point x="995" y="1726"/>
    </contour>
    <component base="Ma_dummy.tm"/>
  </outline>
</glyph>
<glyph name="MaMatraU_Simple.tm" format="2">
  <advance width="1272"/>
  <note>
MaMatraU.tm
</note>
  <anchor x="808" y="1236" name="top"/>
  <outline>
    <contour>
      <point x="132" y="1156" type="line"/>
      <point x="132" y="881"/>
      <point x="132" y="609"/>
      <point x="132" y="46" type="curve" smooth="yes"/>
      <point x="132" y="-221"/>
      <point x="244" y="-368"/>
      <point x="494" y="-368" type="curve" smooth="yes"/>
      <point x="494" y="-368" type="line" smooth="yes"/>
      <point x="732" y="-368"/>
      <point x="825" y="-236"/>
      <point x="825" y="24" type="curve"/>
      <point x="825" y="28" type="line"/>
      <point x="790" y="28" type="line"/>
      <point x="790" y="24" type="line"/>
      <point x="790" y="-219"/>
      <point x="706" y="-335"/>
      <point x="494" y="-335" type="curve" smooth="yes"/>
      <point x="494" y="-335" type="line" smooth="yes"/>
      <point x="268" y="-335"/>
      <point x="167" y="-202"/>
      <point x="167" y="46" type="curve" smooth="yes"/>
      <point x="167" y="600"/>
      <point x="167" y="874"/>
      <point x="167" y="1156" type="curve"/>
    </contour>
    <component base="Ma_dummy.tm" xOffset="319"/>
  </outline>
</glyph>
<glyph name="MatraE_Simple.tm" format="2">
  <advance width="985"/>
  <note>
MatraE.tm
</note>
  <outline>
    <contour>
      <point x="499" y="1378" type="curve" smooth="yes"/>
      <point x="238" y="1378"/>
      <point x="118" y="1222"/>
      <point x="118" y="877" type="curve" smooth="yes"/>
      <point x="118" y="318" type="line" smooth="yes"/>
      <point x="118" y="99"/>
      <point x="192" y="-18"/>
      <point x="394" y="-18" type="curve" smooth="yes"/>
      <point x="573" y="-18"/>
      <point x="639" y="90"/>
      <point x="639" y="293" type="curve" smooth="yes"/>
      <point x="639" y="615" type="line" smooth="yes"/>
      <point x="639" y="762"/>
      <point x="585" y="834"/>
      <point x="475" y="834" type="curve" smooth="yes"/>
      <point x="365" y="834"/>
      <point x="309" y="760"/>
      <point x="309" y="613" type="curve"/>
      <point x="309" y="230" type="line" smooth="yes"/>
      <point x="309" y="126"/>
      <point x="330" y="60"/>
      <point x="363" y="14" type="curve"/>
      <point x="363" y="-7" type="line"/>
      <point x="407" y="6" type="line"/>
      <point x="363" y="55"/>
      <point x="344" y="132"/>
      <point x="344" y="228" type="curve" smooth="yes"/>
      <point x="344" y="611" type="line" smooth="yes"/>
      <point x="344" y="740"/>
      <point x="389" y="800"/>
      <point x="475" y="800" type="curve" smooth="yes"/>
      <point x="562" y="800"/>
      <point x="604" y="740"/>
      <point x="604" y="611" type="curve" smooth="yes"/>
      <point x="604" y="296" type="line" smooth="yes"/>
      <point x="604" y="114"/>
      <point x="558" y="13"/>
      <point x="394" y="13" type="curve" smooth="yes"/>
      <point x="389" y="13"/>
      <point x="383" y="13"/>
      <point x="364" y="14" type="curve"/>
      <point x="363" y="14" type="line"/>
      <point x="363" y="14" type="line"/>
      <point x="203" y="25"/>
      <point x="153" y="137"/>
      <point x="153" y="322" type="curve" smooth="yes"/>
      <point x="153" y="874" type="line"/>
      <point x="153" y="1201"/>
      <point x="258" y="1345"/>
      <point x="499" y="1345" type="curve" smooth="yes"/>
      <point x="755" y="1345"/>
      <point x="823" y="1185"/>
      <point x="823" y="885" type="curve"/>
      <point x="823" y="0" type="line"/>
      <point x="858" y="0" type="line"/>
      <point x="858" y="888" type="line"/>
      <point x="858" y="1210"/>
      <point x="771" y="1378"/>
    </contour>
  </outline>
</glyph>
<glyph name="MatraEe_Unfused.tm" format="2">
  <advance width="719"/>
  <note>
MatraEe.tm
</note>
  <outline>
    <contour>
      <point x="120" y="1048" type="curve" smooth="yes"/>
      <point x="120" y="318" type="line"/>
      <point x="120" y="99"/>
      <point x="193" y="-18"/>
      <point x="396" y="-18" type="curve" smooth="yes"/>
      <point x="574" y="-18"/>
      <point x="629" y="92"/>
      <point x="629" y="293" type="curve" smooth="yes"/>
      <point x="629" y="431" type="line" smooth="yes"/>
      <point x="629" y="565"/>
      <point x="580" y="631"/>
      <point x="480" y="631" type="curve" smooth="yes"/>
      <point x="381" y="631"/>
      <point x="330" y="563"/>
      <point x="330" y="429" type="curve"/>
      <point x="330" y="212" type="line" smooth="yes"/>
      <point x="330" y="115"/>
      <point x="350" y="55"/>
      <point x="383" y="13" type="curve"/>
      <point x="383" y="6" type="line"/>
      <point x="427" y="6" type="line"/>
      <point x="383" y="52"/>
      <point x="364" y="121"/>
      <point x="364" y="210" type="curve" smooth="yes"/>
      <point x="364" y="427" type="line" smooth="yes"/>
      <point x="364" y="543"/>
      <point x="405" y="598"/>
      <point x="480" y="598" type="curve" smooth="yes"/>
      <point x="556" y="598"/>
      <point x="594" y="543"/>
      <point x="594" y="427" type="curve" smooth="yes"/>
      <point x="594" y="296" type="line" smooth="yes"/>
      <point x="594" y="114"/>
      <point x="552" y="13"/>
      <point x="399" y="13" type="curve" smooth="yes"/>
      <point x="396" y="13"/>
      <point x="396" y="13"/>
      <point x="392" y="13" type="curve"/>
      <point x="383" y="13" type="line"/>
      <point x="210" y="20"/>
      <point x="155" y="131"/>
      <point x="155" y="322" type="curve"/>
      <point x="155" y="1044" type="line" smooth="yes"/>
      <point x="155" y="1235"/>
      <point x="210" y="1346"/>
      <point x="383" y="1353" type="curve"/>
      <point x="392" y="1353" type="line"/>
      <point x="396" y="1353"/>
      <point x="396" y="1353"/>
      <point x="399" y="1353" type="curve" smooth="yes"/>
      <point x="552" y="1353"/>
      <point x="594" y="1252"/>
      <point x="594" y="1070" type="curve" smooth="yes"/>
      <point x="594" y="939" type="line" smooth="yes"/>
      <point x="594" y="823"/>
      <point x="556" y="768"/>
      <point x="480" y="768" type="curve" smooth="yes"/>
      <point x="405" y="768"/>
      <point x="364" y="823"/>
      <point x="364" y="939" type="curve" smooth="yes"/>
      <point x="364" y="1156" type="line" smooth="yes"/>
      <point x="364" y="1245"/>
      <point x="383" y="1314"/>
      <point x="427" y="1360" type="curve"/>
      <point x="383" y="1360" type="line"/>
      <point x="383" y="1353" type="line"/>
      <point x="350" y="1311"/>
      <point x="330" y="1251"/>
      <point x="330" y="1154" type="curve" smooth="yes"/>
      <point x="330" y="937" type="line"/>
      <point x="330" y="803"/>
      <point x="381" y="735"/>
      <point x="480" y="735" type="curve" smooth="yes"/>
      <point x="580" y="735"/>
      <point x="629" y="801"/>
      <point x="629" y="935" type="curve" smooth="yes"/>
      <point x="629" y="1073" type="line" smooth="yes"/>
      <point x="629" y="1274"/>
      <point x="574" y="1384"/>
      <point x="396" y="1384" type="curve" smooth="yes"/>
      <point x="193" y="1384"/>
      <point x="120" y="1267"/>
    </contour>
  </outline>
</glyph>
<glyph name="MatraIDflt_Fly.tm" format="2">
  <note>
MatraIDflt.tm
</note>
  <outline>
    <contour>
      <point x="341" y="1459" type="line"/>
      <point x="165" y="1459" type="line" smooth="yes"/>
      <point x="42" y="1459"/>
      <point x="5" y="1408"/>
      <point x="5" y="1325" type="curve" smooth="yes"/>
      <point x="5" y="1290"/>
      <point x="10" y="1260"/>
      <point x="33" y="1154" type="curve"/>
      <point x="68" y="1154" type="line"/>
      <point x="49" y="1237"/>
      <point x="40" y="1284"/>
      <point x="40" y="1319" type="curve" smooth="yes"/>
      <point x="40" y="1384"/>
      <point x="60" y="1426"/>
      <point x="165" y="1426" type="curve" smooth="yes"/>
      <point x="347" y="1426" type="line"/>
    </contour>
  </outline>
</glyph>
<glyph name="MatraIDflt_dummy.tm" format="2">
  <advance width="550"/>
  <note>
MatraIDflt.tm
</note>
  <outline>
    <contour>
      <point x="209" y="1616" type="curve" smooth="yes"/>
      <point x="62" y="1616"/>
      <point x="0" y="1527"/>
      <point x="0" y="1331" type="curve" smooth="yes"/>
      <point x="0" y="1315" type="line" smooth="yes"/>
      <point x="0" y="1244"/>
      <point x="8" y="1196"/>
      <point x="35" y="1154" type="curve"/>
      <point x="72" y="1154" type="line"/>
      <point x="42" y="1199"/>
      <point x="35" y="1239"/>
      <point x="35" y="1315" type="curve" smooth="yes"/>
      <point x="35" y="1325" type="line" smooth="yes"/>
      <point x="35" y="1503"/>
      <point x="80" y="1582"/>
      <point x="209" y="1582" type="curve" smooth="yes"/>
      <point x="338" y="1582"/>
      <point x="383" y="1503"/>
      <point x="383" y="1325" type="curve" smooth="yes"/>
      <point x="383" y="0" type="line"/>
      <point x="418" y="0" type="line"/>
      <point x="418" y="1331" type="line" smooth="yes"/>
      <point x="418" y="1527"/>
      <point x="358" y="1616"/>
    </contour>
  </outline>
</glyph>
<glyph name="MatraUuDflt_Simple.tm" format="2">
  <advance width="938"/>
  <note>
MatraUuDflt.tm
</note>
  <outline>
    <contour>
      <point x="20" y="1156" type="line"/>
      <point x="20" y="1124" type="line"/>
      <point x="346" y="1124" type="line"/>
      <point x="498" y="1124"/>
      <point x="544" y="1038"/>
      <point x="544" y="868" type="curve" smooth="yes"/>
      <point x="544" y="613" type="line" smooth="yes"/>
      <point x="544" y="488"/>
      <point x="502" y="429"/>
      <point x="416" y="429" type="curve" smooth="yes"/>
      <point x="333" y="429"/>
      <point x="285" y="488"/>
      <point x="285" y="613" type="curve" smooth="yes"/>
      <point x="285" y="784"/>
      <point x="285" y="957"/>
      <point x="285" y="1128" type="curve"/>
      <point x="250" y="1128" type="line"/>
      <point x="250" y="955"/>
      <point x="250" y="784"/>
      <point x="250" y="611" type="curve"/>
      <point x="250" y="467"/>
      <point x="305" y="396"/>
      <point x="416" y="396" type="curve" smooth="yes"/>
      <point x="526" y="396"/>
      <point x="579" y="466"/>
      <point x="579" y="609" type="curve" smooth="yes"/>
      <point x="579" y="872" type="line" smooth="yes"/>
      <point x="579" y="1056"/>
      <point x="517" y="1156"/>
      <point x="346" y="1156" type="curve" smooth="yes"/>
      <point x="270" y="1156" type="line"/>
      <point x="261" y="1156" type="line"/>
    </contour>
    <contour>
      <point x="555" y="1487" type="curve" smooth="yes"/>
      <point x="354" y="1487"/>
      <point x="250" y="1363"/>
      <point x="250" y="1133" type="curve"/>
      <point x="285" y="1133" type="line"/>
      <point x="285" y="1341"/>
      <point x="372" y="1454"/>
      <point x="555" y="1454" type="curve" smooth="yes"/>
      <point x="727" y="1454"/>
      <point x="804" y="1341"/>
      <point x="804" y="1133" type="curve" smooth="yes"/>
      <point x="804" y="881"/>
      <point x="804" y="629"/>
      <point x="804" y="377" type="curve"/>
      <point x="838" y="377" type="line"/>
      <point x="838" y="629"/>
      <point x="838" y="881"/>
      <point x="838" y="1133" type="curve" smooth="yes"/>
      <point x="838" y="1363"/>
      <point x="746" y="1487"/>
    </contour>
  </outline>
</glyph>
<glyph name="NaMatraU.tm" format="2">
  <advance width="1282"/>
  <note>
NaMatraU.tm
</note>
  <guideline x="480" y="-315" angle="90"/>
  <guideline x="662" y="-315" angle="90"/>
  <outline>
    <contour>
      <point x="485" y="1139" type="line"/>
      <point x="485" y="0" type="line"/>
      <point x="520" y="0" type="line"/>
      <point x="520" y="1139" type="line"/>
    </contour>
    <contour>
      <point x="689" y="794" type="curve" smooth="yes"/>
      <point x="596" y="794"/>
      <point x="542" y="740"/>
      <point x="520" y="664" type="curve"/>
      <point x="509" y="664" type="line"/>
      <point x="509" y="561" type="line"/>
      <point x="515" y="561" type="line"/>
      <point x="531" y="681"/>
      <point x="583" y="760"/>
      <point x="684" y="760" type="curve" smooth="yes"/>
      <point x="798" y="760"/>
      <point x="832" y="675"/>
      <point x="832" y="518" type="curve" smooth="yes"/>
      <point x="832" y="212" type="line" smooth="yes"/>
      <point x="832" y="-78"/>
      <point x="755" y="-198"/>
      <point x="531" y="-216" type="curve"/>
      <point x="40" y="-216" type="line"/>
      <point x="46" y="-248" type="line"/>
      <point x="1150" y="-248" type="line"/>
      <point x="1150" y="-216" type="line"/>
      <point x="656" y="-216" type="line"/>
      <point x="656" y="-214" type="line"/>
      <point x="799" y="-176"/>
      <point x="867" y="-52"/>
      <point x="867" y="210" type="curve" smooth="yes"/>
      <point x="867" y="523" type="line" smooth="yes"/>
      <point x="867" y="703"/>
      <point x="814" y="794"/>
    </contour>
    <contour>
      <point x="1115" y="1156" type="line"/>
      <point x="1115" y="-232" type="line"/>
      <point x="1150" y="-232" type="line"/>
      <point x="1150" y="1156" type="line"/>
    </contour>
    <contour>
      <point x="639" y="1156" type="line"/>
      <point x="132" y="1156" type="line"/>
      <point x="132" y="0" type="line"/>
      <point x="167" y="0" type="line"/>
      <point x="167" y="1124" type="line"/>
      <point x="639" y="1124" type="line"/>
    </contour>
    <component base="RaBeak_Nonexporting" xOffset="517"/>
  </outline>
</glyph>
<glyph name="Na_Simple.tm" format="2">
  <advance width="965"/>
  <note>
Na.tm
</note>
  <anchor x="503" y="1236" name="top"/>
  <outline>
    <contour>
      <point x="485" y="1139" type="line"/>
      <point x="485" y="0" type="line"/>
      <point x="520" y="0" type="line"/>
      <point x="520" y="1139" type="line"/>
    </contour>
    <contour>
      <point x="689" y="794" type="curve" smooth="yes"/>
      <point x="596" y="794"/>
      <point x="542" y="740"/>
      <point x="520" y="664" type="curve"/>
      <point x="509" y="664" type="line"/>
      <point x="509" y="561" type="line"/>
      <point x="515" y="561" type="line"/>
      <point x="531" y="681"/>
      <point x="583" y="760"/>
      <point x="684" y="760" type="curve" smooth="yes"/>
      <point x="798" y="760"/>
      <point x="832" y="675"/>
      <point x="832" y="517" type="curve" smooth="yes"/>
      <point x="832" y="237" type="line" smooth="yes"/>
      <point x="832" y="-117"/>
      <point x="739" y="-216"/>
      <point x="424" y="-216" type="curve" smooth="yes"/>
      <point x="244" y="-216" type="line"/>
      <point x="250" y="-248" type="line"/>
      <point x="426" y="-248" type="line" smooth="yes"/>
      <point x="761" y="-248"/>
      <point x="867" y="-134"/>
      <point x="867" y="234" type="curve" smooth="yes"/>
      <point x="867" y="523" type="line" smooth="yes"/>
      <point x="867" y="703"/>
      <point x="814" y="794"/>
    </contour>
    <contour>
      <point x="632" y="1156" type="line"/>
      <point x="132" y="1156" type="line"/>
      <point x="132" y="0" type="line"/>
      <point x="167" y="0" type="line"/>
      <point x="167" y="1124" type="line"/>
      <point x="632" y="1124" type="line"/>
    </contour>
    <component base="Tail_NonExporting" xOffset="-6"/>
    <component base="RaBeak_Nonexporting" xOffset="517"/>
  </outline>
</glyph>
<glyph name="NgaMatraI_SimpleI.tm" format="2">
  <advance width="1546"/>
  <note>
NgaMatraI.tm
</note>
  <outline>
    <contour>
      <point x="488" y="1139" type="line"/>
      <point x="488" y="0" type="line"/>
      <point x="523" y="0" type="line"/>
      <point x="523" y="1139" type="line"/>
    </contour>
    <contour>
      <point x="680" y="802" type="curve" smooth="yes"/>
      <point x="603" y="802"/>
      <point x="544" y="754"/>
      <point x="523" y="682" type="curve"/>
      <point x="516" y="682" type="line"/>
      <point x="516" y="611" type="line"/>
      <point x="520" y="611" type="line"/>
      <point x="542" y="712"/>
      <point x="597" y="768"/>
      <point x="677" y="768" type="curve" smooth="yes"/>
      <point x="765" y="768"/>
      <point x="808" y="705"/>
      <point x="808" y="583" type="curve" smooth="yes"/>
      <point x="808" y="333" type="line" smooth="yes"/>
      <point x="808" y="175"/>
      <point x="784" y="99"/>
      <point x="729" y="6" type="curve"/>
      <point x="729" y="0" type="line"/>
      <point x="1097" y="0" type="line"/>
      <point x="1097" y="32" type="line"/>
      <point x="765" y="32" type="line"/>
      <point x="769" y="11" type="line"/>
      <point x="822" y="98"/>
      <point x="843" y="175"/>
      <point x="843" y="331" type="curve" smooth="yes"/>
      <point x="843" y="585" type="line" smooth="yes"/>
      <point x="843" y="730"/>
      <point x="787" y="802"/>
    </contour>
    <contour>
      <point x="1075" y="1156" type="line"/>
      <point x="1075" y="0" type="line"/>
      <point x="1110" y="0" type="line"/>
      <point x="1110" y="1156" type="line"/>
    </contour>
    <contour>
      <point x="1138" y="1616" type="curve" smooth="yes"/>
      <point x="943" y="1616"/>
      <point x="855" y="1494"/>
      <point x="855" y="1253" type="curve" smooth="yes"/>
      <point x="855" y="1150" type="line" smooth="yes"/>
      <point x="855" y="947"/>
      <point x="918" y="833"/>
      <point x="1077" y="802" type="curve"/>
      <point x="1079" y="834" type="line"/>
      <point x="930" y="869"/>
      <point x="890" y="973"/>
      <point x="890" y="1150" type="curve" smooth="yes"/>
      <point x="890" y="1250" type="line" smooth="yes"/>
      <point x="890" y="1471"/>
      <point x="959" y="1582"/>
      <point x="1138" y="1582" type="curve" smooth="yes"/>
      <point x="1315" y="1582"/>
      <point x="1379" y="1475"/>
      <point x="1379" y="1250" type="curve" smooth="yes"/>
      <point x="1379" y="0" type="line"/>
      <point x="1414" y="0" type="line"/>
      <point x="1414" y="1253" type="line" smooth="yes"/>
      <point x="1414" y="1496"/>
      <point x="1329" y="1616"/>
    </contour>
    <contour>
      <point x="556" y="1156" type="line"/>
      <point x="132" y="1156" type="line"/>
      <point x="132" y="0" type="line"/>
      <point x="167" y="0" type="line"/>
      <point x="167" y="1124" type="line"/>
      <point x="556" y="1124" type="line"/>
    </contour>
    <component base="RaBeak_Nonexporting" xOffset="462"/>
  </outline>
</glyph>
<glyph name="NgaMatraIi.tm" format="2">
  <advance width="1242"/>
  <note>
NgaMatraIi.tm
</note>
  <outline>
    <contour>
      <point x="488" y="1139" type="line"/>
      <point x="488" y="0" type="line"/>
      <point x="523" y="0" type="line"/>
      <point x="523" y="1139" type="line"/>
    </contour>
    <contour>
      <point x="1075" y="1156" type="line"/>
      <point x="1075" y="0" type="line"/>
      <point x="1110" y="0" type="line"/>
      <point x="1110" y="1156" type="line"/>
    </contour>
    <contour>
      <point x="1030" y="1726" type="curve" smooth="yes"/>
      <point x="939" y="1726"/>
      <point x="889" y="1665"/>
      <point x="889" y="1561" type="curve"/>
      <point x="889" y="1341" type="line"/>
      <point x="889" y="1187"/>
      <point x="938" y="1124"/>
      <point x="1075" y="1124" type="curve"/>
      <point x="1080" y="1124" type="line"/>
      <point x="1080" y="1156" type="line"/>
      <point x="1076" y="1156" type="line"/>
      <point x="963" y="1156"/>
      <point x="923" y="1205"/>
      <point x="923" y="1341" type="curve"/>
      <point x="923" y="1407" type="line"/>
      <point x="923" y="1559" type="line" smooth="yes"/>
      <point x="923" y="1647"/>
      <point x="960" y="1693"/>
      <point x="1030" y="1693" type="curve" smooth="yes"/>
      <point x="1102" y="1693"/>
      <point x="1128" y="1647"/>
      <point x="1128" y="1563" type="curve" smooth="yes"/>
      <point x="1128" y="1456" type="line" smooth="yes"/>
      <point x="1128" y="1380"/>
      <point x="1100" y="1337"/>
      <point x="1035" y="1337" type="curve" smooth="yes"/>
      <point x="978" y="1337"/>
      <point x="936" y="1372"/>
      <point x="919" y="1421" type="curve"/>
      <point x="918" y="1421" type="line"/>
      <point x="918" y="1388" type="line"/>
      <point x="921" y="1388" type="line"/>
      <point x="940" y="1351" type="line"/>
      <point x="954" y="1328"/>
      <point x="991" y="1304"/>
      <point x="1039" y="1304" type="curve" smooth="yes"/>
      <point x="1129" y="1304"/>
      <point x="1162" y="1365"/>
      <point x="1162" y="1454" type="curve" smooth="yes"/>
      <point x="1162" y="1564" type="line" smooth="yes"/>
      <point x="1162" y="1665"/>
      <point x="1126" y="1726"/>
    </contour>
    <contour>
      <point x="659" y="1156" type="line"/>
      <point x="132" y="1156" type="line"/>
      <point x="132" y="0" type="line"/>
      <point x="167" y="0" type="line"/>
      <point x="167" y="1124" type="line"/>
      <point x="659" y="1124" type="line"/>
    </contour>
    <contour>
      <point x="680" y="802" type="curve" smooth="yes"/>
      <point x="603" y="802"/>
      <point x="544" y="754"/>
      <point x="523" y="682" type="curve"/>
      <point x="516" y="682" type="line"/>
      <point x="516" y="611" type="line"/>
      <point x="520" y="611" type="line"/>
      <point x="542" y="712"/>
      <point x="597" y="768"/>
      <point x="677" y="768" type="curve" smooth="yes"/>
      <point x="765" y="768"/>
      <point x="808" y="705"/>
      <point x="808" y="583" type="curve" smooth="yes"/>
      <point x="808" y="333" type="line" smooth="yes"/>
      <point x="808" y="175"/>
      <point x="784" y="99"/>
      <point x="729" y="6" type="curve"/>
      <point x="729" y="0" type="line"/>
      <point x="1102" y="0" type="line"/>
      <point x="1102" y="32" type="line"/>
      <point x="765" y="32" type="line"/>
      <point x="769" y="11" type="line"/>
      <point x="822" y="98"/>
      <point x="843" y="175"/>
      <point x="843" y="331" type="curve" smooth="yes"/>
      <point x="843" y="585" type="line" smooth="yes"/>
      <point x="843" y="730"/>
      <point x="787" y="802"/>
    </contour>
    <component base="RaBeak_Nonexporting" xOffset="502"/>
  </outline>
</glyph>
<glyph name="NgaMatraU.tm" format="2">
  <advance width="1242"/>
  <note>
NgaMatraU.tm
</note>
  <anchor x="656" y="1236" name="top"/>
  <outline>
    <contour>
      <point x="1075" y="202" type="line"/>
      <point x="1075" y="-272" type="line"/>
      <point x="1110" y="-272" type="line"/>
      <point x="1110" y="202" type="line"/>
    </contour>
    <component base="Nga_dummy.tm"/>
  </outline>
</glyph>
<glyph name="NgaMatraUu_SimpleUu.tm" format="2">
  <advance width="1401"/>
  <note>
NgaMatraUu.tm
</note>
  <anchor x="656" y="1236" name="top"/>
  <outline>
    <contour>
      <point x="1075" y="118" type="line"/>
      <point x="1075" y="-250" type="line"/>
      <point x="1110" y="-250" type="line"/>
      <point x="1110" y="118" type="line"/>
    </contour>
    <contour>
      <point x="1246" y="178" type="curve" smooth="yes"/>
      <point x="1170" y="178"/>
      <point x="1128" y="128"/>
      <point x="1110" y="75" type="curve"/>
      <point x="1099" y="75" type="line"/>
      <point x="1099" y="-26" type="line"/>
      <point x="1104" y="-26" type="line"/>
      <point x="1119" y="72"/>
      <point x="1159" y="145"/>
      <point x="1244" y="145" type="curve" smooth="yes"/>
      <point x="1330" y="145"/>
      <point x="1356" y="85"/>
      <point x="1356" y="-26" type="curve" smooth="yes"/>
      <point x="1356" y="-59" type="line" smooth="yes"/>
      <point x="1356" y="-347"/>
      <point x="1187" y="-475"/>
      <point x="737" y="-475" type="curve" smooth="yes"/>
      <point x="343" y="-475"/>
      <point x="136" y="-378"/>
      <point x="136" y="-245" type="curve" smooth="yes"/>
      <point x="136" y="-167"/>
      <point x="207" y="-140"/>
      <point x="310" y="-140" type="curve" smooth="yes"/>
      <point x="441" y="-140"/>
      <point x="531" y="-171"/>
      <point x="610" y="-206" type="curve"/>
      <point x="607" y="-169" type="line"/>
      <point x="546" y="-142"/>
      <point x="447" y="-107"/>
      <point x="309" y="-107" type="curve" smooth="yes"/>
      <point x="184" y="-107"/>
      <point x="101" y="-149"/>
      <point x="101" y="-245" type="curve" smooth="yes"/>
      <point x="101" y="-397"/>
      <point x="319" y="-508"/>
      <point x="737" y="-508" type="curve" smooth="yes"/>
      <point x="1209" y="-508"/>
      <point x="1391" y="-366"/>
      <point x="1391" y="-59" type="curve" smooth="yes"/>
      <point x="1391" y="-20" type="line" smooth="yes"/>
      <point x="1391" y="111"/>
      <point x="1347" y="178"/>
    </contour>
    <component base="Nga_dummy.tm"/>
  </outline>
</glyph>
<glyph name="Nga_dummy.tm" format="2">
  <advance width="1242"/>
  <note>
Nga.tm
</note>
  <anchor x="656" y="1236" name="top"/>
  <outline>
    <contour>
      <point x="488" y="1139" type="line"/>
      <point x="488" y="0" type="line"/>
      <point x="523" y="0" type="line"/>
      <point x="523" y="1139" type="line"/>
    </contour>
    <contour>
      <point x="680" y="802" type="curve" smooth="yes"/>
      <point x="603" y="802"/>
      <point x="544" y="754"/>
      <point x="523" y="682" type="curve"/>
      <point x="516" y="682" type="line"/>
      <point x="516" y="611" type="line"/>
      <point x="520" y="611" type="line"/>
      <point x="542" y="712"/>
      <point x="597" y="768"/>
      <point x="677" y="768" type="curve" smooth="yes"/>
      <point x="765" y="768"/>
      <point x="808" y="705"/>
      <point x="808" y="583" type="curve" smooth="yes"/>
      <point x="808" y="333" type="line" smooth="yes"/>
      <point x="808" y="175"/>
      <point x="784" y="99"/>
      <point x="729" y="6" type="curve"/>
      <point x="729" y="0" type="line"/>
      <point x="1102" y="0" type="line"/>
      <point x="1102" y="32" type="line"/>
      <point x="765" y="32" type="line"/>
      <point x="769" y="11" type="line"/>
      <point x="822" y="98"/>
      <point x="843" y="175"/>
      <point x="843" y="331" type="curve" smooth="yes"/>
      <point x="843" y="585" type="line" smooth="yes"/>
      <point x="843" y="730"/>
      <point x="787" y="802"/>
    </contour>
    <contour>
      <point x="1075" y="1156" type="line"/>
      <point x="1075" y="0" type="line"/>
      <point x="1110" y="0" type="line"/>
      <point x="1110" y="1156" type="line"/>
    </contour>
    <contour>
      <point x="659" y="1156" type="line"/>
      <point x="132" y="1156" type="line"/>
      <point x="132" y="0" type="line"/>
      <point x="167" y="0" type="line"/>
      <point x="167" y="1124" type="line"/>
      <point x="659" y="1124" type="line"/>
    </contour>
    <component base="RaBeak_Nonexporting" xOffset="536"/>
  </outline>
</glyph>
<glyph name="NnaMatraI.tm" format="2">
  <advance width="2323"/>
  <note>
NnaMatraI.tm
</note>
  <outline>
    <contour>
      <point x="1118" y="1178" type="curve" smooth="yes"/>
      <point x="997" y="1178"/>
      <point x="896" y="1152"/>
      <point x="825" y="1106" type="curve"/>
      <point x="851" y="1086" type="line"/>
      <point x="914" y="1124"/>
      <point x="1008" y="1146"/>
      <point x="1118" y="1146" type="curve" smooth="yes"/>
      <point x="1240" y="1146"/>
      <point x="1330" y="1119"/>
      <point x="1381" y="1087" type="curve"/>
      <point x="1386" y="1084" type="line"/>
      <point x="1510" y="994"/>
      <point x="1539" y="859"/>
      <point x="1539" y="615" type="curve" smooth="yes"/>
      <point x="1539" y="223" type="line" smooth="yes"/>
      <point x="1539" y="79"/>
      <point x="1491" y="15"/>
      <point x="1394" y="15" type="curve" smooth="yes"/>
      <point x="1294" y="15"/>
      <point x="1245" y="79"/>
      <point x="1245" y="223" type="curve" smooth="yes"/>
      <point x="1245" y="615" type="line" smooth="yes"/>
      <point x="1245" y="857"/>
      <point x="1280" y="994"/>
      <point x="1407" y="1084" type="curve"/>
      <point x="1379" y="1102" type="line"/>
      <point x="1252" y="1010"/>
      <point x="1210" y="868"/>
      <point x="1210" y="620" type="curve" smooth="yes"/>
      <point x="1210" y="221" type="line" smooth="yes"/>
      <point x="1210" y="61"/>
      <point x="1270" y="-18"/>
      <point x="1394" y="-18" type="curve" smooth="yes"/>
      <point x="1515" y="-18"/>
      <point x="1574" y="61"/>
      <point x="1574" y="221" type="curve" smooth="yes"/>
      <point x="1574" y="620" type="line" smooth="yes"/>
      <point x="1574" y="868"/>
      <point x="1537" y="1012"/>
      <point x="1420" y="1098" type="curve"/>
      <point x="1418" y="1100" type="line"/>
      <point x="1356" y="1144"/>
      <point x="1253" y="1178"/>
    </contour>
    <contour>
      <point x="1813" y="1133" type="line"/>
      <point x="1813" y="0" type="line"/>
      <point x="1848" y="0" type="line"/>
      <point x="1848" y="1133" type="line"/>
    </contour>
    <contour>
      <point x="1836" y="1156" type="line"/>
      <point x="1589" y="1156" type="line" smooth="yes"/>
      <point x="1506" y="1156"/>
      <point x="1451" y="1141"/>
      <point x="1418" y="1124" type="curve"/>
      <point x="1414" y="1089" type="line"/>
      <point x="1454" y="1111"/>
      <point x="1512" y="1124"/>
      <point x="1592" y="1124" type="curve" smooth="yes"/>
      <point x="1836" y="1124" type="line"/>
    </contour>
    <contour>
      <point x="574" y="1178" type="curve" smooth="yes"/>
      <point x="268" y="1178"/>
      <point x="112" y="1018"/>
      <point x="112" y="692" type="curve" smooth="yes"/>
      <point x="112" y="219" type="line" smooth="yes"/>
      <point x="112" y="61"/>
      <point x="171" y="-18"/>
      <point x="291" y="-18" type="curve" smooth="yes"/>
      <point x="410" y="-18"/>
      <point x="468" y="61"/>
      <point x="468" y="219" type="curve" smooth="yes"/>
      <point x="468" y="585" type="line" smooth="yes"/>
      <point x="468" y="729"/>
      <point x="410" y="802"/>
      <point x="304" y="802" type="curve" smooth="yes"/>
      <point x="224" y="802"/>
      <point x="171" y="753"/>
      <point x="147" y="687" type="curve"/>
      <point x="143" y="687" type="line"/>
      <point x="142" y="613" type="line"/>
      <point x="166" y="711"/>
      <point x="221" y="768"/>
      <point x="300" y="768" type="curve" smooth="yes"/>
      <point x="388" y="768"/>
      <point x="433" y="704"/>
      <point x="433" y="583" type="curve" smooth="yes"/>
      <point x="433" y="221" type="line" smooth="yes"/>
      <point x="433" y="79"/>
      <point x="387" y="15"/>
      <point x="291" y="15" type="curve" smooth="yes"/>
      <point x="195" y="15"/>
      <point x="147" y="79"/>
      <point x="147" y="221" type="curve" smooth="yes"/>
      <point x="147" y="687" type="line"/>
      <point x="147" y="687" type="line"/>
      <point x="147" y="689"/>
      <point x="147" y="690"/>
      <point x="147" y="692" type="curve" smooth="yes"/>
      <point x="147" y="994"/>
      <point x="283" y="1144"/>
      <point x="574" y="1144" type="curve" smooth="yes"/>
      <point x="691" y="1144"/>
      <point x="778" y="1121"/>
      <point x="825" y="1091" type="curve"/>
      <point x="832" y="1087" type="line"/>
      <point x="954" y="997"/>
      <point x="983" y="861"/>
      <point x="983" y="615" type="curve" smooth="yes"/>
      <point x="983" y="223" type="line" smooth="yes"/>
      <point x="983" y="79"/>
      <point x="935" y="15"/>
      <point x="838" y="15" type="curve" smooth="yes"/>
      <point x="738" y="15"/>
      <point x="689" y="79"/>
      <point x="689" y="223" type="curve" smooth="yes"/>
      <point x="689" y="615" type="line" smooth="yes"/>
      <point x="689" y="859"/>
      <point x="724" y="997"/>
      <point x="851" y="1087" type="curve"/>
      <point x="823" y="1106" type="line"/>
      <point x="696" y="1014"/>
      <point x="654" y="870"/>
      <point x="654" y="620" type="curve" smooth="yes"/>
      <point x="654" y="221" type="line" smooth="yes"/>
      <point x="654" y="61"/>
      <point x="715" y="-18"/>
      <point x="838" y="-18" type="curve" smooth="yes"/>
      <point x="959" y="-18"/>
      <point x="1018" y="61"/>
      <point x="1018" y="221" type="curve" smooth="yes"/>
      <point x="1018" y="620" type="line" smooth="yes"/>
      <point x="1018" y="870"/>
      <point x="981" y="1014"/>
      <point x="865" y="1102" type="curve"/>
      <point x="864" y="1104" type="line"/>
      <point x="804" y="1146"/>
      <point x="704" y="1178"/>
    </contour>
    <component base="MatraIDflt_dummy.tm" xOffset="1773"/>
    <component base="RaBeak_Nonexporting" xOffset="1760"/>
  </outline>
</glyph>
<glyph name="NnnaMatraAa.tm" format="2">
  <advance width="1782"/>
  <outline>
    <contour>
      <point x="1377" y="1178" type="curve" smooth="yes"/>
      <point x="1279" y="1178"/>
      <point x="1195" y="1152"/>
      <point x="1135" y="1115" type="curve"/>
      <point x="1160" y="1095" type="line"/>
      <point x="1211" y="1124"/>
      <point x="1287" y="1146"/>
      <point x="1377" y="1146" type="curve" smooth="yes"/>
      <point x="1558" y="1146"/>
      <point x="1630" y="1058"/>
      <point x="1630" y="881" type="curve" smooth="yes"/>
      <point x="1630" y="815" type="line" smooth="yes"/>
      <point x="1630" y="679"/>
      <point x="1591" y="610"/>
      <point x="1474" y="607" type="curve" smooth="yes"/>
      <point x="1407" y="605" type="line"/>
      <point x="1407" y="578" type="line"/>
      <point x="1470" y="576" type="line" smooth="yes"/>
      <point x="1595" y="572"/>
      <point x="1641" y="523"/>
      <point x="1641" y="355" type="curve" smooth="yes"/>
      <point x="1641" y="269" type="line" smooth="yes"/>
      <point x="1641" y="-209"/>
      <point x="1429" y="-391"/>
      <point x="957" y="-391" type="curve" smooth="yes"/>
      <point x="939" y="-391" type="line" smooth="yes"/>
      <point x="435" y="-391"/>
      <point x="163" y="-159"/>
      <point x="163" y="412" type="curve" smooth="yes"/>
      <point x="163" y="1156" type="line"/>
      <point x="128" y="1156" type="line"/>
      <point x="128" y="412" type="line" smooth="yes"/>
      <point x="128" y="-182"/>
      <point x="418" y="-425"/>
      <point x="939" y="-425" type="curve" smooth="yes"/>
      <point x="957" y="-425" type="line" smooth="yes"/>
      <point x="1449" y="-425"/>
      <point x="1676" y="-232"/>
      <point x="1676" y="269" type="curve" smooth="yes"/>
      <point x="1676" y="357" type="line" smooth="yes"/>
      <point x="1676" y="526"/>
      <point x="1628" y="581"/>
      <point x="1533" y="591" type="curve"/>
      <point x="1533" y="592" type="line"/>
      <point x="1632" y="607"/>
      <point x="1665" y="683"/>
      <point x="1665" y="813" type="curve" smooth="yes"/>
      <point x="1665" y="883" type="line" smooth="yes"/>
      <point x="1665" y="1084"/>
      <point x="1580" y="1178"/>
    </contour>
    <contour>
      <point x="879" y="1178" type="curve" smooth="yes"/>
      <point x="573" y="1178"/>
      <point x="417" y="1018"/>
      <point x="417" y="692" type="curve" smooth="yes"/>
      <point x="417" y="219" type="line" smooth="yes"/>
      <point x="417" y="61"/>
      <point x="476" y="-18"/>
      <point x="596" y="-18" type="curve" smooth="yes"/>
      <point x="715" y="-18"/>
      <point x="773" y="61"/>
      <point x="773" y="219" type="curve" smooth="yes"/>
      <point x="773" y="585" type="line" smooth="yes"/>
      <point x="773" y="729"/>
      <point x="715" y="802"/>
      <point x="609" y="802" type="curve" smooth="yes"/>
      <point x="529" y="802"/>
      <point x="476" y="753"/>
      <point x="452" y="687" type="curve"/>
      <point x="448" y="687" type="line"/>
      <point x="447" y="613" type="line"/>
      <point x="471" y="711"/>
      <point x="526" y="768"/>
      <point x="605" y="768" type="curve" smooth="yes"/>
      <point x="693" y="768"/>
      <point x="738" y="704"/>
      <point x="738" y="583" type="curve" smooth="yes"/>
      <point x="738" y="221" type="line" smooth="yes"/>
      <point x="738" y="79"/>
      <point x="692" y="15"/>
      <point x="596" y="15" type="curve" smooth="yes"/>
      <point x="500" y="15"/>
      <point x="452" y="79"/>
      <point x="452" y="221" type="curve" smooth="yes"/>
      <point x="452" y="687" type="line"/>
      <point x="452" y="687" type="line"/>
      <point x="452" y="689"/>
      <point x="452" y="690"/>
      <point x="452" y="692" type="curve" smooth="yes"/>
      <point x="452" y="994"/>
      <point x="588" y="1144"/>
      <point x="879" y="1144" type="curve" smooth="yes"/>
      <point x="1000" y="1144"/>
      <point x="1086" y="1122"/>
      <point x="1131" y="1097" type="curve"/>
      <point x="1138" y="1093" type="line"/>
      <point x="1258" y="1008"/>
      <point x="1289" y="868"/>
      <point x="1289" y="622" type="curve" smooth="yes"/>
      <point x="1289" y="223" type="line" smooth="yes"/>
      <point x="1289" y="79"/>
      <point x="1241" y="15"/>
      <point x="1144" y="15" type="curve" smooth="yes"/>
      <point x="1044" y="15"/>
      <point x="995" y="79"/>
      <point x="995" y="223" type="curve" smooth="yes"/>
      <point x="995" y="622" type="line" smooth="yes"/>
      <point x="995" y="867"/>
      <point x="1032" y="1006"/>
      <point x="1157" y="1093" type="curve"/>
      <point x="1131" y="1113" type="line"/>
      <point x="1006" y="1025"/>
      <point x="960" y="880"/>
      <point x="960" y="627" type="curve" smooth="yes"/>
      <point x="960" y="221" type="line" smooth="yes"/>
      <point x="960" y="61"/>
      <point x="1021" y="-18"/>
      <point x="1144" y="-18" type="curve" smooth="yes"/>
      <point x="1265" y="-18"/>
      <point x="1324" y="61"/>
      <point x="1324" y="221" type="curve" smooth="yes"/>
      <point x="1324" y="627" type="line" smooth="yes"/>
      <point x="1324" y="878"/>
      <point x="1284" y="1025"/>
      <point x="1170" y="1108" type="curve"/>
      <point x="1168" y="1110" type="line"/>
      <point x="1110" y="1148"/>
      <point x="1013" y="1178"/>
    </contour>
  </outline>
</glyph>
<glyph name="NnnaMatraI.tm" format="2">
  <advance width="1767"/>
  <note>
NnnaMatraI.tm
</note>
  <outline>
    <contour>
      <point x="1257" y="1133" type="line"/>
      <point x="1257" y="0" type="line"/>
      <point x="1292" y="0" type="line"/>
      <point x="1292" y="1133" type="line"/>
    </contour>
    <contour>
      <point x="1280" y="1156" type="line"/>
      <point x="1033" y="1156" type="line" smooth="yes"/>
      <point x="950" y="1156"/>
      <point x="895" y="1141"/>
      <point x="862" y="1124" type="curve"/>
      <point x="858" y="1089" type="line"/>
      <point x="898" y="1111"/>
      <point x="956" y="1124"/>
      <point x="1036" y="1124" type="curve" smooth="yes"/>
      <point x="1280" y="1124" type="line"/>
    </contour>
    <contour>
      <point x="574" y="1178" type="curve" smooth="yes"/>
      <point x="268" y="1178"/>
      <point x="112" y="1018"/>
      <point x="112" y="692" type="curve" smooth="yes"/>
      <point x="112" y="219" type="line" smooth="yes"/>
      <point x="112" y="61"/>
      <point x="171" y="-18"/>
      <point x="291" y="-18" type="curve" smooth="yes"/>
      <point x="410" y="-18"/>
      <point x="468" y="61"/>
      <point x="468" y="219" type="curve" smooth="yes"/>
      <point x="468" y="585" type="line" smooth="yes"/>
      <point x="468" y="729"/>
      <point x="410" y="802"/>
      <point x="304" y="802" type="curve" smooth="yes"/>
      <point x="224" y="802"/>
      <point x="171" y="753"/>
      <point x="147" y="687" type="curve"/>
      <point x="143" y="687" type="line"/>
      <point x="142" y="613" type="line"/>
      <point x="166" y="711"/>
      <point x="221" y="768"/>
      <point x="300" y="768" type="curve" smooth="yes"/>
      <point x="388" y="768"/>
      <point x="433" y="704"/>
      <point x="433" y="583" type="curve" smooth="yes"/>
      <point x="433" y="221" type="line" smooth="yes"/>
      <point x="433" y="79"/>
      <point x="387" y="15"/>
      <point x="291" y="15" type="curve" smooth="yes"/>
      <point x="195" y="15"/>
      <point x="147" y="79"/>
      <point x="147" y="221" type="curve" smooth="yes"/>
      <point x="147" y="687" type="line"/>
      <point x="147" y="687" type="line"/>
      <point x="147" y="689"/>
      <point x="147" y="690"/>
      <point x="147" y="692" type="curve" smooth="yes"/>
      <point x="147" y="994"/>
      <point x="283" y="1144"/>
      <point x="574" y="1144" type="curve" smooth="yes"/>
      <point x="691" y="1144"/>
      <point x="776" y="1119"/>
      <point x="825" y="1087" type="curve"/>
      <point x="830" y="1084" type="line"/>
      <point x="954" y="994"/>
      <point x="983" y="859"/>
      <point x="983" y="615" type="curve" smooth="yes"/>
      <point x="983" y="223" type="line" smooth="yes"/>
      <point x="983" y="79"/>
      <point x="935" y="15"/>
      <point x="838" y="15" type="curve" smooth="yes"/>
      <point x="738" y="15"/>
      <point x="689" y="79"/>
      <point x="689" y="223" type="curve" smooth="yes"/>
      <point x="689" y="615" type="line" smooth="yes"/>
      <point x="689" y="857"/>
      <point x="724" y="994"/>
      <point x="851" y="1084" type="curve"/>
      <point x="823" y="1102" type="line"/>
      <point x="696" y="1010"/>
      <point x="654" y="868"/>
      <point x="654" y="620" type="curve" smooth="yes"/>
      <point x="654" y="221" type="line" smooth="yes"/>
      <point x="654" y="61"/>
      <point x="715" y="-18"/>
      <point x="838" y="-18" type="curve" smooth="yes"/>
      <point x="959" y="-18"/>
      <point x="1018" y="61"/>
      <point x="1018" y="221" type="curve" smooth="yes"/>
      <point x="1018" y="620" type="line" smooth="yes"/>
      <point x="1018" y="868"/>
      <point x="981" y="1012"/>
      <point x="864" y="1098" type="curve"/>
      <point x="862" y="1100" type="line"/>
      <point x="802" y="1144"/>
      <point x="704" y="1178"/>
    </contour>
    <component base="RaBeak_Nonexporting" xOffset="1204"/>
    <component base="MatraIDflt_dummy.tm" xOffset="1217"/>
  </outline>
</glyph>
<glyph name="NnnaMatraU.tm" format="2">
  <advance width="1794"/>
  <note>
NnnaMatraU.tm
</note>
  <guideline x="545" y="528" angle="270"/>
  <guideline x="227" y="528" angle="270"/>
  <outline>
    <contour>
      <point x="1071" y="1178" type="curve" smooth="yes"/>
      <point x="973" y="1178"/>
      <point x="889" y="1152"/>
      <point x="829" y="1115" type="curve"/>
      <point x="854" y="1095" type="line"/>
      <point x="905" y="1124"/>
      <point x="981" y="1146"/>
      <point x="1071" y="1146" type="curve" smooth="yes"/>
      <point x="1252" y="1146"/>
      <point x="1324" y="1058"/>
      <point x="1324" y="881" type="curve" smooth="yes"/>
      <point x="1324" y="804" type="line"/>
      <point x="1324" y="668"/>
      <point x="1286" y="600"/>
      <point x="1168" y="596" type="curve" smooth="yes"/>
      <point x="1102" y="594" type="line"/>
      <point x="1102" y="567" type="line"/>
      <point x="1164" y="565" type="line" smooth="yes"/>
      <point x="1289" y="561"/>
      <point x="1335" y="510"/>
      <point x="1335" y="337" type="curve" smooth="yes"/>
      <point x="1335" y="212" type="line" smooth="yes"/>
      <point x="1335" y="-79"/>
      <point x="1271" y="-201"/>
      <point x="1015" y="-217" type="curve"/>
      <point x="64" y="-217" type="line"/>
      <point x="70" y="-248" type="line"/>
      <point x="1662" y="-248" type="line"/>
      <point x="1662" y="-217" type="line"/>
      <point x="1148" y="-217" type="line"/>
      <point x="1148" y="-215" type="line"/>
      <point x="1317" y="-177"/>
      <point x="1370" y="-53"/>
      <point x="1370" y="210" type="curve" smooth="yes"/>
      <point x="1370" y="339" type="line" smooth="yes"/>
      <point x="1370" y="513"/>
      <point x="1323" y="570"/>
      <point x="1227" y="580" type="curve"/>
      <point x="1227" y="581" type="line"/>
      <point x="1326" y="596"/>
      <point x="1359" y="672"/>
      <point x="1359" y="802" type="curve" smooth="yes"/>
      <point x="1359" y="883" type="line"/>
      <point x="1359" y="1084"/>
      <point x="1274" y="1178"/>
    </contour>
    <contour>
      <point x="1627" y="1156" type="line"/>
      <point x="1627" y="-232" type="line"/>
      <point x="1662" y="-232" type="line"/>
      <point x="1662" y="1156" type="line"/>
    </contour>
    <contour>
      <point x="574" y="1178" type="curve" smooth="yes"/>
      <point x="268" y="1178"/>
      <point x="112" y="1018"/>
      <point x="112" y="692" type="curve" smooth="yes"/>
      <point x="112" y="219" type="line" smooth="yes"/>
      <point x="112" y="61"/>
      <point x="171" y="-18"/>
      <point x="291" y="-18" type="curve" smooth="yes"/>
      <point x="410" y="-18"/>
      <point x="468" y="61"/>
      <point x="468" y="219" type="curve" smooth="yes"/>
      <point x="468" y="585" type="line" smooth="yes"/>
      <point x="468" y="729"/>
      <point x="410" y="802"/>
      <point x="304" y="802" type="curve" smooth="yes"/>
      <point x="224" y="802"/>
      <point x="171" y="753"/>
      <point x="147" y="687" type="curve"/>
      <point x="143" y="687" type="line"/>
      <point x="142" y="613" type="line"/>
      <point x="166" y="711"/>
      <point x="221" y="768"/>
      <point x="300" y="768" type="curve" smooth="yes"/>
      <point x="388" y="768"/>
      <point x="433" y="704"/>
      <point x="433" y="583" type="curve" smooth="yes"/>
      <point x="433" y="221" type="line" smooth="yes"/>
      <point x="433" y="79"/>
      <point x="387" y="15"/>
      <point x="291" y="15" type="curve" smooth="yes"/>
      <point x="195" y="15"/>
      <point x="147" y="79"/>
      <point x="147" y="221" type="curve" smooth="yes"/>
      <point x="147" y="687" type="line"/>
      <point x="147" y="687" type="line"/>
      <point x="147" y="689"/>
      <point x="147" y="690"/>
      <point x="147" y="692" type="curve" smooth="yes"/>
      <point x="147" y="994"/>
      <point x="283" y="1144"/>
      <point x="574" y="1144" type="curve" smooth="yes"/>
      <point x="691" y="1144"/>
      <point x="776" y="1119"/>
      <point x="825" y="1087" type="curve"/>
      <point x="830" y="1084" type="line"/>
      <point x="954" y="994"/>
      <point x="983" y="859"/>
      <point x="983" y="615" type="curve" smooth="yes"/>
      <point x="983" y="223" type="line" smooth="yes"/>
      <point x="983" y="79"/>
      <point x="935" y="15"/>
      <point x="838" y="15" type="curve" smooth="yes"/>
      <point x="738" y="15"/>
      <point x="689" y="79"/>
      <point x="689" y="223" type="curve" smooth="yes"/>
      <point x="689" y="615" type="line" smooth="yes"/>
      <point x="689" y="857"/>
      <point x="724" y="994"/>
      <point x="851" y="1084" type="curve"/>
      <point x="823" y="1102" type="line"/>
      <point x="696" y="1010"/>
      <point x="654" y="868"/>
      <point x="654" y="620" type="curve" smooth="yes"/>
      <point x="654" y="221" type="line" smooth="yes"/>
      <point x="654" y="61"/>
      <point x="715" y="-18"/>
      <point x="838" y="-18" type="curve" smooth="yes"/>
      <point x="959" y="-18"/>
      <point x="1018" y="61"/>
      <point x="1018" y="221" type="curve" smooth="yes"/>
      <point x="1018" y="620" type="line" smooth="yes"/>
      <point x="1018" y="868"/>
      <point x="981" y="1012"/>
      <point x="864" y="1098" type="curve"/>
      <point x="862" y="1100" type="line"/>
      <point x="802" y="1144"/>
      <point x="704" y="1178"/>
    </contour>
  </outline>
</glyph>
<glyph name="NoTail_NonExporting" format="2">
  <advance width="350"/>
  <outline>
    <contour>
      <point x="313" y="-217" type="line"/>
      <point x="0" y="-217" type="line"/>
      <point x="6" y="-248" type="line"/>
      <point x="313" y="-248" type="line"/>
    </contour>
  </outline>
</glyph>
<glyph name="NyaMatraU.tm" format="2">
  <advance width="1483"/>
  <note>
NyaMatraU.tm
</note>
  <guideline x="-124" y="-315" angle="90"/>
  <guideline x="221" y="-315" angle="90"/>
  <outline>
    <contour>
      <point x="686" y="1139" type="line"/>
      <point x="686" y="0" type="line"/>
      <point x="721" y="0" type="line"/>
      <point x="721" y="1139" type="line"/>
    </contour>
    <contour>
      <point x="890" y="794" type="curve" smooth="yes"/>
      <point x="797" y="794"/>
      <point x="743" y="740"/>
      <point x="721" y="664" type="curve"/>
      <point x="710" y="664" type="line"/>
      <point x="710" y="561" type="line"/>
      <point x="716" y="561" type="line"/>
      <point x="732" y="681"/>
      <point x="784" y="760"/>
      <point x="885" y="760" type="curve" smooth="yes"/>
      <point x="999" y="760"/>
      <point x="1033" y="675"/>
      <point x="1033" y="517" type="curve" smooth="yes"/>
      <point x="1033" y="212" type="line" smooth="yes"/>
      <point x="1033" y="-78"/>
      <point x="956" y="-198"/>
      <point x="732" y="-216" type="curve"/>
      <point x="64" y="-216" type="line"/>
      <point x="70" y="-248" type="line"/>
      <point x="1351" y="-248" type="line"/>
      <point x="1351" y="-216" type="line"/>
      <point x="857" y="-216" type="line"/>
      <point x="857" y="-214" type="line"/>
      <point x="1000" y="-176"/>
      <point x="1068" y="-52"/>
      <point x="1068" y="210" type="curve" smooth="yes"/>
      <point x="1068" y="523" type="line" smooth="yes"/>
      <point x="1068" y="703"/>
      <point x="1015" y="794"/>
    </contour>
    <contour>
      <point x="1316" y="1156" type="line"/>
      <point x="1316" y="-232" type="line"/>
      <point x="1351" y="-232" type="line"/>
      <point x="1351" y="1156" type="line"/>
    </contour>
    <contour>
      <point x="835" y="1156" type="line"/>
      <point x="577" y="1156" type="line"/>
      <point x="577" y="1124" type="line"/>
      <point x="835" y="1124" type="line"/>
    </contour>
    <component base="VowelE_NonExporting" xOffset="2"/>
    <component base="RaBeak_Nonexporting" xOffset="718"/>
  </outline>
</glyph>
<glyph name="Nya_Simple.tm" format="2">
  <advance width="1480"/>
  <note>
Nya.tm
</note>
  <anchor x="764" y="1236" name="top"/>
  <outline>
    <contour>
      <point x="1002" y="1139" type="line"/>
      <point x="1002" y="0" type="line"/>
      <point x="1037" y="0" type="line"/>
      <point x="1037" y="1139" type="line"/>
    </contour>
    <contour>
      <point x="1206" y="794" type="curve" smooth="yes"/>
      <point x="1113" y="794"/>
      <point x="1059" y="740"/>
      <point x="1037" y="664" type="curve"/>
      <point x="1026" y="664" type="line"/>
      <point x="1026" y="561" type="line"/>
      <point x="1032" y="561" type="line"/>
      <point x="1048" y="681"/>
      <point x="1100" y="760"/>
      <point x="1201" y="760" type="curve" smooth="yes"/>
      <point x="1315" y="760"/>
      <point x="1349" y="675"/>
      <point x="1349" y="517" type="curve" smooth="yes"/>
      <point x="1349" y="333" type="line" smooth="yes"/>
      <point x="1349" y="-176"/>
      <point x="1175" y="-354"/>
      <point x="787" y="-354" type="curve" smooth="yes"/>
      <point x="787" y="-354" type="line" smooth="yes"/>
      <point x="380" y="-354"/>
      <point x="163" y="-161"/>
      <point x="163" y="357" type="curve" smooth="yes"/>
      <point x="163" y="721"/>
      <point x="163" y="935"/>
      <point x="163" y="1156" type="curve"/>
      <point x="128" y="1156" type="line"/>
      <point x="128" y="942"/>
      <point x="128" y="727"/>
      <point x="128" y="353" type="curve" smooth="yes"/>
      <point x="128" y="-178"/>
      <point x="360" y="-388"/>
      <point x="787" y="-388" type="curve" smooth="yes"/>
      <point x="787" y="-388" type="line" smooth="yes"/>
      <point x="1201" y="-388"/>
      <point x="1384" y="-191"/>
      <point x="1384" y="329" type="curve" smooth="yes"/>
      <point x="1384" y="523" type="line" smooth="yes"/>
      <point x="1384" y="703"/>
      <point x="1331" y="794"/>
    </contour>
    <contour>
      <point x="1163" y="1156" type="line"/>
      <point x="858" y="1156" type="line"/>
      <point x="858" y="1124" type="line"/>
      <point x="1163" y="1124" type="line"/>
    </contour>
    <component base="VowelE_NonExporting" xOffset="318"/>
    <component base="RaBeak_Nonexporting" xOffset="1034"/>
  </outline>
</glyph>
<glyph name="PaMatraI_SimpleFly.tm" format="2">
  <advance width="726"/>
  <note>
PaMatraI.tm
</note>
  <outline>
    <contour>
      <point x="698" y="1459" type="line"/>
      <point x="520" y="1459" type="line" smooth="yes"/>
      <point x="399" y="1459"/>
      <point x="362" y="1409"/>
      <point x="362" y="1328" type="curve" smooth="yes"/>
      <point x="362" y="1297"/>
      <point x="371" y="1248"/>
      <point x="384" y="1205" type="curve" smooth="yes"/>
      <point x="402" y="1142"/>
      <point x="419" y="1124"/>
      <point x="503" y="1124" type="curve" smooth="yes"/>
      <point x="562" y="1124" type="line"/>
      <point x="562" y="1156" type="line"/>
      <point x="503" y="1156" type="line" smooth="yes"/>
      <point x="443" y="1156"/>
      <point x="432" y="1163"/>
      <point x="417" y="1214" type="curve" smooth="yes"/>
      <point x="406" y="1251"/>
      <point x="397" y="1299"/>
      <point x="397" y="1323" type="curve" smooth="yes"/>
      <point x="397" y="1385"/>
      <point x="417" y="1426"/>
      <point x="520" y="1426" type="curve" smooth="yes"/>
      <point x="704" y="1426" type="line"/>
    </contour>
    <contour>
      <point x="559" y="1156" type="line"/>
      <point x="559" y="34" type="line"/>
      <point x="292" y="34" type="line"/>
      <point x="292" y="0" type="line"/>
      <point x="594" y="0" type="line"/>
      <point x="594" y="1156" type="line"/>
    </contour>
    <contour>
      <point x="167" y="1156" type="line"/>
      <point x="132" y="1156" type="line"/>
      <point x="132" y="0" type="line"/>
      <point x="472" y="0" type="line"/>
      <point x="472" y="34" type="line"/>
      <point x="167" y="34" type="line"/>
    </contour>
  </outline>
</glyph>
<glyph name="PaMatraU.tm" format="2">
  <advance width="726"/>
  <note>
PaMatraU.tm
</note>
  <anchor x="363" y="1236" name="top"/>
  <outline>
    <contour>
      <point x="559" y="202" type="line"/>
      <point x="559" y="-272" type="line"/>
      <point x="594" y="-272" type="line"/>
      <point x="594" y="202" type="line"/>
    </contour>
    <component base="Pa_dummy.tm"/>
  </outline>
</glyph>
<glyph name="PaMatraUu_SimpleUu.tm" format="2">
  <advance width="885"/>
  <note>
PaMatraUu.tm
</note>
  <anchor x="363" y="1236" name="top"/>
  <outline>
    <contour>
      <point x="559" y="118" type="line"/>
      <point x="559" y="-250" type="line"/>
      <point x="594" y="-250" type="line"/>
      <point x="594" y="118" type="line"/>
    </contour>
    <contour>
      <point x="730" y="178" type="curve" smooth="yes"/>
      <point x="654" y="178"/>
      <point x="612" y="128"/>
      <point x="594" y="75" type="curve"/>
      <point x="583" y="75" type="line"/>
      <point x="583" y="-26" type="line"/>
      <point x="588" y="-26" type="line"/>
      <point x="603" y="77"/>
      <point x="645" y="145"/>
      <point x="728" y="145" type="curve" smooth="yes"/>
      <point x="814" y="145"/>
      <point x="840" y="79"/>
      <point x="840" y="-42" type="curve" smooth="yes"/>
      <point x="840" y="-88" type="line" smooth="yes"/>
      <point x="840" y="-349"/>
      <point x="711" y="-447"/>
      <point x="482" y="-447" type="curve" smooth="yes"/>
      <point x="268" y="-447"/>
      <point x="136" y="-363"/>
      <point x="136" y="-245" type="curve" smooth="yes"/>
      <point x="136" y="-168"/>
      <point x="189" y="-139"/>
      <point x="263" y="-139" type="curve" smooth="yes"/>
      <point x="322" y="-139"/>
      <point x="360" y="-152"/>
      <point x="395" y="-167" type="curve"/>
      <point x="391" y="-131" type="line"/>
      <point x="368" y="-121"/>
      <point x="327" y="-107"/>
      <point x="261" y="-107" type="curve" smooth="yes"/>
      <point x="167" y="-107"/>
      <point x="101" y="-151"/>
      <point x="101" y="-245" type="curve" smooth="yes"/>
      <point x="101" y="-383"/>
      <point x="245" y="-480"/>
      <point x="482" y="-480" type="curve" smooth="yes"/>
      <point x="733" y="-480"/>
      <point x="875" y="-368"/>
      <point x="875" y="-88" type="curve" smooth="yes"/>
      <point x="875" y="-37" type="line" smooth="yes"/>
      <point x="875" y="106"/>
      <point x="831" y="178"/>
    </contour>
    <component base="Pa_dummy.tm"/>
  </outline>
</glyph>
<glyph name="Pa_dummy.tm" format="2">
  <advance width="726"/>
  <note>
Pa.tm
</note>
  <anchor x="363" y="1236" name="top"/>
  <outline>
    <contour>
      <point x="559" y="1156" type="line"/>
      <point x="559" y="34" type="line"/>
      <point x="272" y="34" type="line"/>
      <point x="272" y="0" type="line"/>
      <point x="594" y="0" type="line"/>
      <point x="594" y="1156" type="line"/>
    </contour>
    <contour>
      <point x="167" y="1156" type="line"/>
      <point x="132" y="1156" type="line"/>
      <point x="132" y="0" type="line"/>
      <point x="472" y="0" type="line"/>
      <point x="472" y="34" type="line"/>
      <point x="167" y="34" type="line"/>
    </contour>
  </outline>
</glyph>
<glyph name="Ra_dummy.tm" format="2">
  <advance width="681"/>
  <note>
Ra.tm
</note>
  <anchor x="330" y="1236" name="top"/>
  <outline>
    <contour>
      <point x="527" y="1133" type="line"/>
      <point x="492" y="1133" type="line"/>
      <point x="492" y="-82" type="line"/>
      <point x="82" y="-169" type="line"/>
      <point x="82" y="-201" type="line"/>
      <point x="527" y="-110" type="line"/>
    </contour>
    <contour>
      <point x="526" y="1156" type="line"/>
      <point x="132" y="1156" type="line"/>
      <point x="132" y="0" type="line"/>
      <point x="167" y="0" type="line"/>
      <point x="167" y="1124" type="line"/>
      <point x="526" y="1124" type="line"/>
    </contour>
    <component base="RaBeak_Nonexporting" xOffset="431"/>
  </outline>
</glyph>
<glyph name="RraMatraAa_Simple.tm" format="2">
  <advance width="1286"/>
  <outline>
    <contour>
      <point x="128" y="1156" type="line"/>
      <point x="128" y="946"/>
      <point x="128" y="736"/>
      <point x="128" y="304" type="curve" smooth="yes"/>
      <point x="128" y="-142"/>
      <point x="301" y="-350"/>
      <point x="688" y="-350" type="curve" smooth="yes"/>
      <point x="688" y="-350" type="line" smooth="yes"/>
      <point x="1045" y="-350"/>
      <point x="1184" y="-171"/>
      <point x="1184" y="245" type="curve" smooth="yes"/>
      <point x="1184" y="342" type="line" smooth="yes"/>
      <point x="1184" y="526"/>
      <point x="1134" y="587"/>
      <point x="1037" y="598" type="curve"/>
      <point x="1037" y="600" type="line"/>
      <point x="1137" y="615"/>
      <point x="1173" y="692"/>
      <point x="1173" y="821" type="curve" smooth="yes"/>
      <point x="1173" y="928" type="line" smooth="yes"/>
      <point x="1173" y="1091"/>
      <point x="1109" y="1174"/>
      <point x="983" y="1174" type="curve" smooth="yes"/>
      <point x="865" y="1174"/>
      <point x="806" y="1104"/>
      <point x="798" y="990" type="curve"/>
      <point x="796" y="990" type="line"/>
      <point x="789" y="1104"/>
      <point x="743" y="1174"/>
      <point x="624" y="1174" type="curve" smooth="yes"/>
      <point x="499" y="1174"/>
      <point x="439" y="1096"/>
      <point x="439" y="943" type="curve" smooth="yes"/>
      <point x="439" y="0" type="line"/>
      <point x="474" y="0" type="line"/>
      <point x="474" y="939" type="line" smooth="yes"/>
      <point x="474" y="1075"/>
      <point x="522" y="1140"/>
      <point x="624" y="1140" type="curve" smooth="yes"/>
      <point x="736" y="1140"/>
      <point x="778" y="1068"/>
      <point x="778" y="939" type="curve"/>
      <point x="778" y="0" type="line"/>
      <point x="813" y="0" type="line"/>
      <point x="813" y="922" type="line" smooth="yes"/>
      <point x="813" y="1070"/>
      <point x="868" y="1140"/>
      <point x="981" y="1140" type="curve" smooth="yes"/>
      <point x="1087" y="1140"/>
      <point x="1138" y="1070"/>
      <point x="1138" y="924" type="curve" smooth="yes"/>
      <point x="1138" y="822" type="line" smooth="yes"/>
      <point x="1138" y="688"/>
      <point x="1100" y="619"/>
      <point x="982" y="615" type="curve" smooth="yes"/>
      <point x="926" y="613" type="line"/>
      <point x="926" y="585" type="line"/>
      <point x="978" y="583" type="line" smooth="yes"/>
      <point x="1102" y="578"/>
      <point x="1149" y="523"/>
      <point x="1149" y="340" type="curve" smooth="yes"/>
      <point x="1149" y="245" type="line" smooth="yes"/>
      <point x="1149" y="-153"/>
      <point x="1019" y="-316"/>
      <point x="688" y="-316" type="curve" smooth="yes"/>
      <point x="688" y="-316" type="line" smooth="yes"/>
      <point x="325" y="-316"/>
      <point x="163" y="-123"/>
      <point x="163" y="304" type="curve" smooth="yes"/>
      <point x="163" y="729"/>
      <point x="163" y="938"/>
      <point x="163" y="1156" type="curve"/>
    </contour>
  </outline>
</glyph>
<glyph name="RraMatraIi.tm" format="2">
  <advance width="981"/>
  <note>
RraMatraIi.tm
</note>
  <anchor x="495" y="1236" name="top"/>
  <outline>
    <contour>
      <point x="790" y="1726" type="curve" smooth="yes"/>
      <point x="699" y="1726"/>
      <point x="649" y="1665"/>
      <point x="649" y="1561" type="curve" smooth="yes"/>
      <point x="649" y="1322" type="line" smooth="yes"/>
      <point x="649" y="1239"/>
      <point x="660" y="1196"/>
      <point x="697" y="1164" type="curve"/>
      <point x="736" y="1164" type="line"/>
      <point x="693" y="1199"/>
      <point x="683" y="1235"/>
      <point x="683" y="1322" type="curve" smooth="yes"/>
      <point x="683" y="1407" type="line"/>
      <point x="683" y="1559" type="line" smooth="yes"/>
      <point x="683" y="1647"/>
      <point x="720" y="1693"/>
      <point x="790" y="1693" type="curve" smooth="yes"/>
      <point x="862" y="1693"/>
      <point x="888" y="1647"/>
      <point x="888" y="1563" type="curve" smooth="yes"/>
      <point x="888" y="1458" type="line" smooth="yes"/>
      <point x="888" y="1381"/>
      <point x="861" y="1337"/>
      <point x="795" y="1337" type="curve" smooth="yes"/>
      <point x="738" y="1337"/>
      <point x="696" y="1372"/>
      <point x="679" y="1421" type="curve"/>
      <point x="678" y="1421" type="line"/>
      <point x="678" y="1388" type="line"/>
      <point x="681" y="1388" type="line"/>
      <point x="700" y="1351" type="line"/>
      <point x="714" y="1328"/>
      <point x="751" y="1304"/>
      <point x="799" y="1304" type="curve" smooth="yes"/>
      <point x="889" y="1304"/>
      <point x="922" y="1365"/>
      <point x="922" y="1456" type="curve" smooth="yes"/>
      <point x="922" y="1565" type="line" smooth="yes"/>
      <point x="922" y="1665"/>
      <point x="886" y="1726"/>
    </contour>
    <component base="Rra.tm"/>
  </outline>
</glyph>
<glyph name="SaMatraIi.tm" format="2">
  <advance width="1513"/>
  <note>
SaMatraIi.tm
</note>
  <outline>
    <contour>
      <point x="431" y="1174" type="curve" smooth="yes"/>
      <point x="223" y="1174"/>
      <point x="116" y="1034"/>
      <point x="116" y="771" type="curve" smooth="yes"/>
      <point x="116" y="219" type="line" smooth="yes"/>
      <point x="116" y="61"/>
      <point x="175" y="-18"/>
      <point x="295" y="-18" type="curve" smooth="yes"/>
      <point x="414" y="-18"/>
      <point x="472" y="61"/>
      <point x="472" y="219" type="curve" smooth="yes"/>
      <point x="472" y="585" type="line" smooth="yes"/>
      <point x="472" y="729"/>
      <point x="414" y="802"/>
      <point x="308" y="802" type="curve" smooth="yes"/>
      <point x="228" y="802"/>
      <point x="175" y="753"/>
      <point x="151" y="687" type="curve"/>
      <point x="147" y="687" type="line"/>
      <point x="146" y="613" type="line"/>
      <point x="170" y="711"/>
      <point x="225" y="768"/>
      <point x="304" y="768" type="curve" smooth="yes"/>
      <point x="392" y="768"/>
      <point x="437" y="704"/>
      <point x="437" y="583" type="curve" smooth="yes"/>
      <point x="437" y="221" type="line" smooth="yes"/>
      <point x="437" y="79"/>
      <point x="391" y="15"/>
      <point x="295" y="15" type="curve" smooth="yes"/>
      <point x="199" y="15"/>
      <point x="151" y="79"/>
      <point x="151" y="221" type="curve"/>
      <point x="151" y="687" type="line"/>
      <point x="151" y="687" type="line"/>
      <point x="151" y="717"/>
      <point x="151" y="743"/>
      <point x="151" y="771" type="curve" smooth="yes"/>
      <point x="151" y="1009"/>
      <point x="242" y="1140"/>
      <point x="431" y="1140" type="curve" smooth="yes"/>
      <point x="630" y="1140"/>
      <point x="691" y="998"/>
      <point x="691" y="738" type="curve" smooth="yes"/>
      <point x="691" y="0" type="line"/>
      <point x="726" y="0" type="line"/>
      <point x="726" y="921" type="line" smooth="yes"/>
      <point x="726" y="1072"/>
      <point x="770" y="1140"/>
      <point x="878" y="1140" type="curve" smooth="yes"/>
      <point x="977" y="1140"/>
      <point x="1023" y="1074"/>
      <point x="1023" y="938" type="curve" smooth="yes"/>
      <point x="1023" y="225" type="line" smooth="yes"/>
      <point x="1023" y="62"/>
      <point x="1084" y="-18"/>
      <point x="1210" y="-18" type="curve" smooth="yes"/>
      <point x="1337" y="-18"/>
      <point x="1396" y="62"/>
      <point x="1396" y="225" type="curve" smooth="yes"/>
      <point x="1396" y="920" type="line" smooth="yes"/>
      <point x="1396" y="1084"/>
      <point x="1340" y="1174"/>
      <point x="1193" y="1174" type="curve" smooth="yes"/>
      <point x="1180" y="1174"/>
      <point x="1168" y="1172"/>
      <point x="1164" y="1171" type="curve"/>
      <point x="1172" y="1166" type="line"/>
      <point x="1172" y="1394" type="line"/>
      <point x="1172" y="1407" type="line"/>
      <point x="1172" y="1559" type="line" smooth="yes"/>
      <point x="1172" y="1647"/>
      <point x="1209" y="1693"/>
      <point x="1279" y="1693" type="curve" smooth="yes"/>
      <point x="1351" y="1693"/>
      <point x="1377" y="1647"/>
      <point x="1377" y="1563" type="curve" smooth="yes"/>
      <point x="1377" y="1458" type="line" smooth="yes"/>
      <point x="1377" y="1381"/>
      <point x="1350" y="1337"/>
      <point x="1284" y="1337" type="curve" smooth="yes"/>
      <point x="1227" y="1337"/>
      <point x="1185" y="1372"/>
      <point x="1168" y="1421" type="curve"/>
      <point x="1167" y="1421" type="line"/>
      <point x="1167" y="1388" type="line"/>
      <point x="1170" y="1388" type="line"/>
      <point x="1189" y="1351" type="line"/>
      <point x="1203" y="1328"/>
      <point x="1240" y="1304"/>
      <point x="1288" y="1304" type="curve" smooth="yes"/>
      <point x="1378" y="1304"/>
      <point x="1411" y="1365"/>
      <point x="1411" y="1456" type="curve" smooth="yes"/>
      <point x="1411" y="1565" type="line" smooth="yes"/>
      <point x="1411" y="1665"/>
      <point x="1375" y="1726"/>
      <point x="1279" y="1726" type="curve" smooth="yes"/>
      <point x="1188" y="1726"/>
      <point x="1138" y="1665"/>
      <point x="1138" y="1561" type="curve"/>
      <point x="1138" y="1137" type="line"/>
      <point x="1152" y="1139"/>
      <point x="1169" y="1141"/>
      <point x="1189" y="1141" type="curve" smooth="yes"/>
      <point x="1321" y="1141"/>
      <point x="1361" y="1065"/>
      <point x="1361" y="920" type="curve" smooth="yes"/>
      <point x="1361" y="227" type="line" smooth="yes"/>
      <point x="1361" y="82"/>
      <point x="1313" y="15"/>
      <point x="1210" y="15" type="curve" smooth="yes"/>
      <point x="1106" y="15"/>
      <point x="1058" y="82"/>
      <point x="1058" y="227" type="curve" smooth="yes"/>
      <point x="1058" y="939" type="line" smooth="yes"/>
      <point x="1058" y="1095"/>
      <point x="999" y="1174"/>
      <point x="878" y="1174" type="curve" smooth="yes"/>
      <point x="756" y="1174"/>
      <point x="702" y="1097"/>
      <point x="702" y="939" type="curve" smooth="yes"/>
      <point x="702" y="893" type="line"/>
      <point x="700" y="893" type="line"/>
      <point x="686" y="1076"/>
      <point x="599" y="1174"/>
    </contour>
  </outline>
</glyph>
<glyph name="SaMatraIi_SimpleIi.tm" format="2">
  <advance width="1514"/>
  <note>
SaMatraIi.tm
</note>
  <outline>
    <contour>
      <point x="1173" y="1450" type="line" smooth="yes"/>
      <point x="1173" y="1602"/>
      <point x="1220" y="1690"/>
      <point x="1343" y="1695" type="curve"/>
      <point x="1346" y="1695" type="line"/>
      <point x="1350" y="1695"/>
      <point x="1351" y="1695"/>
      <point x="1352" y="1695" type="curve" smooth="yes"/>
      <point x="1482" y="1695"/>
      <point x="1523" y="1619"/>
      <point x="1523" y="1472" type="curve" smooth="yes"/>
      <point x="1523" y="1426" type="line" smooth="yes"/>
      <point x="1523" y="1335"/>
      <point x="1490" y="1293"/>
      <point x="1426" y="1293" type="curve" smooth="yes"/>
      <point x="1362" y="1293"/>
      <point x="1328" y="1335"/>
      <point x="1328" y="1426" type="curve" smooth="yes"/>
      <point x="1328" y="1516" type="line" smooth="yes"/>
      <point x="1328" y="1610"/>
      <point x="1344" y="1665"/>
      <point x="1389" y="1702" type="curve"/>
      <point x="1343" y="1702" type="line"/>
      <point x="1343" y="1695" type="line"/>
      <point x="1312" y="1661"/>
      <point x="1294" y="1609"/>
      <point x="1294" y="1514" type="curve" smooth="yes"/>
      <point x="1294" y="1424" type="line" smooth="yes"/>
      <point x="1294" y="1316"/>
      <point x="1340" y="1260"/>
      <point x="1426" y="1260" type="curve" smooth="yes"/>
      <point x="1513" y="1260"/>
      <point x="1557" y="1314"/>
      <point x="1557" y="1422" type="curve" smooth="yes"/>
      <point x="1557" y="1476" type="line" smooth="yes"/>
      <point x="1557" y="1638"/>
      <point x="1503" y="1726"/>
      <point x="1352" y="1726" type="curve" smooth="yes"/>
      <point x="1205" y="1726"/>
      <point x="1139" y="1630"/>
      <point x="1139" y="1454" type="curve" smooth="yes"/>
      <point x="1139" y="1233" type="line" smooth="yes"/>
      <point x="1139" y="1202"/>
      <point x="1139" y="1169"/>
      <point x="1139" y="1136" type="curve"/>
      <point x="1153" y="1138"/>
      <point x="1170" y="1141"/>
      <point x="1190" y="1141" type="curve" smooth="yes"/>
      <point x="1321" y="1141"/>
      <point x="1361" y="1064"/>
      <point x="1361" y="920" type="curve" smooth="yes"/>
      <point x="1361" y="227" type="line" smooth="yes"/>
      <point x="1361" y="82"/>
      <point x="1313" y="15"/>
      <point x="1210" y="15" type="curve" smooth="yes"/>
      <point x="1106" y="15"/>
      <point x="1058" y="82"/>
      <point x="1058" y="227" type="curve" smooth="yes"/>
      <point x="1058" y="939" type="line" smooth="yes"/>
      <point x="1058" y="1095"/>
      <point x="999" y="1174"/>
      <point x="878" y="1174" type="curve" smooth="yes"/>
      <point x="756" y="1174"/>
      <point x="702" y="1097"/>
      <point x="702" y="939" type="curve" smooth="yes"/>
      <point x="702" y="893" type="line"/>
      <point x="700" y="893" type="line"/>
      <point x="686" y="1076"/>
      <point x="599" y="1174"/>
      <point x="431" y="1174" type="curve" smooth="yes"/>
      <point x="223" y="1174"/>
      <point x="116" y="1034"/>
      <point x="116" y="771" type="curve" smooth="yes"/>
      <point x="116" y="219" type="line" smooth="yes"/>
      <point x="116" y="61"/>
      <point x="175" y="-18"/>
      <point x="295" y="-18" type="curve" smooth="yes"/>
      <point x="414" y="-18"/>
      <point x="472" y="61"/>
      <point x="472" y="219" type="curve" smooth="yes"/>
      <point x="472" y="585" type="line" smooth="yes"/>
      <point x="472" y="729"/>
      <point x="414" y="802"/>
      <point x="308" y="802" type="curve" smooth="yes"/>
      <point x="228" y="802"/>
      <point x="175" y="753"/>
      <point x="151" y="687" type="curve"/>
      <point x="147" y="687" type="line"/>
      <point x="146" y="613" type="line"/>
      <point x="170" y="711"/>
      <point x="225" y="768"/>
      <point x="304" y="768" type="curve" smooth="yes"/>
      <point x="392" y="768"/>
      <point x="437" y="704"/>
      <point x="437" y="583" type="curve" smooth="yes"/>
      <point x="437" y="221" type="line" smooth="yes"/>
      <point x="437" y="79"/>
      <point x="391" y="15"/>
      <point x="295" y="15" type="curve" smooth="yes"/>
      <point x="199" y="15"/>
      <point x="151" y="79"/>
      <point x="151" y="221" type="curve"/>
      <point x="151" y="687" type="line"/>
      <point x="151" y="687" type="line"/>
      <point x="151" y="717"/>
      <point x="151" y="743"/>
      <point x="151" y="771" type="curve" smooth="yes"/>
      <point x="151" y="1009"/>
      <point x="242" y="1140"/>
      <point x="431" y="1140" type="curve" smooth="yes"/>
      <point x="630" y="1140"/>
      <point x="691" y="998"/>
      <point x="691" y="738" type="curve" smooth="yes"/>
      <point x="691" y="0" type="line"/>
      <point x="726" y="0" type="line"/>
      <point x="726" y="921" type="line" smooth="yes"/>
      <point x="726" y="1072"/>
      <point x="770" y="1140"/>
      <point x="878" y="1140" type="curve" smooth="yes"/>
      <point x="977" y="1140"/>
      <point x="1023" y="1074"/>
      <point x="1023" y="938" type="curve" smooth="yes"/>
      <point x="1023" y="225" type="line" smooth="yes"/>
      <point x="1023" y="62"/>
      <point x="1084" y="-18"/>
      <point x="1210" y="-18" type="curve" smooth="yes"/>
      <point x="1337" y="-18"/>
      <point x="1396" y="62"/>
      <point x="1396" y="225" type="curve" smooth="yes"/>
      <point x="1396" y="920" type="line" smooth="yes"/>
      <point x="1396" y="1085"/>
      <point x="1340" y="1174"/>
      <point x="1194" y="1174" type="curve" smooth="yes"/>
      <point x="1181" y="1174"/>
      <point x="1169" y="1172"/>
      <point x="1165" y="1171" type="curve"/>
      <point x="1173" y="1166" type="line"/>
      <point x="1173" y="1187"/>
      <point x="1173" y="1206"/>
      <point x="1173" y="1228" type="curve" smooth="yes"/>
    </contour>
  </outline>
</glyph>
<glyph name="ShaMatraI.tm" format="2">
  <advance width="1584"/>
  <note>
ShaMatraI.tm
</note>
  <anchor x="643" y="1236" name="top"/>
  <outline>
    <contour>
      <point x="1271" y="1616" type="curve" smooth="yes"/>
      <point x="1140" y="1616"/>
      <point x="1084" y="1537"/>
      <point x="1084" y="1364" type="curve" smooth="yes"/>
      <point x="1084" y="1315" type="line" smooth="yes"/>
      <point x="1084" y="1245"/>
      <point x="1092" y="1197"/>
      <point x="1119" y="1156" type="curve"/>
      <point x="1156" y="1156" type="line"/>
      <point x="1126" y="1200"/>
      <point x="1119" y="1240"/>
      <point x="1119" y="1315" type="curve" smooth="yes"/>
      <point x="1119" y="1359" type="line" smooth="yes"/>
      <point x="1119" y="1514"/>
      <point x="1159" y="1583"/>
      <point x="1271" y="1583" type="curve" smooth="yes"/>
      <point x="1380" y="1583"/>
      <point x="1417" y="1518"/>
      <point x="1417" y="1370" type="curve" smooth="yes"/>
      <point x="1417" y="0" type="line"/>
      <point x="1452" y="0" type="line"/>
      <point x="1452" y="1375" type="line" smooth="yes"/>
      <point x="1452" y="1541"/>
      <point x="1399" y="1616"/>
    </contour>
    <component base="Sha_dummy.tm"/>
  </outline>
</glyph>
<glyph name="ShaMatraIi_SimpleIi.tm" format="2">
  <advance width="1282"/>
  <note>
ShaMatraIi.tm
</note>
  <anchor x="643" y="1236" name="top"/>
  <outline>
    <contour>
      <point x="1108" y="1450" type="line" smooth="yes"/>
      <point x="1108" y="1602"/>
      <point x="1155" y="1690"/>
      <point x="1278" y="1695" type="curve"/>
      <point x="1281" y="1695" type="line"/>
      <point x="1285" y="1695"/>
      <point x="1286" y="1695"/>
      <point x="1287" y="1695" type="curve" smooth="yes"/>
      <point x="1417" y="1695"/>
      <point x="1458" y="1619"/>
      <point x="1458" y="1472" type="curve" smooth="yes"/>
      <point x="1458" y="1426" type="line" smooth="yes"/>
      <point x="1458" y="1335"/>
      <point x="1425" y="1293"/>
      <point x="1361" y="1293" type="curve" smooth="yes"/>
      <point x="1297" y="1293"/>
      <point x="1263" y="1335"/>
      <point x="1263" y="1426" type="curve" smooth="yes"/>
      <point x="1263" y="1516" type="line" smooth="yes"/>
      <point x="1263" y="1610"/>
      <point x="1279" y="1665"/>
      <point x="1324" y="1702" type="curve"/>
      <point x="1278" y="1702" type="line"/>
      <point x="1278" y="1695" type="line"/>
      <point x="1247" y="1661"/>
      <point x="1229" y="1609"/>
      <point x="1229" y="1514" type="curve" smooth="yes"/>
      <point x="1229" y="1424" type="line" smooth="yes"/>
      <point x="1229" y="1316"/>
      <point x="1275" y="1260"/>
      <point x="1361" y="1260" type="curve" smooth="yes"/>
      <point x="1448" y="1260"/>
      <point x="1492" y="1314"/>
      <point x="1492" y="1422" type="curve" smooth="yes"/>
      <point x="1492" y="1476" type="line" smooth="yes"/>
      <point x="1492" y="1638"/>
      <point x="1438" y="1726"/>
      <point x="1287" y="1726" type="curve" smooth="yes"/>
      <point x="1140" y="1726"/>
      <point x="1074" y="1630"/>
      <point x="1074" y="1454" type="curve" smooth="yes"/>
      <point x="1074" y="1325" type="line" smooth="yes"/>
      <point x="1074" y="1242"/>
      <point x="1084" y="1190"/>
      <point x="1116" y="1156" type="curve"/>
      <point x="1156" y="1156" type="line"/>
      <point x="1117" y="1193"/>
      <point x="1108" y="1235"/>
      <point x="1108" y="1325" type="curve" smooth="yes"/>
    </contour>
    <component base="Sha_dummy.tm"/>
  </outline>
</glyph>
<glyph name="SsaMatraI_Fly.tm" format="2">
  <advance width="1480"/>
  <note>
SsaMatraI.tm
</note>
  <anchor x="831" y="1236" name="top"/>
  <outline>
    <contour>
      <point x="1453" y="1459" type="line"/>
      <point x="1278" y="1459" type="line" smooth="yes"/>
      <point x="1154" y="1459"/>
      <point x="1118" y="1408"/>
      <point x="1118" y="1325" type="curve" smooth="yes"/>
      <point x="1118" y="1295"/>
      <point x="1124" y="1260"/>
      <point x="1144" y="1170" type="curve"/>
      <point x="1177" y="1170" type="line"/>
      <point x="1159" y="1255"/>
      <point x="1152" y="1290"/>
      <point x="1152" y="1319" type="curve" smooth="yes"/>
      <point x="1152" y="1384"/>
      <point x="1173" y="1426"/>
      <point x="1278" y="1426" type="curve" smooth="yes"/>
      <point x="1460" y="1426" type="line"/>
    </contour>
    <component base="Ssa_Simple.tm"/>
  </outline>
</glyph>
<glyph name="SsaMatraI_Simple.tm" format="2">
  <advance width="1763"/>
  <note>
SsaMatraI.tm
</note>
  <anchor x="831" y="1236" name="top"/>
  <outline>
    <contour>
      <point x="1396" y="1616" type="curve" smooth="yes"/>
      <point x="1230" y="1616"/>
      <point x="1153" y="1516"/>
      <point x="1153" y="1324" type="curve" smooth="yes"/>
      <point x="1153" y="1303" type="line" smooth="yes"/>
      <point x="1153" y="1241"/>
      <point x="1162" y="1199"/>
      <point x="1189" y="1162" type="curve"/>
      <point x="1225" y="1162" type="line"/>
      <point x="1196" y="1201"/>
      <point x="1188" y="1236"/>
      <point x="1188" y="1303" type="curve" smooth="yes"/>
      <point x="1188" y="1319" type="line" smooth="yes"/>
      <point x="1188" y="1493"/>
      <point x="1245" y="1583"/>
      <point x="1396" y="1583" type="curve" smooth="yes"/>
      <point x="1544" y="1583"/>
      <point x="1596" y="1493"/>
      <point x="1596" y="1295" type="curve" smooth="yes"/>
      <point x="1596" y="0" type="line"/>
      <point x="1631" y="0" type="line"/>
      <point x="1631" y="1301" type="line" smooth="yes"/>
      <point x="1631" y="1516"/>
      <point x="1559" y="1616"/>
    </contour>
    <component base="Ssa_Simple.tm"/>
  </outline>
</glyph>
<glyph name="SsaMatraIi.tm" format="2">
  <advance width="1481"/>
  <note>
SsaMatraIi.tm
</note>
  <anchor x="831" y="1236" name="top"/>
  <outline>
    <contour>
      <point x="1285" y="1726" type="curve" smooth="yes"/>
      <point x="1194" y="1726"/>
      <point x="1144" y="1665"/>
      <point x="1144" y="1561" type="curve" smooth="yes"/>
      <point x="1144" y="1319" type="line" smooth="yes"/>
      <point x="1144" y="1236"/>
      <point x="1155" y="1193"/>
      <point x="1192" y="1161" type="curve"/>
      <point x="1231" y="1161" type="line"/>
      <point x="1188" y="1196"/>
      <point x="1178" y="1232"/>
      <point x="1178" y="1319" type="curve" smooth="yes"/>
      <point x="1178" y="1407" type="line"/>
      <point x="1178" y="1559" type="line" smooth="yes"/>
      <point x="1178" y="1647"/>
      <point x="1215" y="1693"/>
      <point x="1285" y="1693" type="curve" smooth="yes"/>
      <point x="1357" y="1693"/>
      <point x="1383" y="1647"/>
      <point x="1383" y="1563" type="curve" smooth="yes"/>
      <point x="1383" y="1458" type="line" smooth="yes"/>
      <point x="1383" y="1381"/>
      <point x="1356" y="1337"/>
      <point x="1290" y="1337" type="curve" smooth="yes"/>
      <point x="1233" y="1337"/>
      <point x="1191" y="1372"/>
      <point x="1174" y="1421" type="curve"/>
      <point x="1173" y="1421" type="line"/>
      <point x="1173" y="1388" type="line"/>
      <point x="1176" y="1388" type="line"/>
      <point x="1195" y="1351" type="line"/>
      <point x="1209" y="1328"/>
      <point x="1246" y="1304"/>
      <point x="1294" y="1304" type="curve" smooth="yes"/>
      <point x="1384" y="1304"/>
      <point x="1417" y="1365"/>
      <point x="1417" y="1456" type="curve" smooth="yes"/>
      <point x="1417" y="1565" type="line" smooth="yes"/>
      <point x="1417" y="1665"/>
      <point x="1381" y="1726"/>
    </contour>
    <component base="Ssa.tm"/>
  </outline>
</glyph>
<glyph name="TaMatraU_Simple.tm" format="2">
  <advance width="1201"/>
  <note>
TaMatraU.tm
</note>
  <outline>
    <contour>
      <point x="1034" y="1156" type="line"/>
      <point x="1034" y="-232" type="line"/>
      <point x="1069" y="-232" type="line"/>
      <point x="1069" y="1156" type="line"/>
    </contour>
    <contour>
      <point x="496" y="706" type="line"/>
      <point x="545" y="706" type="line" smooth="yes"/>
      <point x="709" y="706"/>
      <point x="766" y="645"/>
      <point x="766" y="443" type="curve" smooth="yes"/>
      <point x="766" y="210" type="line" smooth="yes"/>
      <point x="766" y="7"/>
      <point x="751" y="-156"/>
      <point x="735" y="-232" type="curve"/>
      <point x="733" y="-240" type="line"/>
      <point x="697" y="-375"/>
      <point x="599" y="-461"/>
      <point x="406" y="-461" type="curve" smooth="yes"/>
      <point x="197" y="-461"/>
      <point x="101" y="-369"/>
      <point x="75" y="-248" type="curve"/>
      <point x="1069" y="-248" type="line"/>
      <point x="1069" y="-216" type="line"/>
      <point x="33" y="-216" type="line"/>
      <point x="59" y="-399"/>
      <point x="186" y="-494"/>
      <point x="406" y="-494" type="curve" smooth="yes"/>
      <point x="617" y="-494"/>
      <point x="730" y="-399"/>
      <point x="770" y="-241" type="curve"/>
      <point x="772" y="-234" type="line"/>
      <point x="788" y="-156"/>
      <point x="801" y="7"/>
      <point x="801" y="210" type="curve" smooth="yes"/>
      <point x="801" y="449" type="line" smooth="yes"/>
      <point x="801" y="661"/>
      <point x="729" y="738"/>
      <point x="549" y="738" type="curve" smooth="yes"/>
      <point x="496" y="738" type="line"/>
    </contour>
    <component base="KaComponent_Nonexporting" xOffset="43"/>
    <component base="KaBeak_Nonexporting" xOffset="527"/>
  </outline>
</glyph>
<glyph name="TtaMatraI_Simple.tm" format="2">
  <advance width="937"/>
  <note>
TtaMatraI.tm
</note>
  <outline>
    <contour>
      <point x="280" y="32" type="line"/>
      <point x="167" y="32" type="line"/>
      <point x="167" y="1156" type="line"/>
      <point x="132" y="1156" type="line"/>
      <point x="132" y="0" type="line"/>
      <point x="280" y="0" type="line"/>
    </contour>
    <component base="Ssa_Above_NonExporting" xOffset="100"/>
    <component base="Ssa_Below_NonExporting" xOffset="465"/>
  </outline>
</glyph>
<glyph name="TtaMatraIi_SimpleIi.tm" format="2">
  <advance width="915"/>
  <note>
TtaMatraIi.tm
</note>
  <outline>
    <contour>
      <point x="167" y="1156" type="line"/>
      <point x="132" y="1156" type="line"/>
      <point x="132" y="0" type="line"/>
      <point x="879" y="0" type="line"/>
      <point x="885" y="34" type="line"/>
      <point x="167" y="34" type="line"/>
    </contour>
    <contour>
      <point x="616" y="751" type="curve" smooth="yes"/>
      <point x="466" y="751"/>
      <point x="399" y="655"/>
      <point x="399" y="479" type="curve" smooth="yes"/>
      <point x="399" y="203" type="line" smooth="yes"/>
      <point x="399" y="119"/>
      <point x="409" y="66"/>
      <point x="440" y="32" type="curve"/>
      <point x="481" y="32" type="line"/>
      <point x="442" y="69"/>
      <point x="433" y="112"/>
      <point x="433" y="203" type="curve" smooth="yes"/>
      <point x="433" y="475" type="line" smooth="yes"/>
      <point x="433" y="627"/>
      <point x="481" y="715"/>
      <point x="607" y="720" type="curve"/>
      <point x="611" y="720" type="line"/>
      <point x="615" y="720"/>
      <point x="615" y="720"/>
      <point x="616" y="720" type="curve" smooth="yes"/>
      <point x="749" y="720"/>
      <point x="791" y="644"/>
      <point x="791" y="497" type="curve" smooth="yes"/>
      <point x="791" y="399" type="line" smooth="yes"/>
      <point x="791" y="305"/>
      <point x="757" y="262"/>
      <point x="690" y="262" type="curve" smooth="yes"/>
      <point x="623" y="262"/>
      <point x="588" y="305"/>
      <point x="588" y="399" type="curve" smooth="yes"/>
      <point x="588" y="541" type="line" smooth="yes"/>
      <point x="588" y="635"/>
      <point x="605" y="690"/>
      <point x="653" y="727" type="curve"/>
      <point x="607" y="727" type="line"/>
      <point x="607" y="720" type="line"/>
      <point x="573" y="686"/>
      <point x="554" y="634"/>
      <point x="554" y="539" type="curve" smooth="yes"/>
      <point x="554" y="397" type="line" smooth="yes"/>
      <point x="554" y="286"/>
      <point x="601" y="229"/>
      <point x="690" y="229" type="curve" smooth="yes"/>
      <point x="780" y="229"/>
      <point x="825" y="284"/>
      <point x="825" y="395" type="curve" smooth="yes"/>
      <point x="825" y="501" type="line" smooth="yes"/>
      <point x="825" y="663"/>
      <point x="770" y="751"/>
    </contour>
  </outline>
</glyph>
<glyph name="TtaMatraU.tm" format="2">
  <advance width="956"/>
  <note>
TtaMatraU.tm
</note>
  <outline>
    <contour>
      <point x="471" y="1156" type="line"/>
      <point x="471" y="0" type="line"/>
      <point x="506" y="0" type="line"/>
      <point x="506" y="1156" type="line"/>
    </contour>
    <contour>
      <point x="846" y="994" type="curve"/>
      <point x="846" y="1338"/>
      <point x="741" y="1492"/>
      <point x="491" y="1492" type="curve" smooth="yes"/>
      <point x="237" y="1492"/>
      <point x="128" y="1336"/>
      <point x="128" y="990" type="curve" smooth="yes"/>
      <point x="128" y="190" type="line" smooth="yes"/>
      <point x="128" y="-158"/>
      <point x="235" y="-313"/>
      <point x="491" y="-313" type="curve" smooth="yes"/>
      <point x="743" y="-313"/>
      <point x="846" y="-160"/>
      <point x="846" y="186" type="curve" smooth="yes"/>
      <point x="846" y="523" type="line" smooth="yes"/>
      <point x="846" y="703"/>
      <point x="794" y="794"/>
      <point x="671" y="794" type="curve" smooth="yes"/>
      <point x="580" y="794"/>
      <point x="527" y="740"/>
      <point x="506" y="664" type="curve"/>
      <point x="495" y="664" type="line"/>
      <point x="495" y="561" type="line"/>
      <point x="501" y="561" type="line"/>
      <point x="517" y="681"/>
      <point x="567" y="760"/>
      <point x="666" y="760" type="curve" smooth="yes"/>
      <point x="778" y="760"/>
      <point x="811" y="675"/>
      <point x="811" y="517" type="curve" smooth="yes"/>
      <point x="811" y="186" type="line" smooth="yes"/>
      <point x="811" y="-141"/>
      <point x="717" y="-279"/>
      <point x="491" y="-279" type="curve" smooth="yes"/>
      <point x="261" y="-279"/>
      <point x="163" y="-139"/>
      <point x="163" y="190" type="curve" smooth="yes"/>
      <point x="163" y="990" type="line" smooth="yes"/>
      <point x="163" y="1316"/>
      <point x="263" y="1458"/>
      <point x="491" y="1458" type="curve" smooth="yes"/>
      <point x="715" y="1458"/>
      <point x="811" y="1318"/>
      <point x="811" y="994" type="curve" smooth="yes"/>
      <point x="811" y="957"/>
      <point x="811" y="920"/>
      <point x="811" y="883" type="curve"/>
      <point x="846" y="883" type="line"/>
      <point x="846" y="920"/>
      <point x="846" y="957"/>
    </contour>
  </outline>
</glyph>
<glyph name="TtaPulli_Half.tm" format="2">
  <advance width="547"/>
  <note>
TtaPulli.tm
</note>
  <outline>
    <contour>
      <point x="167" y="1156" type="line"/>
      <point x="132" y="1156" type="line"/>
      <point x="132" y="0" type="line"/>
      <point x="557" y="0" type="line"/>
      <point x="563" y="34" type="line"/>
      <point x="167" y="34" type="line"/>
    </contour>
    <contour>
      <point x="344" y="506" type="line"/>
      <point x="347" y="506" type="line" smooth="yes"/>
      <point x="382" y="506"/>
      <point x="391" y="526"/>
      <point x="391" y="576" type="curve" smooth="yes"/>
      <point x="391" y="635" type="line" smooth="yes"/>
      <point x="391" y="683"/>
      <point x="379" y="703"/>
      <point x="347" y="703" type="curve" smooth="yes"/>
      <point x="344" y="703" type="line"/>
    </contour>
  </outline>
</glyph>
<glyph name="Tta_dummy.tm" format="2">
  <advance width="587"/>
  <note>
Tta.tm
</note>
  <anchor x="351" y="1236" name="top"/>
  <outline>
    <contour>
      <point x="167" y="1156" type="line"/>
      <point x="132" y="1156" type="line"/>
      <point x="132" y="0" type="line"/>
      <point x="597" y="0" type="line"/>
      <point x="603" y="34" type="line"/>
      <point x="167" y="34" type="line"/>
    </contour>
  </outline>
</glyph>
<glyph name="VaMatraI.tm" format="2">
  <advance width="1456"/>
  <note>
VaMatraI.tm
</note>
  <outline>
    <contour>
      <point x="986" y="1156" type="line"/>
      <point x="986" y="32" type="line"/>
      <point x="771" y="32" type="line"/>
      <point x="771" y="0" type="line"/>
      <point x="1020" y="0" type="line"/>
      <point x="1020" y="1156" type="line"/>
    </contour>
    <contour>
      <point x="1086" y="1616" type="curve" smooth="yes"/>
      <point x="920" y="1616"/>
      <point x="838" y="1519"/>
      <point x="838" y="1370" type="curve" smooth="yes"/>
      <point x="838" y="1334" type="line" smooth="yes"/>
      <point x="838" y="1198"/>
      <point x="890" y="1128"/>
      <point x="1006" y="1124" type="curve"/>
      <point x="1015" y="1156" type="line"/>
      <point x="918" y="1156"/>
      <point x="873" y="1214"/>
      <point x="873" y="1334" type="curve" smooth="yes"/>
      <point x="873" y="1370" type="line" smooth="yes"/>
      <point x="873" y="1497"/>
      <point x="935" y="1583"/>
      <point x="1086" y="1583" type="curve" smooth="yes"/>
      <point x="1237" y="1583"/>
      <point x="1289" y="1495"/>
      <point x="1289" y="1320" type="curve" smooth="yes"/>
      <point x="1289" y="0" type="line"/>
      <point x="1324" y="0" type="line"/>
      <point x="1324" y="1326" type="line" smooth="yes"/>
      <point x="1324" y="1521"/>
      <point x="1253" y="1616"/>
    </contour>
    <component base="Va_NonExporting" xOffset="4"/>
  </outline>
</glyph>
<glyph name="VaMatraI_SimpleI.tm" format="2">
  <advance width="1508"/>
  <note>
VaMatraI.tm
</note>
  <outline>
    <contour>
      <point x="1038" y="1156" type="line"/>
      <point x="1038" y="32" type="line"/>
      <point x="771" y="32" type="line"/>
      <point x="771" y="0" type="line"/>
      <point x="1073" y="0" type="line"/>
      <point x="1073" y="1156" type="line"/>
    </contour>
    <contour>
      <point x="1100" y="1616" type="curve" smooth="yes"/>
      <point x="905" y="1616"/>
      <point x="817" y="1494"/>
      <point x="817" y="1253" type="curve" smooth="yes"/>
      <point x="817" y="1150" type="line" smooth="yes"/>
      <point x="817" y="947"/>
      <point x="880" y="833"/>
      <point x="1039" y="802" type="curve"/>
      <point x="1041" y="834" type="line"/>
      <point x="892" y="869"/>
      <point x="852" y="973"/>
      <point x="852" y="1150" type="curve" smooth="yes"/>
      <point x="852" y="1250" type="line" smooth="yes"/>
      <point x="852" y="1471"/>
      <point x="921" y="1582"/>
      <point x="1100" y="1582" type="curve" smooth="yes"/>
      <point x="1277" y="1582"/>
      <point x="1341" y="1475"/>
      <point x="1341" y="1250" type="curve" smooth="yes"/>
      <point x="1341" y="0" type="line"/>
      <point x="1376" y="0" type="line"/>
      <point x="1376" y="1253" type="line" smooth="yes"/>
      <point x="1376" y="1496"/>
      <point x="1291" y="1616"/>
    </contour>
    <component base="Va_NonExporting" xOffset="4"/>
  </outline>
</glyph>
<glyph name="VaMatraIi.tm" format="2">
  <advance width="1154"/>
  <note>
VaMatraIi.tm
</note>
  <outline>
    <contour>
      <point x="1020" y="1156" type="line"/>
      <point x="986" y="1156" type="line"/>
      <point x="986" y="31" type="line"/>
      <point x="781" y="31" type="line"/>
      <point x="781" y="0" type="line"/>
      <point x="1020" y="0" type="line"/>
    </contour>
    <contour>
      <point x="942" y="1726" type="curve" smooth="yes"/>
      <point x="851" y="1726"/>
      <point x="801" y="1665"/>
      <point x="801" y="1561" type="curve"/>
      <point x="801" y="1341" type="line"/>
      <point x="801" y="1187"/>
      <point x="850" y="1124"/>
      <point x="987" y="1124" type="curve"/>
      <point x="992" y="1124" type="line"/>
      <point x="992" y="1156" type="line"/>
      <point x="988" y="1156" type="line"/>
      <point x="875" y="1156"/>
      <point x="835" y="1205"/>
      <point x="835" y="1341" type="curve"/>
      <point x="835" y="1407" type="line"/>
      <point x="835" y="1559" type="line" smooth="yes"/>
      <point x="835" y="1647"/>
      <point x="872" y="1693"/>
      <point x="942" y="1693" type="curve" smooth="yes"/>
      <point x="1014" y="1693"/>
      <point x="1040" y="1647"/>
      <point x="1040" y="1563" type="curve" smooth="yes"/>
      <point x="1040" y="1456" type="line" smooth="yes"/>
      <point x="1040" y="1380"/>
      <point x="1012" y="1337"/>
      <point x="947" y="1337" type="curve" smooth="yes"/>
      <point x="890" y="1337"/>
      <point x="848" y="1372"/>
      <point x="831" y="1421" type="curve"/>
      <point x="830" y="1421" type="line"/>
      <point x="830" y="1388" type="line"/>
      <point x="833" y="1388" type="line"/>
      <point x="852" y="1351" type="line"/>
      <point x="866" y="1328"/>
      <point x="903" y="1304"/>
      <point x="951" y="1304" type="curve" smooth="yes"/>
      <point x="1041" y="1304"/>
      <point x="1074" y="1365"/>
      <point x="1074" y="1454" type="curve" smooth="yes"/>
      <point x="1074" y="1564" type="line" smooth="yes"/>
      <point x="1074" y="1665"/>
      <point x="1038" y="1726"/>
    </contour>
    <component base="Va_NonExporting" xOffset="4"/>
  </outline>
</glyph>
<glyph name="VaMatraIi_SimpleIi.tm" format="2">
  <advance width="1204"/>
  <note>
VaMatraIi.tm
</note>
  <outline>
    <contour>
      <point x="1038" y="1156" type="line"/>
      <point x="1038" y="31" type="line"/>
      <point x="771" y="31" type="line"/>
      <point x="771" y="0" type="line"/>
      <point x="1073" y="0" type="line"/>
      <point x="1073" y="1156" type="line"/>
    </contour>
    <contour>
      <point x="1098" y="1726" type="curve" smooth="yes"/>
      <point x="901" y="1726"/>
      <point x="817" y="1604"/>
      <point x="817" y="1363" type="curve" smooth="yes"/>
      <point x="817" y="1150" type="line" smooth="yes"/>
      <point x="817" y="948"/>
      <point x="878" y="835"/>
      <point x="1039" y="801" type="curve"/>
      <point x="1039" y="834" type="line"/>
      <point x="892" y="870"/>
      <point x="852" y="973"/>
      <point x="852" y="1150" type="curve" smooth="yes"/>
      <point x="852" y="1360" type="line" smooth="yes"/>
      <point x="852" y="1583"/>
      <point x="920" y="1695"/>
      <point x="1096" y="1695" type="curve" smooth="yes"/>
      <point x="1100" y="1695" type="line"/>
      <point x="1104" y="1695"/>
      <point x="1104" y="1695"/>
      <point x="1105" y="1695" type="curve" smooth="yes"/>
      <point x="1235" y="1695"/>
      <point x="1276" y="1619"/>
      <point x="1276" y="1472" type="curve" smooth="yes"/>
      <point x="1276" y="1426" type="line" smooth="yes"/>
      <point x="1276" y="1335"/>
      <point x="1243" y="1293"/>
      <point x="1179" y="1293" type="curve" smooth="yes"/>
      <point x="1115" y="1293"/>
      <point x="1081" y="1335"/>
      <point x="1081" y="1426" type="curve" smooth="yes"/>
      <point x="1081" y="1516" type="line" smooth="yes"/>
      <point x="1081" y="1610"/>
      <point x="1097" y="1665"/>
      <point x="1142" y="1702" type="curve"/>
      <point x="1096" y="1702" type="line"/>
      <point x="1096" y="1695" type="line"/>
      <point x="1065" y="1661"/>
      <point x="1047" y="1609"/>
      <point x="1047" y="1514" type="curve" smooth="yes"/>
      <point x="1047" y="1424" type="line" smooth="yes"/>
      <point x="1047" y="1316"/>
      <point x="1093" y="1260"/>
      <point x="1179" y="1260" type="curve" smooth="yes"/>
      <point x="1266" y="1260"/>
      <point x="1310" y="1314"/>
      <point x="1310" y="1422" type="curve" smooth="yes"/>
      <point x="1310" y="1476" type="line" smooth="yes"/>
      <point x="1310" y="1638"/>
      <point x="1258" y="1726"/>
    </contour>
    <component base="Va_NonExporting" xOffset="4"/>
  </outline>
</glyph>
<glyph name="VaMatraU.tm" format="2">
  <advance width="1152"/>
  <note>
VaMatraU.tm
</note>
  <anchor x="688" y="1236" name="top"/>
  <outline>
    <contour>
      <point x="986" y="202" type="line"/>
      <point x="986" y="-272" type="line"/>
      <point x="1020" y="-272" type="line"/>
      <point x="1020" y="202" type="line"/>
    </contour>
    <component base="Va_dummy.tm"/>
  </outline>
</glyph>
<glyph name="VaMatraUu.tm" format="2">
  <advance width="1308"/>
  <note>
VaMatraUu.tm
</note>
  <anchor x="688" y="1236" name="top"/>
  <outline>
    <contour>
      <point x="986" y="118" type="line"/>
      <point x="986" y="-287" type="line"/>
      <point x="1020" y="-287" type="line"/>
      <point x="1020" y="118" type="line"/>
    </contour>
    <contour>
      <point x="1155" y="178" type="curve" smooth="yes"/>
      <point x="1081" y="178"/>
      <point x="1039" y="128"/>
      <point x="1020" y="75" type="curve"/>
      <point x="1009" y="75" type="line"/>
      <point x="1009" y="-26" type="line"/>
      <point x="1015" y="-26" type="line"/>
      <point x="1030" y="77"/>
      <point x="1072" y="145"/>
      <point x="1153" y="145" type="curve" smooth="yes"/>
      <point x="1238" y="145"/>
      <point x="1263" y="79"/>
      <point x="1263" y="-42" type="curve" smooth="yes"/>
      <point x="1263" y="-186" type="line" smooth="yes"/>
      <point x="1263" y="-404"/>
      <point x="1184" y="-493"/>
      <point x="1026" y="-493" type="curve" smooth="yes"/>
      <point x="868" y="-493"/>
      <point x="789" y="-404"/>
      <point x="789" y="-186" type="curve"/>
      <point x="789" y="-96" type="line"/>
      <point x="754" y="-103" type="line"/>
      <point x="754" y="-186" type="line" smooth="yes"/>
      <point x="754" y="-423"/>
      <point x="844" y="-526"/>
      <point x="1026" y="-526" type="curve" smooth="yes"/>
      <point x="1208" y="-526"/>
      <point x="1298" y="-423"/>
      <point x="1298" y="-186" type="curve" smooth="yes"/>
      <point x="1298" y="-37" type="line" smooth="yes"/>
      <point x="1298" y="106"/>
      <point x="1254" y="178"/>
    </contour>
    <component base="Va_dummy.tm"/>
  </outline>
</glyph>
<glyph name="VaMatraUu_SimpleUu.tm" format="2">
  <advance width="1312"/>
  <note>
VaMatraUu.tm
</note>
  <anchor x="688" y="1236" name="top"/>
  <outline>
    <contour>
      <point x="986" y="118" type="line"/>
      <point x="986" y="-250" type="line"/>
      <point x="1020" y="-250" type="line"/>
      <point x="1020" y="118" type="line"/>
    </contour>
    <contour>
      <point x="1157" y="178" type="curve" smooth="yes"/>
      <point x="1081" y="178"/>
      <point x="1039" y="128"/>
      <point x="1020" y="75" type="curve"/>
      <point x="1009" y="75" type="line"/>
      <point x="1009" y="-26" type="line"/>
      <point x="1015" y="-26" type="line"/>
      <point x="1030" y="72"/>
      <point x="1070" y="145"/>
      <point x="1155" y="145" type="curve" smooth="yes"/>
      <point x="1241" y="145"/>
      <point x="1267" y="85"/>
      <point x="1267" y="-26" type="curve" smooth="yes"/>
      <point x="1267" y="-59" type="line" smooth="yes"/>
      <point x="1267" y="-339"/>
      <point x="1115" y="-464"/>
      <point x="707" y="-464" type="curve" smooth="yes"/>
      <point x="357" y="-464"/>
      <point x="139" y="-369"/>
      <point x="139" y="-239" type="curve" smooth="yes"/>
      <point x="139" y="-163"/>
      <point x="207" y="-139"/>
      <point x="303" y="-139" type="curve" smooth="yes"/>
      <point x="425" y="-139"/>
      <point x="509" y="-165"/>
      <point x="583" y="-194" type="curve"/>
      <point x="579" y="-158" type="line"/>
      <point x="522" y="-136"/>
      <point x="430" y="-107"/>
      <point x="301" y="-107" type="curve" smooth="yes"/>
      <point x="184" y="-107"/>
      <point x="104" y="-145"/>
      <point x="104" y="-239" type="curve" smooth="yes"/>
      <point x="104" y="-388"/>
      <point x="329" y="-497"/>
      <point x="707" y="-497" type="curve" smooth="yes"/>
      <point x="1137" y="-497"/>
      <point x="1302" y="-359"/>
      <point x="1302" y="-59" type="curve" smooth="yes"/>
      <point x="1302" y="-20" type="line" smooth="yes"/>
      <point x="1302" y="111"/>
      <point x="1258" y="178"/>
    </contour>
    <component base="Va_dummy.tm"/>
  </outline>
</glyph>
